%TF.GenerationSoftware,KiCad,Pcbnew,5.1.10-88a1d61d58~88~ubuntu20.04.1*%
%TF.CreationDate,2021-06-10T18:40:27+05:30*%
%TF.ProjectId,LB1A_DCA7M4_R512MB_F4GB,4c423141-5f44-4434-9137-4d345f523531,1.0.0*%
%TF.SameCoordinates,Original*%
%TF.FileFunction,Paste,Top*%
%TF.FilePolarity,Positive*%
%FSLAX46Y46*%
G04 Gerber Fmt 4.6, Leading zero omitted, Abs format (unit mm)*
G04 Created by KiCad (PCBNEW 5.1.10-88a1d61d58~88~ubuntu20.04.1) date 2021-06-10 18:40:27*
%MOMM*%
%LPD*%
G01*
G04 APERTURE LIST*
%ADD10C,0.240000*%
%ADD11C,0.410000*%
%ADD12R,0.150000X0.450000*%
%ADD13R,0.500000X1.200000*%
%ADD14R,0.200000X0.850000*%
%ADD15R,0.850000X0.200000*%
%ADD16R,4.600000X3.600000*%
%ADD17C,0.290000*%
%ADD18R,2.000000X0.800000*%
%ADD19R,0.800000X2.000000*%
G04 APERTURE END LIST*
D10*
%TO.C,U1*%
X152710000Y-96140000D03*
X152710000Y-96640000D03*
X152710000Y-97140000D03*
X152710000Y-97640000D03*
X152710000Y-98140000D03*
X152710000Y-99140000D03*
X152710000Y-99640000D03*
X152710000Y-100640000D03*
X152710000Y-101140000D03*
X152710000Y-102140000D03*
X152710000Y-102640000D03*
X152710000Y-103640000D03*
X152710000Y-104140000D03*
X152710000Y-105140000D03*
X152710000Y-105640000D03*
X152710000Y-106140000D03*
X152710000Y-106640000D03*
X152710000Y-107140000D03*
X152210000Y-96140000D03*
X152210000Y-96640000D03*
X152210000Y-97140000D03*
X152210000Y-97640000D03*
X152210000Y-98140000D03*
X152210000Y-98640000D03*
X152210000Y-99140000D03*
X152210000Y-99640000D03*
X152210000Y-100140000D03*
X152210000Y-100640000D03*
X152210000Y-101140000D03*
X152210000Y-101640000D03*
X152210000Y-102140000D03*
X152210000Y-102640000D03*
X152210000Y-103140000D03*
X152210000Y-103640000D03*
X152210000Y-104140000D03*
X152210000Y-104640000D03*
X152210000Y-105140000D03*
X152210000Y-105640000D03*
X152210000Y-106140000D03*
X152210000Y-106640000D03*
X152210000Y-107140000D03*
X151710000Y-96140000D03*
X151710000Y-96640000D03*
X151710000Y-97140000D03*
X151710000Y-97640000D03*
X151710000Y-98140000D03*
X151710000Y-98640000D03*
X151710000Y-99140000D03*
X151710000Y-99640000D03*
X151710000Y-100140000D03*
X151710000Y-100640000D03*
X151710000Y-101140000D03*
X151710000Y-101640000D03*
X151710000Y-102140000D03*
X151710000Y-102640000D03*
X151710000Y-103140000D03*
X151710000Y-103640000D03*
X151710000Y-104140000D03*
X151710000Y-104640000D03*
X151710000Y-105140000D03*
X151710000Y-105640000D03*
X151710000Y-106140000D03*
X151710000Y-106640000D03*
X151710000Y-107140000D03*
X151210000Y-96140000D03*
X151210000Y-96640000D03*
X151210000Y-97140000D03*
X151210000Y-97640000D03*
X151210000Y-98140000D03*
X151210000Y-98640000D03*
X151210000Y-99140000D03*
X151210000Y-99640000D03*
X151210000Y-100140000D03*
X151210000Y-100640000D03*
X151210000Y-101140000D03*
X151210000Y-101640000D03*
X151210000Y-102140000D03*
X151210000Y-102640000D03*
X151210000Y-103140000D03*
X151210000Y-103640000D03*
X151210000Y-104140000D03*
X151210000Y-104640000D03*
X151210000Y-105140000D03*
X151210000Y-105640000D03*
X151210000Y-106140000D03*
X151210000Y-106640000D03*
X151210000Y-107140000D03*
X150710000Y-96140000D03*
X150710000Y-96640000D03*
X150710000Y-97140000D03*
X150710000Y-97640000D03*
X150710000Y-105640000D03*
X150710000Y-106140000D03*
X150710000Y-106640000D03*
X150710000Y-107140000D03*
X150210000Y-96640000D03*
X150210000Y-97140000D03*
X150210000Y-97640000D03*
X150210000Y-105640000D03*
X150210000Y-106140000D03*
X150210000Y-106640000D03*
X149710000Y-96140000D03*
X149710000Y-96640000D03*
X149710000Y-97140000D03*
X149710000Y-97640000D03*
X149710000Y-105640000D03*
X149710000Y-106140000D03*
X149710000Y-106640000D03*
X149710000Y-107140000D03*
X149210000Y-96140000D03*
X149210000Y-96640000D03*
X149210000Y-97140000D03*
X149210000Y-97640000D03*
X149810000Y-99690000D03*
X149810000Y-100340000D03*
X149810000Y-100990000D03*
X149810000Y-101640000D03*
X149810000Y-102290000D03*
X149810000Y-102940000D03*
X149810000Y-103590000D03*
X149210000Y-105640000D03*
X149210000Y-106140000D03*
X149210000Y-106640000D03*
X149210000Y-107140000D03*
X148710000Y-96640000D03*
X148710000Y-97140000D03*
X148710000Y-97640000D03*
X149160000Y-99040000D03*
X149160000Y-99690000D03*
X149160000Y-100340000D03*
X149160000Y-100990000D03*
X149160000Y-101640000D03*
X149160000Y-102290000D03*
X149160000Y-102940000D03*
X149160000Y-103590000D03*
X149160000Y-104240000D03*
X148710000Y-105640000D03*
X148710000Y-106140000D03*
X148710000Y-106640000D03*
X148210000Y-96140000D03*
X148210000Y-96640000D03*
X148210000Y-97140000D03*
X148210000Y-97640000D03*
X148510000Y-99040000D03*
X148510000Y-99690000D03*
X148510000Y-100340000D03*
X148510000Y-100990000D03*
X148510000Y-101640000D03*
X148510000Y-102290000D03*
X148510000Y-102940000D03*
X148510000Y-103590000D03*
X148510000Y-104240000D03*
X148210000Y-105640000D03*
X148210000Y-106140000D03*
X148210000Y-106640000D03*
X148210000Y-107140000D03*
X147710000Y-96140000D03*
X147710000Y-96640000D03*
X147710000Y-97140000D03*
X147710000Y-97640000D03*
X147860000Y-99040000D03*
X147860000Y-99690000D03*
X147860000Y-100340000D03*
X147860000Y-100990000D03*
X147860000Y-101640000D03*
X147860000Y-102290000D03*
X147860000Y-102940000D03*
X147860000Y-103590000D03*
X147860000Y-104240000D03*
X147710000Y-105640000D03*
X147710000Y-106140000D03*
X147710000Y-106640000D03*
X147710000Y-107140000D03*
X147210000Y-96640000D03*
X147210000Y-97140000D03*
X147210000Y-97640000D03*
X147210000Y-99040000D03*
X147210000Y-99690000D03*
X147210000Y-100340000D03*
X147210000Y-100990000D03*
X147210000Y-101640000D03*
X147210000Y-102290000D03*
X147210000Y-102940000D03*
X147210000Y-103590000D03*
X147210000Y-104240000D03*
X147210000Y-105640000D03*
X147210000Y-106140000D03*
X147210000Y-106640000D03*
X146710000Y-96140000D03*
X146710000Y-96640000D03*
X146710000Y-97140000D03*
X146710000Y-97640000D03*
X146560000Y-99040000D03*
X146560000Y-99690000D03*
X146560000Y-100340000D03*
X146560000Y-100990000D03*
X146560000Y-101640000D03*
X146560000Y-102290000D03*
X146560000Y-102940000D03*
X146560000Y-103590000D03*
X146560000Y-104240000D03*
X146710000Y-105640000D03*
X146710000Y-106140000D03*
X146710000Y-106640000D03*
X146710000Y-107140000D03*
X146210000Y-96140000D03*
X146210000Y-96640000D03*
X146210000Y-97140000D03*
X146210000Y-97640000D03*
X145910000Y-99040000D03*
X145910000Y-99690000D03*
X145910000Y-100340000D03*
X145910000Y-100990000D03*
X145910000Y-101640000D03*
X145910000Y-102290000D03*
X145910000Y-102940000D03*
X145910000Y-103590000D03*
X145910000Y-104240000D03*
X146210000Y-105640000D03*
X146210000Y-106140000D03*
X146210000Y-106640000D03*
X146210000Y-107140000D03*
X145710000Y-96640000D03*
X145710000Y-97140000D03*
X145710000Y-97640000D03*
X145260000Y-99040000D03*
X145260000Y-99690000D03*
X145260000Y-100340000D03*
X145260000Y-100990000D03*
X145260000Y-101640000D03*
X145260000Y-102290000D03*
X145260000Y-102940000D03*
X145260000Y-103590000D03*
X145260000Y-104240000D03*
X145710000Y-105640000D03*
X145710000Y-106140000D03*
X145710000Y-106640000D03*
X145210000Y-96140000D03*
X145210000Y-96640000D03*
X145210000Y-97140000D03*
X145210000Y-97640000D03*
X144610000Y-99690000D03*
X144610000Y-100340000D03*
X144610000Y-100990000D03*
X144610000Y-101640000D03*
X144610000Y-102290000D03*
X144610000Y-102940000D03*
X144610000Y-103590000D03*
X145210000Y-105640000D03*
X145210000Y-106140000D03*
X145210000Y-106640000D03*
X145210000Y-107140000D03*
X144710000Y-96140000D03*
X144710000Y-96640000D03*
X144710000Y-97140000D03*
X144710000Y-97640000D03*
X144710000Y-105640000D03*
X144710000Y-106140000D03*
X144710000Y-106640000D03*
X144710000Y-107140000D03*
X144210000Y-96640000D03*
X144210000Y-97140000D03*
X144210000Y-97640000D03*
X144210000Y-105640000D03*
X144210000Y-106140000D03*
X144210000Y-106640000D03*
X143710000Y-96140000D03*
X143710000Y-96640000D03*
X143710000Y-97140000D03*
X143710000Y-97640000D03*
X143710000Y-105640000D03*
X143710000Y-106140000D03*
X143710000Y-106640000D03*
X143710000Y-107140000D03*
X143210000Y-96140000D03*
X143210000Y-96640000D03*
X143210000Y-97140000D03*
X143210000Y-97640000D03*
X143210000Y-98140000D03*
X143210000Y-98640000D03*
X143210000Y-99140000D03*
X143210000Y-99640000D03*
X143210000Y-100140000D03*
X143210000Y-100640000D03*
X143210000Y-101140000D03*
X143210000Y-101640000D03*
X143210000Y-102140000D03*
X143210000Y-102640000D03*
X143210000Y-103140000D03*
X143210000Y-103640000D03*
X143210000Y-104140000D03*
X143210000Y-104640000D03*
X143210000Y-105140000D03*
X143210000Y-105640000D03*
X143210000Y-106140000D03*
X143210000Y-106640000D03*
X143210000Y-107140000D03*
X142710000Y-96140000D03*
X142710000Y-96640000D03*
X142710000Y-97140000D03*
X142710000Y-97640000D03*
X142710000Y-98140000D03*
X142710000Y-98640000D03*
X142710000Y-99140000D03*
X142710000Y-99640000D03*
X142710000Y-100140000D03*
X142710000Y-100640000D03*
X142710000Y-101140000D03*
X142710000Y-101640000D03*
X142710000Y-102140000D03*
X142710000Y-102640000D03*
X142710000Y-103140000D03*
X142710000Y-103640000D03*
X142710000Y-104140000D03*
X142710000Y-104640000D03*
X142710000Y-105140000D03*
X142710000Y-105640000D03*
X142710000Y-106140000D03*
X142710000Y-106640000D03*
X142710000Y-107140000D03*
X142210000Y-96140000D03*
X142210000Y-96640000D03*
X142210000Y-97140000D03*
X142210000Y-97640000D03*
X142210000Y-98140000D03*
X142210000Y-98640000D03*
X142210000Y-99140000D03*
X142210000Y-99640000D03*
X142210000Y-100140000D03*
X142210000Y-100640000D03*
X142210000Y-101140000D03*
X142210000Y-101640000D03*
X142210000Y-102140000D03*
X142210000Y-102640000D03*
X142210000Y-103140000D03*
X142210000Y-103640000D03*
X142210000Y-104140000D03*
X142210000Y-104640000D03*
X142210000Y-105140000D03*
X142210000Y-105640000D03*
X142210000Y-106140000D03*
X142210000Y-106640000D03*
X142210000Y-107140000D03*
X141710000Y-96140000D03*
X141710000Y-96640000D03*
X141710000Y-97140000D03*
X141710000Y-97640000D03*
X141710000Y-98140000D03*
X141710000Y-99140000D03*
X141710000Y-99640000D03*
X141710000Y-100640000D03*
X141710000Y-101140000D03*
X141710000Y-102140000D03*
X141710000Y-102640000D03*
X141710000Y-103640000D03*
X141710000Y-104140000D03*
X141710000Y-105140000D03*
X141710000Y-105640000D03*
X141710000Y-106140000D03*
X141710000Y-106640000D03*
X141710000Y-107140000D03*
%TD*%
%TO.C,U1*%
X141710000Y-107140000D03*
X141710000Y-106640000D03*
X141710000Y-106140000D03*
X141710000Y-105640000D03*
X141710000Y-105140000D03*
X141710000Y-104140000D03*
X141710000Y-103640000D03*
X141710000Y-102640000D03*
X141710000Y-102140000D03*
X141710000Y-101140000D03*
X141710000Y-100640000D03*
X141710000Y-99640000D03*
X141710000Y-99140000D03*
X141710000Y-98140000D03*
X141710000Y-97640000D03*
X141710000Y-97140000D03*
X141710000Y-96640000D03*
X141710000Y-96140000D03*
X142210000Y-107140000D03*
X142210000Y-106640000D03*
X142210000Y-106140000D03*
X142210000Y-105640000D03*
X142210000Y-105140000D03*
X142210000Y-104640000D03*
X142210000Y-104140000D03*
X142210000Y-103640000D03*
X142210000Y-103140000D03*
X142210000Y-102640000D03*
X142210000Y-102140000D03*
X142210000Y-101640000D03*
X142210000Y-101140000D03*
X142210000Y-100640000D03*
X142210000Y-100140000D03*
X142210000Y-99640000D03*
X142210000Y-99140000D03*
X142210000Y-98640000D03*
X142210000Y-98140000D03*
X142210000Y-97640000D03*
X142210000Y-97140000D03*
X142210000Y-96640000D03*
X142210000Y-96140000D03*
X142710000Y-107140000D03*
X142710000Y-106640000D03*
X142710000Y-106140000D03*
X142710000Y-105640000D03*
X142710000Y-105140000D03*
X142710000Y-104640000D03*
X142710000Y-104140000D03*
X142710000Y-103640000D03*
X142710000Y-103140000D03*
X142710000Y-102640000D03*
X142710000Y-102140000D03*
X142710000Y-101640000D03*
X142710000Y-101140000D03*
X142710000Y-100640000D03*
X142710000Y-100140000D03*
X142710000Y-99640000D03*
X142710000Y-99140000D03*
X142710000Y-98640000D03*
X142710000Y-98140000D03*
X142710000Y-97640000D03*
X142710000Y-97140000D03*
X142710000Y-96640000D03*
X142710000Y-96140000D03*
X143210000Y-107140000D03*
X143210000Y-106640000D03*
X143210000Y-106140000D03*
X143210000Y-105640000D03*
X143210000Y-105140000D03*
X143210000Y-104640000D03*
X143210000Y-104140000D03*
X143210000Y-103640000D03*
X143210000Y-103140000D03*
X143210000Y-102640000D03*
X143210000Y-102140000D03*
X143210000Y-101640000D03*
X143210000Y-101140000D03*
X143210000Y-100640000D03*
X143210000Y-100140000D03*
X143210000Y-99640000D03*
X143210000Y-99140000D03*
X143210000Y-98640000D03*
X143210000Y-98140000D03*
X143210000Y-97640000D03*
X143210000Y-97140000D03*
X143210000Y-96640000D03*
X143210000Y-96140000D03*
X143710000Y-107140000D03*
X143710000Y-106640000D03*
X143710000Y-106140000D03*
X143710000Y-105640000D03*
X143710000Y-97640000D03*
X143710000Y-97140000D03*
X143710000Y-96640000D03*
X143710000Y-96140000D03*
X144210000Y-106640000D03*
X144210000Y-106140000D03*
X144210000Y-105640000D03*
X144210000Y-97640000D03*
X144210000Y-97140000D03*
X144210000Y-96640000D03*
X144710000Y-107140000D03*
X144710000Y-106640000D03*
X144710000Y-106140000D03*
X144710000Y-105640000D03*
X144710000Y-97640000D03*
X144710000Y-97140000D03*
X144710000Y-96640000D03*
X144710000Y-96140000D03*
X145210000Y-107140000D03*
X145210000Y-106640000D03*
X145210000Y-106140000D03*
X145210000Y-105640000D03*
X144610000Y-103590000D03*
X144610000Y-102940000D03*
X144610000Y-102290000D03*
X144610000Y-101640000D03*
X144610000Y-100990000D03*
X144610000Y-100340000D03*
X144610000Y-99690000D03*
X145210000Y-97640000D03*
X145210000Y-97140000D03*
X145210000Y-96640000D03*
X145210000Y-96140000D03*
X145710000Y-106640000D03*
X145710000Y-106140000D03*
X145710000Y-105640000D03*
X145260000Y-104240000D03*
X145260000Y-103590000D03*
X145260000Y-102940000D03*
X145260000Y-102290000D03*
X145260000Y-101640000D03*
X145260000Y-100990000D03*
X145260000Y-100340000D03*
X145260000Y-99690000D03*
X145260000Y-99040000D03*
X145710000Y-97640000D03*
X145710000Y-97140000D03*
X145710000Y-96640000D03*
X146210000Y-107140000D03*
X146210000Y-106640000D03*
X146210000Y-106140000D03*
X146210000Y-105640000D03*
X145910000Y-104240000D03*
X145910000Y-103590000D03*
X145910000Y-102940000D03*
X145910000Y-102290000D03*
X145910000Y-101640000D03*
X145910000Y-100990000D03*
X145910000Y-100340000D03*
X145910000Y-99690000D03*
X145910000Y-99040000D03*
X146210000Y-97640000D03*
X146210000Y-97140000D03*
X146210000Y-96640000D03*
X146210000Y-96140000D03*
X146710000Y-107140000D03*
X146710000Y-106640000D03*
X146710000Y-106140000D03*
X146710000Y-105640000D03*
X146560000Y-104240000D03*
X146560000Y-103590000D03*
X146560000Y-102940000D03*
X146560000Y-102290000D03*
X146560000Y-101640000D03*
X146560000Y-100990000D03*
X146560000Y-100340000D03*
X146560000Y-99690000D03*
X146560000Y-99040000D03*
X146710000Y-97640000D03*
X146710000Y-97140000D03*
X146710000Y-96640000D03*
X146710000Y-96140000D03*
X147210000Y-106640000D03*
X147210000Y-106140000D03*
X147210000Y-105640000D03*
X147210000Y-104240000D03*
X147210000Y-103590000D03*
X147210000Y-102940000D03*
X147210000Y-102290000D03*
X147210000Y-101640000D03*
X147210000Y-100990000D03*
X147210000Y-100340000D03*
X147210000Y-99690000D03*
X147210000Y-99040000D03*
X147210000Y-97640000D03*
X147210000Y-97140000D03*
X147210000Y-96640000D03*
X147710000Y-107140000D03*
X147710000Y-106640000D03*
X147710000Y-106140000D03*
X147710000Y-105640000D03*
X147860000Y-104240000D03*
X147860000Y-103590000D03*
X147860000Y-102940000D03*
X147860000Y-102290000D03*
X147860000Y-101640000D03*
X147860000Y-100990000D03*
X147860000Y-100340000D03*
X147860000Y-99690000D03*
X147860000Y-99040000D03*
X147710000Y-97640000D03*
X147710000Y-97140000D03*
X147710000Y-96640000D03*
X147710000Y-96140000D03*
X148210000Y-107140000D03*
X148210000Y-106640000D03*
X148210000Y-106140000D03*
X148210000Y-105640000D03*
X148510000Y-104240000D03*
X148510000Y-103590000D03*
X148510000Y-102940000D03*
X148510000Y-102290000D03*
X148510000Y-101640000D03*
X148510000Y-100990000D03*
X148510000Y-100340000D03*
X148510000Y-99690000D03*
X148510000Y-99040000D03*
X148210000Y-97640000D03*
X148210000Y-97140000D03*
X148210000Y-96640000D03*
X148210000Y-96140000D03*
X148710000Y-106640000D03*
X148710000Y-106140000D03*
X148710000Y-105640000D03*
X149160000Y-104240000D03*
X149160000Y-103590000D03*
X149160000Y-102940000D03*
X149160000Y-102290000D03*
X149160000Y-101640000D03*
X149160000Y-100990000D03*
X149160000Y-100340000D03*
X149160000Y-99690000D03*
X149160000Y-99040000D03*
X148710000Y-97640000D03*
X148710000Y-97140000D03*
X148710000Y-96640000D03*
X149210000Y-107140000D03*
X149210000Y-106640000D03*
X149210000Y-106140000D03*
X149210000Y-105640000D03*
X149810000Y-103590000D03*
X149810000Y-102940000D03*
X149810000Y-102290000D03*
X149810000Y-101640000D03*
X149810000Y-100990000D03*
X149810000Y-100340000D03*
X149810000Y-99690000D03*
X149210000Y-97640000D03*
X149210000Y-97140000D03*
X149210000Y-96640000D03*
X149210000Y-96140000D03*
X149710000Y-107140000D03*
X149710000Y-106640000D03*
X149710000Y-106140000D03*
X149710000Y-105640000D03*
X149710000Y-97640000D03*
X149710000Y-97140000D03*
X149710000Y-96640000D03*
X149710000Y-96140000D03*
X150210000Y-106640000D03*
X150210000Y-106140000D03*
X150210000Y-105640000D03*
X150210000Y-97640000D03*
X150210000Y-97140000D03*
X150210000Y-96640000D03*
X150710000Y-107140000D03*
X150710000Y-106640000D03*
X150710000Y-106140000D03*
X150710000Y-105640000D03*
X150710000Y-97640000D03*
X150710000Y-97140000D03*
X150710000Y-96640000D03*
X150710000Y-96140000D03*
X151210000Y-107140000D03*
X151210000Y-106640000D03*
X151210000Y-106140000D03*
X151210000Y-105640000D03*
X151210000Y-105140000D03*
X151210000Y-104640000D03*
X151210000Y-104140000D03*
X151210000Y-103640000D03*
X151210000Y-103140000D03*
X151210000Y-102640000D03*
X151210000Y-102140000D03*
X151210000Y-101640000D03*
X151210000Y-101140000D03*
X151210000Y-100640000D03*
X151210000Y-100140000D03*
X151210000Y-99640000D03*
X151210000Y-99140000D03*
X151210000Y-98640000D03*
X151210000Y-98140000D03*
X151210000Y-97640000D03*
X151210000Y-97140000D03*
X151210000Y-96640000D03*
X151210000Y-96140000D03*
X151710000Y-107140000D03*
X151710000Y-106640000D03*
X151710000Y-106140000D03*
X151710000Y-105640000D03*
X151710000Y-105140000D03*
X151710000Y-104640000D03*
X151710000Y-104140000D03*
X151710000Y-103640000D03*
X151710000Y-103140000D03*
X151710000Y-102640000D03*
X151710000Y-102140000D03*
X151710000Y-101640000D03*
X151710000Y-101140000D03*
X151710000Y-100640000D03*
X151710000Y-100140000D03*
X151710000Y-99640000D03*
X151710000Y-99140000D03*
X151710000Y-98640000D03*
X151710000Y-98140000D03*
X151710000Y-97640000D03*
X151710000Y-97140000D03*
X151710000Y-96640000D03*
X151710000Y-96140000D03*
X152210000Y-107140000D03*
X152210000Y-106640000D03*
X152210000Y-106140000D03*
X152210000Y-105640000D03*
X152210000Y-105140000D03*
X152210000Y-104640000D03*
X152210000Y-104140000D03*
X152210000Y-103640000D03*
X152210000Y-103140000D03*
X152210000Y-102640000D03*
X152210000Y-102140000D03*
X152210000Y-101640000D03*
X152210000Y-101140000D03*
X152210000Y-100640000D03*
X152210000Y-100140000D03*
X152210000Y-99640000D03*
X152210000Y-99140000D03*
X152210000Y-98640000D03*
X152210000Y-98140000D03*
X152210000Y-97640000D03*
X152210000Y-97140000D03*
X152210000Y-96640000D03*
X152210000Y-96140000D03*
X152710000Y-107140000D03*
X152710000Y-106640000D03*
X152710000Y-106140000D03*
X152710000Y-105640000D03*
X152710000Y-105140000D03*
X152710000Y-104140000D03*
X152710000Y-103640000D03*
X152710000Y-102640000D03*
X152710000Y-102140000D03*
X152710000Y-101140000D03*
X152710000Y-100640000D03*
X152710000Y-99640000D03*
X152710000Y-99140000D03*
X152710000Y-98140000D03*
X152710000Y-97640000D03*
X152710000Y-97140000D03*
X152710000Y-96640000D03*
X152710000Y-96140000D03*
%TD*%
D11*
%TO.C,U2*%
X145030000Y-76520000D03*
X145830000Y-76520000D03*
X146630000Y-76520000D03*
X149830000Y-76520000D03*
X150630000Y-76520000D03*
X151430000Y-76520000D03*
X145030000Y-77320000D03*
X145830000Y-77320000D03*
X146630000Y-77320000D03*
X149830000Y-77320000D03*
X150630000Y-77320000D03*
X151430000Y-77320000D03*
X145030000Y-78120000D03*
X145830000Y-78120000D03*
X146630000Y-78120000D03*
X149830000Y-78120000D03*
X150630000Y-78120000D03*
X151430000Y-78120000D03*
X145030000Y-78920000D03*
X145830000Y-78920000D03*
X146630000Y-78920000D03*
X149830000Y-78920000D03*
X150630000Y-78920000D03*
X151430000Y-78920000D03*
X145030000Y-79720000D03*
X145830000Y-79720000D03*
X146630000Y-79720000D03*
X149830000Y-79720000D03*
X150630000Y-79720000D03*
X151430000Y-79720000D03*
X145030000Y-80520000D03*
X145830000Y-80520000D03*
X146630000Y-80520000D03*
X149830000Y-80520000D03*
X150630000Y-80520000D03*
X151430000Y-80520000D03*
X145030000Y-81320000D03*
X145830000Y-81320000D03*
X146630000Y-81320000D03*
X149830000Y-81320000D03*
X150630000Y-81320000D03*
X151430000Y-81320000D03*
X145030000Y-82120000D03*
X145830000Y-82120000D03*
X146630000Y-82120000D03*
X149830000Y-82120000D03*
X150630000Y-82120000D03*
X151430000Y-82120000D03*
X145030000Y-82920000D03*
X145830000Y-82920000D03*
X146630000Y-82920000D03*
X149830000Y-82920000D03*
X150630000Y-82920000D03*
X151430000Y-82920000D03*
X145030000Y-83720000D03*
X145830000Y-83720000D03*
X146630000Y-83720000D03*
X149830000Y-83720000D03*
X150630000Y-83720000D03*
X151430000Y-83720000D03*
X145030000Y-84520000D03*
X145830000Y-84520000D03*
X146630000Y-84520000D03*
X149830000Y-84520000D03*
X150630000Y-84520000D03*
X151430000Y-84520000D03*
X145030000Y-85320000D03*
X145830000Y-85320000D03*
X146630000Y-85320000D03*
X149830000Y-85320000D03*
X150630000Y-85320000D03*
X151430000Y-85320000D03*
X145030000Y-86120000D03*
X145830000Y-86120000D03*
X146630000Y-86120000D03*
X149830000Y-86120000D03*
X150630000Y-86120000D03*
X151430000Y-86120000D03*
X145030000Y-86920000D03*
X145830000Y-86920000D03*
X146630000Y-86920000D03*
X149830000Y-86920000D03*
X150630000Y-86920000D03*
X151430000Y-86920000D03*
X145030000Y-87720000D03*
X145830000Y-87720000D03*
X146630000Y-87720000D03*
X149830000Y-87720000D03*
X150630000Y-87720000D03*
X151430000Y-87720000D03*
X145030000Y-88520000D03*
X145830000Y-88520000D03*
X146630000Y-88520000D03*
X149830000Y-88520000D03*
X150630000Y-88520000D03*
X151430000Y-88520000D03*
%TD*%
%TO.C,R6*%
G36*
G01*
X156550000Y-107155000D02*
X156550000Y-106785000D01*
G75*
G02*
X156685000Y-106650000I135000J0D01*
G01*
X156955000Y-106650000D01*
G75*
G02*
X157090000Y-106785000I0J-135000D01*
G01*
X157090000Y-107155000D01*
G75*
G02*
X156955000Y-107290000I-135000J0D01*
G01*
X156685000Y-107290000D01*
G75*
G02*
X156550000Y-107155000I0J135000D01*
G01*
G37*
G36*
G01*
X155530000Y-107155000D02*
X155530000Y-106785000D01*
G75*
G02*
X155665000Y-106650000I135000J0D01*
G01*
X155935000Y-106650000D01*
G75*
G02*
X156070000Y-106785000I0J-135000D01*
G01*
X156070000Y-107155000D01*
G75*
G02*
X155935000Y-107290000I-135000J0D01*
G01*
X155665000Y-107290000D01*
G75*
G02*
X155530000Y-107155000I0J135000D01*
G01*
G37*
%TD*%
%TO.C,C77*%
G36*
G01*
X146120000Y-112020000D02*
X146120000Y-111680000D01*
G75*
G02*
X146260000Y-111540000I140000J0D01*
G01*
X146540000Y-111540000D01*
G75*
G02*
X146680000Y-111680000I0J-140000D01*
G01*
X146680000Y-112020000D01*
G75*
G02*
X146540000Y-112160000I-140000J0D01*
G01*
X146260000Y-112160000D01*
G75*
G02*
X146120000Y-112020000I0J140000D01*
G01*
G37*
G36*
G01*
X145160000Y-112020000D02*
X145160000Y-111680000D01*
G75*
G02*
X145300000Y-111540000I140000J0D01*
G01*
X145580000Y-111540000D01*
G75*
G02*
X145720000Y-111680000I0J-140000D01*
G01*
X145720000Y-112020000D01*
G75*
G02*
X145580000Y-112160000I-140000J0D01*
G01*
X145300000Y-112160000D01*
G75*
G02*
X145160000Y-112020000I0J140000D01*
G01*
G37*
%TD*%
D12*
%TO.C,X1*%
X145640000Y-110490000D03*
X145840000Y-109590000D03*
D13*
X146490000Y-110040000D03*
X144990000Y-110040000D03*
%TD*%
D14*
%TO.C,U4*%
X133330000Y-81880000D03*
X132930000Y-81880000D03*
X132530000Y-81880000D03*
X132130000Y-81880000D03*
X131730000Y-81880000D03*
X131330000Y-81880000D03*
X130930000Y-81880000D03*
X130530000Y-81880000D03*
X130130000Y-81880000D03*
X129730000Y-81880000D03*
X129330000Y-81880000D03*
X128930000Y-81880000D03*
D15*
X128180000Y-82530000D03*
X128180000Y-82930000D03*
X128180000Y-83330000D03*
X128180000Y-83730000D03*
X128180000Y-84130000D03*
X128180000Y-84530000D03*
X128180000Y-84930000D03*
X128180000Y-85330000D03*
X128180000Y-85730000D03*
X128180000Y-86130000D03*
D14*
X128930000Y-86780000D03*
X129330000Y-86780000D03*
X129730000Y-86780000D03*
X130130000Y-86780000D03*
X130530000Y-86780000D03*
X130930000Y-86780000D03*
X131330000Y-86780000D03*
X131730000Y-86780000D03*
X132130000Y-86780000D03*
X132530000Y-86780000D03*
X132930000Y-86780000D03*
X133330000Y-86780000D03*
D15*
X134080000Y-86130000D03*
X134080000Y-85730000D03*
X134080000Y-85330000D03*
X134080000Y-84930000D03*
X134080000Y-84530000D03*
X134080000Y-84130000D03*
X134080000Y-83730000D03*
X134080000Y-83330000D03*
X134080000Y-82930000D03*
X134080000Y-82530000D03*
D16*
X131130000Y-84330000D03*
%TD*%
D17*
%TO.C,U3*%
X133340000Y-99270000D03*
X133340000Y-99770000D03*
X133340000Y-100270000D03*
X133340000Y-100770000D03*
X133340000Y-101270000D03*
X133340000Y-101770000D03*
X133340000Y-102270000D03*
X133340000Y-102770000D03*
X133340000Y-103270000D03*
X133340000Y-103770000D03*
X133340000Y-104270000D03*
X133340000Y-104770000D03*
X133340000Y-105270000D03*
X133340000Y-105770000D03*
X132840000Y-99270000D03*
X132840000Y-99770000D03*
X132840000Y-100270000D03*
X132840000Y-100770000D03*
X132840000Y-101270000D03*
X132840000Y-101770000D03*
X132840000Y-102270000D03*
X132840000Y-102770000D03*
X132840000Y-103270000D03*
X132840000Y-103770000D03*
X132840000Y-104270000D03*
X132840000Y-104770000D03*
X132840000Y-105270000D03*
X132840000Y-105770000D03*
X132340000Y-99270000D03*
X132340000Y-99770000D03*
X132340000Y-100270000D03*
X132340000Y-100770000D03*
X132340000Y-101270000D03*
X132340000Y-101770000D03*
X132340000Y-102270000D03*
X132340000Y-102770000D03*
X132340000Y-103270000D03*
X132340000Y-103770000D03*
X132340000Y-104270000D03*
X132340000Y-104770000D03*
X132340000Y-105270000D03*
X132340000Y-105770000D03*
X131840000Y-99270000D03*
X131840000Y-99770000D03*
X131840000Y-100270000D03*
X131840000Y-100770000D03*
X131840000Y-104770000D03*
X131840000Y-105270000D03*
X131840000Y-105770000D03*
X131340000Y-99270000D03*
X131340000Y-99770000D03*
X131340000Y-100270000D03*
X131340000Y-101270000D03*
X131340000Y-101770000D03*
X131340000Y-102270000D03*
X131340000Y-102770000D03*
X131340000Y-103270000D03*
X131340000Y-103770000D03*
X131340000Y-104770000D03*
X131340000Y-105270000D03*
X131340000Y-105770000D03*
X130840000Y-99270000D03*
X130840000Y-99770000D03*
X130840000Y-100270000D03*
X130840000Y-101270000D03*
X130840000Y-103770000D03*
X130840000Y-104770000D03*
X130840000Y-105270000D03*
X130840000Y-105770000D03*
X130340000Y-99270000D03*
X130340000Y-99770000D03*
X130340000Y-100270000D03*
X130340000Y-101270000D03*
X130340000Y-103770000D03*
X130340000Y-104770000D03*
X130340000Y-105270000D03*
X130340000Y-105770000D03*
X129840000Y-99270000D03*
X129840000Y-99770000D03*
X129840000Y-100270000D03*
X129840000Y-101270000D03*
X129840000Y-103770000D03*
X129840000Y-104770000D03*
X129840000Y-105270000D03*
X129840000Y-105770000D03*
X129340000Y-99270000D03*
X129340000Y-99770000D03*
X129340000Y-100270000D03*
X129340000Y-101270000D03*
X129340000Y-103770000D03*
X129340000Y-104770000D03*
X129340000Y-105270000D03*
X129340000Y-105770000D03*
X128840000Y-99270000D03*
X128840000Y-99770000D03*
X128840000Y-100270000D03*
X128840000Y-101270000D03*
X128840000Y-101770000D03*
X128840000Y-102270000D03*
X128840000Y-102770000D03*
X128840000Y-103270000D03*
X128840000Y-103770000D03*
X128840000Y-104770000D03*
X128840000Y-105270000D03*
X128840000Y-105770000D03*
X128340000Y-99270000D03*
X128340000Y-99770000D03*
X128340000Y-100270000D03*
X128340000Y-104770000D03*
X128340000Y-105270000D03*
X128340000Y-105770000D03*
X127840000Y-99270000D03*
X127840000Y-99770000D03*
X127840000Y-100270000D03*
X127840000Y-100770000D03*
X127840000Y-101270000D03*
X127840000Y-101770000D03*
X127840000Y-102270000D03*
X127840000Y-102770000D03*
X127840000Y-103270000D03*
X127840000Y-103770000D03*
X127840000Y-104270000D03*
X127840000Y-104770000D03*
X127840000Y-105270000D03*
X127840000Y-105770000D03*
X127340000Y-99270000D03*
X127340000Y-99770000D03*
X127340000Y-100270000D03*
X127340000Y-100770000D03*
X127340000Y-101270000D03*
X127340000Y-101770000D03*
X127340000Y-102270000D03*
X127340000Y-102770000D03*
X127340000Y-103270000D03*
X127340000Y-103770000D03*
X127340000Y-104270000D03*
X127340000Y-104770000D03*
X127340000Y-105270000D03*
X127340000Y-105770000D03*
X126840000Y-99270000D03*
X126840000Y-99770000D03*
X126840000Y-100270000D03*
X126840000Y-100770000D03*
X126840000Y-101270000D03*
X126840000Y-101770000D03*
X126840000Y-102270000D03*
X126840000Y-102770000D03*
X126840000Y-103270000D03*
X126840000Y-103770000D03*
X126840000Y-104270000D03*
X126840000Y-104770000D03*
X126840000Y-105270000D03*
X126840000Y-105770000D03*
%TD*%
%TO.C,R46*%
G36*
G01*
X136655000Y-81540000D02*
X137025000Y-81540000D01*
G75*
G02*
X137160000Y-81675000I0J-135000D01*
G01*
X137160000Y-81945000D01*
G75*
G02*
X137025000Y-82080000I-135000J0D01*
G01*
X136655000Y-82080000D01*
G75*
G02*
X136520000Y-81945000I0J135000D01*
G01*
X136520000Y-81675000D01*
G75*
G02*
X136655000Y-81540000I135000J0D01*
G01*
G37*
G36*
G01*
X136655000Y-80520000D02*
X137025000Y-80520000D01*
G75*
G02*
X137160000Y-80655000I0J-135000D01*
G01*
X137160000Y-80925000D01*
G75*
G02*
X137025000Y-81060000I-135000J0D01*
G01*
X136655000Y-81060000D01*
G75*
G02*
X136520000Y-80925000I0J135000D01*
G01*
X136520000Y-80655000D01*
G75*
G02*
X136655000Y-80520000I135000J0D01*
G01*
G37*
%TD*%
%TO.C,R43*%
G36*
G01*
X135760000Y-103375000D02*
X135760000Y-103745000D01*
G75*
G02*
X135625000Y-103880000I-135000J0D01*
G01*
X135355000Y-103880000D01*
G75*
G02*
X135220000Y-103745000I0J135000D01*
G01*
X135220000Y-103375000D01*
G75*
G02*
X135355000Y-103240000I135000J0D01*
G01*
X135625000Y-103240000D01*
G75*
G02*
X135760000Y-103375000I0J-135000D01*
G01*
G37*
G36*
G01*
X136780000Y-103375000D02*
X136780000Y-103745000D01*
G75*
G02*
X136645000Y-103880000I-135000J0D01*
G01*
X136375000Y-103880000D01*
G75*
G02*
X136240000Y-103745000I0J135000D01*
G01*
X136240000Y-103375000D01*
G75*
G02*
X136375000Y-103240000I135000J0D01*
G01*
X136645000Y-103240000D01*
G75*
G02*
X136780000Y-103375000I0J-135000D01*
G01*
G37*
%TD*%
%TO.C,R40*%
G36*
G01*
X135780000Y-99055000D02*
X135780000Y-99425000D01*
G75*
G02*
X135645000Y-99560000I-135000J0D01*
G01*
X135375000Y-99560000D01*
G75*
G02*
X135240000Y-99425000I0J135000D01*
G01*
X135240000Y-99055000D01*
G75*
G02*
X135375000Y-98920000I135000J0D01*
G01*
X135645000Y-98920000D01*
G75*
G02*
X135780000Y-99055000I0J-135000D01*
G01*
G37*
G36*
G01*
X136800000Y-99055000D02*
X136800000Y-99425000D01*
G75*
G02*
X136665000Y-99560000I-135000J0D01*
G01*
X136395000Y-99560000D01*
G75*
G02*
X136260000Y-99425000I0J135000D01*
G01*
X136260000Y-99055000D01*
G75*
G02*
X136395000Y-98920000I135000J0D01*
G01*
X136665000Y-98920000D01*
G75*
G02*
X136800000Y-99055000I0J-135000D01*
G01*
G37*
%TD*%
%TO.C,R39*%
G36*
G01*
X135780000Y-97965000D02*
X135780000Y-98335000D01*
G75*
G02*
X135645000Y-98470000I-135000J0D01*
G01*
X135375000Y-98470000D01*
G75*
G02*
X135240000Y-98335000I0J135000D01*
G01*
X135240000Y-97965000D01*
G75*
G02*
X135375000Y-97830000I135000J0D01*
G01*
X135645000Y-97830000D01*
G75*
G02*
X135780000Y-97965000I0J-135000D01*
G01*
G37*
G36*
G01*
X136800000Y-97965000D02*
X136800000Y-98335000D01*
G75*
G02*
X136665000Y-98470000I-135000J0D01*
G01*
X136395000Y-98470000D01*
G75*
G02*
X136260000Y-98335000I0J135000D01*
G01*
X136260000Y-97965000D01*
G75*
G02*
X136395000Y-97830000I135000J0D01*
G01*
X136665000Y-97830000D01*
G75*
G02*
X136800000Y-97965000I0J-135000D01*
G01*
G37*
%TD*%
%TO.C,R38*%
G36*
G01*
X135770000Y-102305000D02*
X135770000Y-102675000D01*
G75*
G02*
X135635000Y-102810000I-135000J0D01*
G01*
X135365000Y-102810000D01*
G75*
G02*
X135230000Y-102675000I0J135000D01*
G01*
X135230000Y-102305000D01*
G75*
G02*
X135365000Y-102170000I135000J0D01*
G01*
X135635000Y-102170000D01*
G75*
G02*
X135770000Y-102305000I0J-135000D01*
G01*
G37*
G36*
G01*
X136790000Y-102305000D02*
X136790000Y-102675000D01*
G75*
G02*
X136655000Y-102810000I-135000J0D01*
G01*
X136385000Y-102810000D01*
G75*
G02*
X136250000Y-102675000I0J135000D01*
G01*
X136250000Y-102305000D01*
G75*
G02*
X136385000Y-102170000I135000J0D01*
G01*
X136655000Y-102170000D01*
G75*
G02*
X136790000Y-102305000I0J-135000D01*
G01*
G37*
%TD*%
%TO.C,R37*%
G36*
G01*
X135770000Y-101215000D02*
X135770000Y-101585000D01*
G75*
G02*
X135635000Y-101720000I-135000J0D01*
G01*
X135365000Y-101720000D01*
G75*
G02*
X135230000Y-101585000I0J135000D01*
G01*
X135230000Y-101215000D01*
G75*
G02*
X135365000Y-101080000I135000J0D01*
G01*
X135635000Y-101080000D01*
G75*
G02*
X135770000Y-101215000I0J-135000D01*
G01*
G37*
G36*
G01*
X136790000Y-101215000D02*
X136790000Y-101585000D01*
G75*
G02*
X136655000Y-101720000I-135000J0D01*
G01*
X136385000Y-101720000D01*
G75*
G02*
X136250000Y-101585000I0J135000D01*
G01*
X136250000Y-101215000D01*
G75*
G02*
X136385000Y-101080000I135000J0D01*
G01*
X136655000Y-101080000D01*
G75*
G02*
X136790000Y-101215000I0J-135000D01*
G01*
G37*
%TD*%
%TO.C,R36*%
G36*
G01*
X135780000Y-100135000D02*
X135780000Y-100505000D01*
G75*
G02*
X135645000Y-100640000I-135000J0D01*
G01*
X135375000Y-100640000D01*
G75*
G02*
X135240000Y-100505000I0J135000D01*
G01*
X135240000Y-100135000D01*
G75*
G02*
X135375000Y-100000000I135000J0D01*
G01*
X135645000Y-100000000D01*
G75*
G02*
X135780000Y-100135000I0J-135000D01*
G01*
G37*
G36*
G01*
X136800000Y-100135000D02*
X136800000Y-100505000D01*
G75*
G02*
X136665000Y-100640000I-135000J0D01*
G01*
X136395000Y-100640000D01*
G75*
G02*
X136260000Y-100505000I0J135000D01*
G01*
X136260000Y-100135000D01*
G75*
G02*
X136395000Y-100000000I135000J0D01*
G01*
X136665000Y-100000000D01*
G75*
G02*
X136800000Y-100135000I0J-135000D01*
G01*
G37*
%TD*%
%TO.C,R34*%
G36*
G01*
X154035000Y-82430000D02*
X153665000Y-82430000D01*
G75*
G02*
X153530000Y-82295000I0J135000D01*
G01*
X153530000Y-82025000D01*
G75*
G02*
X153665000Y-81890000I135000J0D01*
G01*
X154035000Y-81890000D01*
G75*
G02*
X154170000Y-82025000I0J-135000D01*
G01*
X154170000Y-82295000D01*
G75*
G02*
X154035000Y-82430000I-135000J0D01*
G01*
G37*
G36*
G01*
X154035000Y-83450000D02*
X153665000Y-83450000D01*
G75*
G02*
X153530000Y-83315000I0J135000D01*
G01*
X153530000Y-83045000D01*
G75*
G02*
X153665000Y-82910000I135000J0D01*
G01*
X154035000Y-82910000D01*
G75*
G02*
X154170000Y-83045000I0J-135000D01*
G01*
X154170000Y-83315000D01*
G75*
G02*
X154035000Y-83450000I-135000J0D01*
G01*
G37*
%TD*%
%TO.C,R27*%
G36*
G01*
X141780000Y-92425000D02*
X141780000Y-92795000D01*
G75*
G02*
X141645000Y-92930000I-135000J0D01*
G01*
X141375000Y-92930000D01*
G75*
G02*
X141240000Y-92795000I0J135000D01*
G01*
X141240000Y-92425000D01*
G75*
G02*
X141375000Y-92290000I135000J0D01*
G01*
X141645000Y-92290000D01*
G75*
G02*
X141780000Y-92425000I0J-135000D01*
G01*
G37*
G36*
G01*
X142800000Y-92425000D02*
X142800000Y-92795000D01*
G75*
G02*
X142665000Y-92930000I-135000J0D01*
G01*
X142395000Y-92930000D01*
G75*
G02*
X142260000Y-92795000I0J135000D01*
G01*
X142260000Y-92425000D01*
G75*
G02*
X142395000Y-92290000I135000J0D01*
G01*
X142665000Y-92290000D01*
G75*
G02*
X142800000Y-92425000I0J-135000D01*
G01*
G37*
%TD*%
%TO.C,R5*%
G36*
G01*
X136670000Y-79555000D02*
X137040000Y-79555000D01*
G75*
G02*
X137175000Y-79690000I0J-135000D01*
G01*
X137175000Y-79960000D01*
G75*
G02*
X137040000Y-80095000I-135000J0D01*
G01*
X136670000Y-80095000D01*
G75*
G02*
X136535000Y-79960000I0J135000D01*
G01*
X136535000Y-79690000D01*
G75*
G02*
X136670000Y-79555000I135000J0D01*
G01*
G37*
G36*
G01*
X136670000Y-78535000D02*
X137040000Y-78535000D01*
G75*
G02*
X137175000Y-78670000I0J-135000D01*
G01*
X137175000Y-78940000D01*
G75*
G02*
X137040000Y-79075000I-135000J0D01*
G01*
X136670000Y-79075000D01*
G75*
G02*
X136535000Y-78940000I0J135000D01*
G01*
X136535000Y-78670000D01*
G75*
G02*
X136670000Y-78535000I135000J0D01*
G01*
G37*
%TD*%
%TO.C,R4*%
G36*
G01*
X135595000Y-79555000D02*
X135965000Y-79555000D01*
G75*
G02*
X136100000Y-79690000I0J-135000D01*
G01*
X136100000Y-79960000D01*
G75*
G02*
X135965000Y-80095000I-135000J0D01*
G01*
X135595000Y-80095000D01*
G75*
G02*
X135460000Y-79960000I0J135000D01*
G01*
X135460000Y-79690000D01*
G75*
G02*
X135595000Y-79555000I135000J0D01*
G01*
G37*
G36*
G01*
X135595000Y-78535000D02*
X135965000Y-78535000D01*
G75*
G02*
X136100000Y-78670000I0J-135000D01*
G01*
X136100000Y-78940000D01*
G75*
G02*
X135965000Y-79075000I-135000J0D01*
G01*
X135595000Y-79075000D01*
G75*
G02*
X135460000Y-78940000I0J135000D01*
G01*
X135460000Y-78670000D01*
G75*
G02*
X135595000Y-78535000I135000J0D01*
G01*
G37*
%TD*%
%TO.C,R3*%
G36*
G01*
X156550000Y-108225000D02*
X156550000Y-107855000D01*
G75*
G02*
X156685000Y-107720000I135000J0D01*
G01*
X156955000Y-107720000D01*
G75*
G02*
X157090000Y-107855000I0J-135000D01*
G01*
X157090000Y-108225000D01*
G75*
G02*
X156955000Y-108360000I-135000J0D01*
G01*
X156685000Y-108360000D01*
G75*
G02*
X156550000Y-108225000I0J135000D01*
G01*
G37*
G36*
G01*
X155530000Y-108225000D02*
X155530000Y-107855000D01*
G75*
G02*
X155665000Y-107720000I135000J0D01*
G01*
X155935000Y-107720000D01*
G75*
G02*
X156070000Y-107855000I0J-135000D01*
G01*
X156070000Y-108225000D01*
G75*
G02*
X155935000Y-108360000I-135000J0D01*
G01*
X155665000Y-108360000D01*
G75*
G02*
X155530000Y-108225000I0J135000D01*
G01*
G37*
%TD*%
%TO.C,R1*%
G36*
G01*
X144530000Y-93025000D02*
X144530000Y-93395000D01*
G75*
G02*
X144395000Y-93530000I-135000J0D01*
G01*
X144125000Y-93530000D01*
G75*
G02*
X143990000Y-93395000I0J135000D01*
G01*
X143990000Y-93025000D01*
G75*
G02*
X144125000Y-92890000I135000J0D01*
G01*
X144395000Y-92890000D01*
G75*
G02*
X144530000Y-93025000I0J-135000D01*
G01*
G37*
G36*
G01*
X145550000Y-93025000D02*
X145550000Y-93395000D01*
G75*
G02*
X145415000Y-93530000I-135000J0D01*
G01*
X145145000Y-93530000D01*
G75*
G02*
X145010000Y-93395000I0J135000D01*
G01*
X145010000Y-93025000D01*
G75*
G02*
X145145000Y-92890000I135000J0D01*
G01*
X145415000Y-92890000D01*
G75*
G02*
X145550000Y-93025000I0J-135000D01*
G01*
G37*
%TD*%
D18*
%TO.C,L4*%
X131105000Y-89130000D03*
X131105000Y-91130000D03*
%TD*%
%TO.C,L3*%
X134830000Y-89130000D03*
X134830000Y-91130000D03*
%TD*%
%TO.C,L2*%
X128380000Y-79455000D03*
X128380000Y-77455000D03*
%TD*%
D19*
%TO.C,L1*%
X132030000Y-79055000D03*
X134030000Y-79055000D03*
%TD*%
%TO.C,C62*%
G36*
G01*
X136610000Y-83575000D02*
X136610000Y-83235000D01*
G75*
G02*
X136750000Y-83095000I140000J0D01*
G01*
X137030000Y-83095000D01*
G75*
G02*
X137170000Y-83235000I0J-140000D01*
G01*
X137170000Y-83575000D01*
G75*
G02*
X137030000Y-83715000I-140000J0D01*
G01*
X136750000Y-83715000D01*
G75*
G02*
X136610000Y-83575000I0J140000D01*
G01*
G37*
G36*
G01*
X135650000Y-83575000D02*
X135650000Y-83235000D01*
G75*
G02*
X135790000Y-83095000I140000J0D01*
G01*
X136070000Y-83095000D01*
G75*
G02*
X136210000Y-83235000I0J-140000D01*
G01*
X136210000Y-83575000D01*
G75*
G02*
X136070000Y-83715000I-140000J0D01*
G01*
X135790000Y-83715000D01*
G75*
G02*
X135650000Y-83575000I0J140000D01*
G01*
G37*
%TD*%
%TO.C,C61*%
G36*
G01*
X125225000Y-88660000D02*
X125225000Y-89000000D01*
G75*
G02*
X125085000Y-89140000I-140000J0D01*
G01*
X124805000Y-89140000D01*
G75*
G02*
X124665000Y-89000000I0J140000D01*
G01*
X124665000Y-88660000D01*
G75*
G02*
X124805000Y-88520000I140000J0D01*
G01*
X125085000Y-88520000D01*
G75*
G02*
X125225000Y-88660000I0J-140000D01*
G01*
G37*
G36*
G01*
X126185000Y-88660000D02*
X126185000Y-89000000D01*
G75*
G02*
X126045000Y-89140000I-140000J0D01*
G01*
X125765000Y-89140000D01*
G75*
G02*
X125625000Y-89000000I0J140000D01*
G01*
X125625000Y-88660000D01*
G75*
G02*
X125765000Y-88520000I140000J0D01*
G01*
X126045000Y-88520000D01*
G75*
G02*
X126185000Y-88660000I0J-140000D01*
G01*
G37*
%TD*%
%TO.C,C60*%
G36*
G01*
X125225000Y-87610000D02*
X125225000Y-87950000D01*
G75*
G02*
X125085000Y-88090000I-140000J0D01*
G01*
X124805000Y-88090000D01*
G75*
G02*
X124665000Y-87950000I0J140000D01*
G01*
X124665000Y-87610000D01*
G75*
G02*
X124805000Y-87470000I140000J0D01*
G01*
X125085000Y-87470000D01*
G75*
G02*
X125225000Y-87610000I0J-140000D01*
G01*
G37*
G36*
G01*
X126185000Y-87610000D02*
X126185000Y-87950000D01*
G75*
G02*
X126045000Y-88090000I-140000J0D01*
G01*
X125765000Y-88090000D01*
G75*
G02*
X125625000Y-87950000I0J140000D01*
G01*
X125625000Y-87610000D01*
G75*
G02*
X125765000Y-87470000I140000J0D01*
G01*
X126045000Y-87470000D01*
G75*
G02*
X126185000Y-87610000I0J-140000D01*
G01*
G37*
%TD*%
%TO.C,C59*%
G36*
G01*
X136610000Y-84750000D02*
X136610000Y-84410000D01*
G75*
G02*
X136750000Y-84270000I140000J0D01*
G01*
X137030000Y-84270000D01*
G75*
G02*
X137170000Y-84410000I0J-140000D01*
G01*
X137170000Y-84750000D01*
G75*
G02*
X137030000Y-84890000I-140000J0D01*
G01*
X136750000Y-84890000D01*
G75*
G02*
X136610000Y-84750000I0J140000D01*
G01*
G37*
G36*
G01*
X135650000Y-84750000D02*
X135650000Y-84410000D01*
G75*
G02*
X135790000Y-84270000I140000J0D01*
G01*
X136070000Y-84270000D01*
G75*
G02*
X136210000Y-84410000I0J-140000D01*
G01*
X136210000Y-84750000D01*
G75*
G02*
X136070000Y-84890000I-140000J0D01*
G01*
X135790000Y-84890000D01*
G75*
G02*
X135650000Y-84750000I0J140000D01*
G01*
G37*
%TD*%
%TO.C,C58*%
G36*
G01*
X125235000Y-82935000D02*
X125235000Y-83275000D01*
G75*
G02*
X125095000Y-83415000I-140000J0D01*
G01*
X124815000Y-83415000D01*
G75*
G02*
X124675000Y-83275000I0J140000D01*
G01*
X124675000Y-82935000D01*
G75*
G02*
X124815000Y-82795000I140000J0D01*
G01*
X125095000Y-82795000D01*
G75*
G02*
X125235000Y-82935000I0J-140000D01*
G01*
G37*
G36*
G01*
X126195000Y-82935000D02*
X126195000Y-83275000D01*
G75*
G02*
X126055000Y-83415000I-140000J0D01*
G01*
X125775000Y-83415000D01*
G75*
G02*
X125635000Y-83275000I0J140000D01*
G01*
X125635000Y-82935000D01*
G75*
G02*
X125775000Y-82795000I140000J0D01*
G01*
X126055000Y-82795000D01*
G75*
G02*
X126195000Y-82935000I0J-140000D01*
G01*
G37*
%TD*%
%TO.C,C57*%
G36*
G01*
X125225000Y-85360000D02*
X125225000Y-85700000D01*
G75*
G02*
X125085000Y-85840000I-140000J0D01*
G01*
X124805000Y-85840000D01*
G75*
G02*
X124665000Y-85700000I0J140000D01*
G01*
X124665000Y-85360000D01*
G75*
G02*
X124805000Y-85220000I140000J0D01*
G01*
X125085000Y-85220000D01*
G75*
G02*
X125225000Y-85360000I0J-140000D01*
G01*
G37*
G36*
G01*
X126185000Y-85360000D02*
X126185000Y-85700000D01*
G75*
G02*
X126045000Y-85840000I-140000J0D01*
G01*
X125765000Y-85840000D01*
G75*
G02*
X125625000Y-85700000I0J140000D01*
G01*
X125625000Y-85360000D01*
G75*
G02*
X125765000Y-85220000I140000J0D01*
G01*
X126045000Y-85220000D01*
G75*
G02*
X126185000Y-85360000I0J-140000D01*
G01*
G37*
%TD*%
%TO.C,C56*%
G36*
G01*
X128035000Y-89610000D02*
X128375000Y-89610000D01*
G75*
G02*
X128515000Y-89750000I0J-140000D01*
G01*
X128515000Y-90030000D01*
G75*
G02*
X128375000Y-90170000I-140000J0D01*
G01*
X128035000Y-90170000D01*
G75*
G02*
X127895000Y-90030000I0J140000D01*
G01*
X127895000Y-89750000D01*
G75*
G02*
X128035000Y-89610000I140000J0D01*
G01*
G37*
G36*
G01*
X128035000Y-88650000D02*
X128375000Y-88650000D01*
G75*
G02*
X128515000Y-88790000I0J-140000D01*
G01*
X128515000Y-89070000D01*
G75*
G02*
X128375000Y-89210000I-140000J0D01*
G01*
X128035000Y-89210000D01*
G75*
G02*
X127895000Y-89070000I0J140000D01*
G01*
X127895000Y-88790000D01*
G75*
G02*
X128035000Y-88650000I140000J0D01*
G01*
G37*
%TD*%
%TO.C,C55*%
G36*
G01*
X125235000Y-83960000D02*
X125235000Y-84300000D01*
G75*
G02*
X125095000Y-84440000I-140000J0D01*
G01*
X124815000Y-84440000D01*
G75*
G02*
X124675000Y-84300000I0J140000D01*
G01*
X124675000Y-83960000D01*
G75*
G02*
X124815000Y-83820000I140000J0D01*
G01*
X125095000Y-83820000D01*
G75*
G02*
X125235000Y-83960000I0J-140000D01*
G01*
G37*
G36*
G01*
X126195000Y-83960000D02*
X126195000Y-84300000D01*
G75*
G02*
X126055000Y-84440000I-140000J0D01*
G01*
X125775000Y-84440000D01*
G75*
G02*
X125635000Y-84300000I0J140000D01*
G01*
X125635000Y-83960000D01*
G75*
G02*
X125775000Y-83820000I140000J0D01*
G01*
X126055000Y-83820000D01*
G75*
G02*
X126195000Y-83960000I0J-140000D01*
G01*
G37*
%TD*%
%TO.C,C54*%
G36*
G01*
X125235000Y-81860000D02*
X125235000Y-82200000D01*
G75*
G02*
X125095000Y-82340000I-140000J0D01*
G01*
X124815000Y-82340000D01*
G75*
G02*
X124675000Y-82200000I0J140000D01*
G01*
X124675000Y-81860000D01*
G75*
G02*
X124815000Y-81720000I140000J0D01*
G01*
X125095000Y-81720000D01*
G75*
G02*
X125235000Y-81860000I0J-140000D01*
G01*
G37*
G36*
G01*
X126195000Y-81860000D02*
X126195000Y-82200000D01*
G75*
G02*
X126055000Y-82340000I-140000J0D01*
G01*
X125775000Y-82340000D01*
G75*
G02*
X125635000Y-82200000I0J140000D01*
G01*
X125635000Y-81860000D01*
G75*
G02*
X125775000Y-81720000I140000J0D01*
G01*
X126055000Y-81720000D01*
G75*
G02*
X126195000Y-81860000I0J-140000D01*
G01*
G37*
%TD*%
%TO.C,C53*%
G36*
G01*
X132810000Y-89610000D02*
X133150000Y-89610000D01*
G75*
G02*
X133290000Y-89750000I0J-140000D01*
G01*
X133290000Y-90030000D01*
G75*
G02*
X133150000Y-90170000I-140000J0D01*
G01*
X132810000Y-90170000D01*
G75*
G02*
X132670000Y-90030000I0J140000D01*
G01*
X132670000Y-89750000D01*
G75*
G02*
X132810000Y-89610000I140000J0D01*
G01*
G37*
G36*
G01*
X132810000Y-88650000D02*
X133150000Y-88650000D01*
G75*
G02*
X133290000Y-88790000I0J-140000D01*
G01*
X133290000Y-89070000D01*
G75*
G02*
X133150000Y-89210000I-140000J0D01*
G01*
X132810000Y-89210000D01*
G75*
G02*
X132670000Y-89070000I0J140000D01*
G01*
X132670000Y-88790000D01*
G75*
G02*
X132810000Y-88650000I140000J0D01*
G01*
G37*
%TD*%
%TO.C,C52*%
G36*
G01*
X129085000Y-89610000D02*
X129425000Y-89610000D01*
G75*
G02*
X129565000Y-89750000I0J-140000D01*
G01*
X129565000Y-90030000D01*
G75*
G02*
X129425000Y-90170000I-140000J0D01*
G01*
X129085000Y-90170000D01*
G75*
G02*
X128945000Y-90030000I0J140000D01*
G01*
X128945000Y-89750000D01*
G75*
G02*
X129085000Y-89610000I140000J0D01*
G01*
G37*
G36*
G01*
X129085000Y-88650000D02*
X129425000Y-88650000D01*
G75*
G02*
X129565000Y-88790000I0J-140000D01*
G01*
X129565000Y-89070000D01*
G75*
G02*
X129425000Y-89210000I-140000J0D01*
G01*
X129085000Y-89210000D01*
G75*
G02*
X128945000Y-89070000I0J140000D01*
G01*
X128945000Y-88790000D01*
G75*
G02*
X129085000Y-88650000I140000J0D01*
G01*
G37*
%TD*%
%TO.C,C51*%
G36*
G01*
X136610000Y-85950000D02*
X136610000Y-85610000D01*
G75*
G02*
X136750000Y-85470000I140000J0D01*
G01*
X137030000Y-85470000D01*
G75*
G02*
X137170000Y-85610000I0J-140000D01*
G01*
X137170000Y-85950000D01*
G75*
G02*
X137030000Y-86090000I-140000J0D01*
G01*
X136750000Y-86090000D01*
G75*
G02*
X136610000Y-85950000I0J140000D01*
G01*
G37*
G36*
G01*
X135650000Y-85950000D02*
X135650000Y-85610000D01*
G75*
G02*
X135790000Y-85470000I140000J0D01*
G01*
X136070000Y-85470000D01*
G75*
G02*
X136210000Y-85610000I0J-140000D01*
G01*
X136210000Y-85950000D01*
G75*
G02*
X136070000Y-86090000I-140000J0D01*
G01*
X135790000Y-86090000D01*
G75*
G02*
X135650000Y-85950000I0J140000D01*
G01*
G37*
%TD*%
%TO.C,C50*%
G36*
G01*
X126505000Y-91454999D02*
X126505000Y-92755001D01*
G75*
G02*
X126255001Y-93005000I-249999J0D01*
G01*
X125604999Y-93005000D01*
G75*
G02*
X125355000Y-92755001I0J249999D01*
G01*
X125355000Y-91454999D01*
G75*
G02*
X125604999Y-91205000I249999J0D01*
G01*
X126255001Y-91205000D01*
G75*
G02*
X126505000Y-91454999I0J-249999D01*
G01*
G37*
G36*
G01*
X129455000Y-91454999D02*
X129455000Y-92755001D01*
G75*
G02*
X129205001Y-93005000I-249999J0D01*
G01*
X128554999Y-93005000D01*
G75*
G02*
X128305000Y-92755001I0J249999D01*
G01*
X128305000Y-91454999D01*
G75*
G02*
X128554999Y-91205000I249999J0D01*
G01*
X129205001Y-91205000D01*
G75*
G02*
X129455000Y-91454999I0J-249999D01*
G01*
G37*
%TD*%
%TO.C,C49*%
G36*
G01*
X138105001Y-88605000D02*
X136804999Y-88605000D01*
G75*
G02*
X136555000Y-88355001I0J249999D01*
G01*
X136555000Y-87704999D01*
G75*
G02*
X136804999Y-87455000I249999J0D01*
G01*
X138105001Y-87455000D01*
G75*
G02*
X138355000Y-87704999I0J-249999D01*
G01*
X138355000Y-88355001D01*
G75*
G02*
X138105001Y-88605000I-249999J0D01*
G01*
G37*
G36*
G01*
X138105001Y-91555000D02*
X136804999Y-91555000D01*
G75*
G02*
X136555000Y-91305001I0J249999D01*
G01*
X136555000Y-90654999D01*
G75*
G02*
X136804999Y-90405000I249999J0D01*
G01*
X138105001Y-90405000D01*
G75*
G02*
X138355000Y-90654999I0J-249999D01*
G01*
X138355000Y-91305001D01*
G75*
G02*
X138105001Y-91555000I-249999J0D01*
G01*
G37*
%TD*%
%TO.C,C48*%
G36*
G01*
X123755000Y-76879999D02*
X123755000Y-78180001D01*
G75*
G02*
X123505001Y-78430000I-249999J0D01*
G01*
X122854999Y-78430000D01*
G75*
G02*
X122605000Y-78180001I0J249999D01*
G01*
X122605000Y-76879999D01*
G75*
G02*
X122854999Y-76630000I249999J0D01*
G01*
X123505001Y-76630000D01*
G75*
G02*
X123755000Y-76879999I0J-249999D01*
G01*
G37*
G36*
G01*
X126705000Y-76879999D02*
X126705000Y-78180001D01*
G75*
G02*
X126455001Y-78430000I-249999J0D01*
G01*
X125804999Y-78430000D01*
G75*
G02*
X125555000Y-78180001I0J249999D01*
G01*
X125555000Y-76879999D01*
G75*
G02*
X125804999Y-76630000I249999J0D01*
G01*
X126455001Y-76630000D01*
G75*
G02*
X126705000Y-76879999I0J-249999D01*
G01*
G37*
%TD*%
%TO.C,C47*%
G36*
G01*
X132505000Y-75729999D02*
X132505000Y-77030001D01*
G75*
G02*
X132255001Y-77280000I-249999J0D01*
G01*
X131604999Y-77280000D01*
G75*
G02*
X131355000Y-77030001I0J249999D01*
G01*
X131355000Y-75729999D01*
G75*
G02*
X131604999Y-75480000I249999J0D01*
G01*
X132255001Y-75480000D01*
G75*
G02*
X132505000Y-75729999I0J-249999D01*
G01*
G37*
G36*
G01*
X135455000Y-75729999D02*
X135455000Y-77030001D01*
G75*
G02*
X135205001Y-77280000I-249999J0D01*
G01*
X134554999Y-77280000D01*
G75*
G02*
X134305000Y-77030001I0J249999D01*
G01*
X134305000Y-75729999D01*
G75*
G02*
X134554999Y-75480000I249999J0D01*
G01*
X135205001Y-75480000D01*
G75*
G02*
X135455000Y-75729999I0J-249999D01*
G01*
G37*
%TD*%
%TO.C,C46*%
G36*
G01*
X125225000Y-89710000D02*
X125225000Y-90050000D01*
G75*
G02*
X125085000Y-90190000I-140000J0D01*
G01*
X124805000Y-90190000D01*
G75*
G02*
X124665000Y-90050000I0J140000D01*
G01*
X124665000Y-89710000D01*
G75*
G02*
X124805000Y-89570000I140000J0D01*
G01*
X125085000Y-89570000D01*
G75*
G02*
X125225000Y-89710000I0J-140000D01*
G01*
G37*
G36*
G01*
X126185000Y-89710000D02*
X126185000Y-90050000D01*
G75*
G02*
X126045000Y-90190000I-140000J0D01*
G01*
X125765000Y-90190000D01*
G75*
G02*
X125625000Y-90050000I0J140000D01*
G01*
X125625000Y-89710000D01*
G75*
G02*
X125765000Y-89570000I140000J0D01*
G01*
X126045000Y-89570000D01*
G75*
G02*
X126185000Y-89710000I0J-140000D01*
G01*
G37*
%TD*%
%TO.C,C45*%
G36*
G01*
X125225000Y-86560000D02*
X125225000Y-86900000D01*
G75*
G02*
X125085000Y-87040000I-140000J0D01*
G01*
X124805000Y-87040000D01*
G75*
G02*
X124665000Y-86900000I0J140000D01*
G01*
X124665000Y-86560000D01*
G75*
G02*
X124805000Y-86420000I140000J0D01*
G01*
X125085000Y-86420000D01*
G75*
G02*
X125225000Y-86560000I0J-140000D01*
G01*
G37*
G36*
G01*
X126185000Y-86560000D02*
X126185000Y-86900000D01*
G75*
G02*
X126045000Y-87040000I-140000J0D01*
G01*
X125765000Y-87040000D01*
G75*
G02*
X125625000Y-86900000I0J140000D01*
G01*
X125625000Y-86560000D01*
G75*
G02*
X125765000Y-86420000I140000J0D01*
G01*
X126045000Y-86420000D01*
G75*
G02*
X126185000Y-86560000I0J-140000D01*
G01*
G37*
%TD*%
%TO.C,C44*%
G36*
G01*
X125235000Y-80660000D02*
X125235000Y-81000000D01*
G75*
G02*
X125095000Y-81140000I-140000J0D01*
G01*
X124815000Y-81140000D01*
G75*
G02*
X124675000Y-81000000I0J140000D01*
G01*
X124675000Y-80660000D01*
G75*
G02*
X124815000Y-80520000I140000J0D01*
G01*
X125095000Y-80520000D01*
G75*
G02*
X125235000Y-80660000I0J-140000D01*
G01*
G37*
G36*
G01*
X126195000Y-80660000D02*
X126195000Y-81000000D01*
G75*
G02*
X126055000Y-81140000I-140000J0D01*
G01*
X125775000Y-81140000D01*
G75*
G02*
X125635000Y-81000000I0J140000D01*
G01*
X125635000Y-80660000D01*
G75*
G02*
X125775000Y-80520000I140000J0D01*
G01*
X126055000Y-80520000D01*
G75*
G02*
X126195000Y-80660000I0J-140000D01*
G01*
G37*
%TD*%
%TO.C,C43*%
G36*
G01*
X130700000Y-78105000D02*
X130360000Y-78105000D01*
G75*
G02*
X130220000Y-77965000I0J140000D01*
G01*
X130220000Y-77685000D01*
G75*
G02*
X130360000Y-77545000I140000J0D01*
G01*
X130700000Y-77545000D01*
G75*
G02*
X130840000Y-77685000I0J-140000D01*
G01*
X130840000Y-77965000D01*
G75*
G02*
X130700000Y-78105000I-140000J0D01*
G01*
G37*
G36*
G01*
X130700000Y-79065000D02*
X130360000Y-79065000D01*
G75*
G02*
X130220000Y-78925000I0J140000D01*
G01*
X130220000Y-78645000D01*
G75*
G02*
X130360000Y-78505000I140000J0D01*
G01*
X130700000Y-78505000D01*
G75*
G02*
X130840000Y-78645000I0J-140000D01*
G01*
X130840000Y-78925000D01*
G75*
G02*
X130700000Y-79065000I-140000J0D01*
G01*
G37*
%TD*%
%TO.C,C41*%
G36*
G01*
X124390000Y-100910000D02*
X124730000Y-100910000D01*
G75*
G02*
X124870000Y-101050000I0J-140000D01*
G01*
X124870000Y-101330000D01*
G75*
G02*
X124730000Y-101470000I-140000J0D01*
G01*
X124390000Y-101470000D01*
G75*
G02*
X124250000Y-101330000I0J140000D01*
G01*
X124250000Y-101050000D01*
G75*
G02*
X124390000Y-100910000I140000J0D01*
G01*
G37*
G36*
G01*
X124390000Y-99950000D02*
X124730000Y-99950000D01*
G75*
G02*
X124870000Y-100090000I0J-140000D01*
G01*
X124870000Y-100370000D01*
G75*
G02*
X124730000Y-100510000I-140000J0D01*
G01*
X124390000Y-100510000D01*
G75*
G02*
X124250000Y-100370000I0J140000D01*
G01*
X124250000Y-100090000D01*
G75*
G02*
X124390000Y-99950000I140000J0D01*
G01*
G37*
%TD*%
%TO.C,C40*%
G36*
G01*
X135790000Y-104450000D02*
X135790000Y-104790000D01*
G75*
G02*
X135650000Y-104930000I-140000J0D01*
G01*
X135370000Y-104930000D01*
G75*
G02*
X135230000Y-104790000I0J140000D01*
G01*
X135230000Y-104450000D01*
G75*
G02*
X135370000Y-104310000I140000J0D01*
G01*
X135650000Y-104310000D01*
G75*
G02*
X135790000Y-104450000I0J-140000D01*
G01*
G37*
G36*
G01*
X136750000Y-104450000D02*
X136750000Y-104790000D01*
G75*
G02*
X136610000Y-104930000I-140000J0D01*
G01*
X136330000Y-104930000D01*
G75*
G02*
X136190000Y-104790000I0J140000D01*
G01*
X136190000Y-104450000D01*
G75*
G02*
X136330000Y-104310000I140000J0D01*
G01*
X136610000Y-104310000D01*
G75*
G02*
X136750000Y-104450000I0J-140000D01*
G01*
G37*
%TD*%
%TO.C,C39*%
G36*
G01*
X135820000Y-96910000D02*
X135820000Y-97250000D01*
G75*
G02*
X135680000Y-97390000I-140000J0D01*
G01*
X135400000Y-97390000D01*
G75*
G02*
X135260000Y-97250000I0J140000D01*
G01*
X135260000Y-96910000D01*
G75*
G02*
X135400000Y-96770000I140000J0D01*
G01*
X135680000Y-96770000D01*
G75*
G02*
X135820000Y-96910000I0J-140000D01*
G01*
G37*
G36*
G01*
X136780000Y-96910000D02*
X136780000Y-97250000D01*
G75*
G02*
X136640000Y-97390000I-140000J0D01*
G01*
X136360000Y-97390000D01*
G75*
G02*
X136220000Y-97250000I0J140000D01*
G01*
X136220000Y-96910000D01*
G75*
G02*
X136360000Y-96770000I140000J0D01*
G01*
X136640000Y-96770000D01*
G75*
G02*
X136780000Y-96910000I0J-140000D01*
G01*
G37*
%TD*%
%TO.C,C37*%
G36*
G01*
X142960000Y-81700000D02*
X142620000Y-81700000D01*
G75*
G02*
X142480000Y-81560000I0J140000D01*
G01*
X142480000Y-81280000D01*
G75*
G02*
X142620000Y-81140000I140000J0D01*
G01*
X142960000Y-81140000D01*
G75*
G02*
X143100000Y-81280000I0J-140000D01*
G01*
X143100000Y-81560000D01*
G75*
G02*
X142960000Y-81700000I-140000J0D01*
G01*
G37*
G36*
G01*
X142960000Y-82660000D02*
X142620000Y-82660000D01*
G75*
G02*
X142480000Y-82520000I0J140000D01*
G01*
X142480000Y-82240000D01*
G75*
G02*
X142620000Y-82100000I140000J0D01*
G01*
X142960000Y-82100000D01*
G75*
G02*
X143100000Y-82240000I0J-140000D01*
G01*
X143100000Y-82520000D01*
G75*
G02*
X142960000Y-82660000I-140000J0D01*
G01*
G37*
%TD*%
%TO.C,C36*%
G36*
G01*
X154030000Y-84500000D02*
X153690000Y-84500000D01*
G75*
G02*
X153550000Y-84360000I0J140000D01*
G01*
X153550000Y-84080000D01*
G75*
G02*
X153690000Y-83940000I140000J0D01*
G01*
X154030000Y-83940000D01*
G75*
G02*
X154170000Y-84080000I0J-140000D01*
G01*
X154170000Y-84360000D01*
G75*
G02*
X154030000Y-84500000I-140000J0D01*
G01*
G37*
G36*
G01*
X154030000Y-85460000D02*
X153690000Y-85460000D01*
G75*
G02*
X153550000Y-85320000I0J140000D01*
G01*
X153550000Y-85040000D01*
G75*
G02*
X153690000Y-84900000I140000J0D01*
G01*
X154030000Y-84900000D01*
G75*
G02*
X154170000Y-85040000I0J-140000D01*
G01*
X154170000Y-85320000D01*
G75*
G02*
X154030000Y-85460000I-140000J0D01*
G01*
G37*
%TD*%
%TO.C,C35*%
G36*
G01*
X142580000Y-76930000D02*
X142920000Y-76930000D01*
G75*
G02*
X143060000Y-77070000I0J-140000D01*
G01*
X143060000Y-77350000D01*
G75*
G02*
X142920000Y-77490000I-140000J0D01*
G01*
X142580000Y-77490000D01*
G75*
G02*
X142440000Y-77350000I0J140000D01*
G01*
X142440000Y-77070000D01*
G75*
G02*
X142580000Y-76930000I140000J0D01*
G01*
G37*
G36*
G01*
X142580000Y-75970000D02*
X142920000Y-75970000D01*
G75*
G02*
X143060000Y-76110000I0J-140000D01*
G01*
X143060000Y-76390000D01*
G75*
G02*
X142920000Y-76530000I-140000J0D01*
G01*
X142580000Y-76530000D01*
G75*
G02*
X142440000Y-76390000I0J140000D01*
G01*
X142440000Y-76110000D01*
G75*
G02*
X142580000Y-75970000I140000J0D01*
G01*
G37*
%TD*%
%TO.C,C34*%
G36*
G01*
X155170000Y-76990000D02*
X154830000Y-76990000D01*
G75*
G02*
X154690000Y-76850000I0J140000D01*
G01*
X154690000Y-76570000D01*
G75*
G02*
X154830000Y-76430000I140000J0D01*
G01*
X155170000Y-76430000D01*
G75*
G02*
X155310000Y-76570000I0J-140000D01*
G01*
X155310000Y-76850000D01*
G75*
G02*
X155170000Y-76990000I-140000J0D01*
G01*
G37*
G36*
G01*
X155170000Y-77950000D02*
X154830000Y-77950000D01*
G75*
G02*
X154690000Y-77810000I0J140000D01*
G01*
X154690000Y-77530000D01*
G75*
G02*
X154830000Y-77390000I140000J0D01*
G01*
X155170000Y-77390000D01*
G75*
G02*
X155310000Y-77530000I0J-140000D01*
G01*
X155310000Y-77810000D01*
G75*
G02*
X155170000Y-77950000I-140000J0D01*
G01*
G37*
%TD*%
%TO.C,C31*%
G36*
G01*
X159270000Y-77750000D02*
X158930000Y-77750000D01*
G75*
G02*
X158790000Y-77610000I0J140000D01*
G01*
X158790000Y-77330000D01*
G75*
G02*
X158930000Y-77190000I140000J0D01*
G01*
X159270000Y-77190000D01*
G75*
G02*
X159410000Y-77330000I0J-140000D01*
G01*
X159410000Y-77610000D01*
G75*
G02*
X159270000Y-77750000I-140000J0D01*
G01*
G37*
G36*
G01*
X159270000Y-78710000D02*
X158930000Y-78710000D01*
G75*
G02*
X158790000Y-78570000I0J140000D01*
G01*
X158790000Y-78290000D01*
G75*
G02*
X158930000Y-78150000I140000J0D01*
G01*
X159270000Y-78150000D01*
G75*
G02*
X159410000Y-78290000I0J-140000D01*
G01*
X159410000Y-78570000D01*
G75*
G02*
X159270000Y-78710000I-140000J0D01*
G01*
G37*
%TD*%
%TO.C,C30*%
G36*
G01*
X137990000Y-84660000D02*
X138330000Y-84660000D01*
G75*
G02*
X138470000Y-84800000I0J-140000D01*
G01*
X138470000Y-85080000D01*
G75*
G02*
X138330000Y-85220000I-140000J0D01*
G01*
X137990000Y-85220000D01*
G75*
G02*
X137850000Y-85080000I0J140000D01*
G01*
X137850000Y-84800000D01*
G75*
G02*
X137990000Y-84660000I140000J0D01*
G01*
G37*
G36*
G01*
X137990000Y-83700000D02*
X138330000Y-83700000D01*
G75*
G02*
X138470000Y-83840000I0J-140000D01*
G01*
X138470000Y-84120000D01*
G75*
G02*
X138330000Y-84260000I-140000J0D01*
G01*
X137990000Y-84260000D01*
G75*
G02*
X137850000Y-84120000I0J140000D01*
G01*
X137850000Y-83840000D01*
G75*
G02*
X137990000Y-83700000I140000J0D01*
G01*
G37*
%TD*%
%TO.C,C29*%
G36*
G01*
X142920000Y-86200000D02*
X142580000Y-86200000D01*
G75*
G02*
X142440000Y-86060000I0J140000D01*
G01*
X142440000Y-85780000D01*
G75*
G02*
X142580000Y-85640000I140000J0D01*
G01*
X142920000Y-85640000D01*
G75*
G02*
X143060000Y-85780000I0J-140000D01*
G01*
X143060000Y-86060000D01*
G75*
G02*
X142920000Y-86200000I-140000J0D01*
G01*
G37*
G36*
G01*
X142920000Y-87160000D02*
X142580000Y-87160000D01*
G75*
G02*
X142440000Y-87020000I0J140000D01*
G01*
X142440000Y-86740000D01*
G75*
G02*
X142580000Y-86600000I140000J0D01*
G01*
X142920000Y-86600000D01*
G75*
G02*
X143060000Y-86740000I0J-140000D01*
G01*
X143060000Y-87020000D01*
G75*
G02*
X142920000Y-87160000I-140000J0D01*
G01*
G37*
%TD*%
%TO.C,C28*%
G36*
G01*
X142580000Y-78930000D02*
X142920000Y-78930000D01*
G75*
G02*
X143060000Y-79070000I0J-140000D01*
G01*
X143060000Y-79350000D01*
G75*
G02*
X142920000Y-79490000I-140000J0D01*
G01*
X142580000Y-79490000D01*
G75*
G02*
X142440000Y-79350000I0J140000D01*
G01*
X142440000Y-79070000D01*
G75*
G02*
X142580000Y-78930000I140000J0D01*
G01*
G37*
G36*
G01*
X142580000Y-77970000D02*
X142920000Y-77970000D01*
G75*
G02*
X143060000Y-78110000I0J-140000D01*
G01*
X143060000Y-78390000D01*
G75*
G02*
X142920000Y-78530000I-140000J0D01*
G01*
X142580000Y-78530000D01*
G75*
G02*
X142440000Y-78390000I0J140000D01*
G01*
X142440000Y-78110000D01*
G75*
G02*
X142580000Y-77970000I140000J0D01*
G01*
G37*
%TD*%
%TO.C,C27*%
G36*
G01*
X141420000Y-76960000D02*
X141760000Y-76960000D01*
G75*
G02*
X141900000Y-77100000I0J-140000D01*
G01*
X141900000Y-77380000D01*
G75*
G02*
X141760000Y-77520000I-140000J0D01*
G01*
X141420000Y-77520000D01*
G75*
G02*
X141280000Y-77380000I0J140000D01*
G01*
X141280000Y-77100000D01*
G75*
G02*
X141420000Y-76960000I140000J0D01*
G01*
G37*
G36*
G01*
X141420000Y-76000000D02*
X141760000Y-76000000D01*
G75*
G02*
X141900000Y-76140000I0J-140000D01*
G01*
X141900000Y-76420000D01*
G75*
G02*
X141760000Y-76560000I-140000J0D01*
G01*
X141420000Y-76560000D01*
G75*
G02*
X141280000Y-76420000I0J140000D01*
G01*
X141280000Y-76140000D01*
G75*
G02*
X141420000Y-76000000I140000J0D01*
G01*
G37*
%TD*%
%TO.C,C26*%
G36*
G01*
X154020000Y-76990000D02*
X153680000Y-76990000D01*
G75*
G02*
X153540000Y-76850000I0J140000D01*
G01*
X153540000Y-76570000D01*
G75*
G02*
X153680000Y-76430000I140000J0D01*
G01*
X154020000Y-76430000D01*
G75*
G02*
X154160000Y-76570000I0J-140000D01*
G01*
X154160000Y-76850000D01*
G75*
G02*
X154020000Y-76990000I-140000J0D01*
G01*
G37*
G36*
G01*
X154020000Y-77950000D02*
X153680000Y-77950000D01*
G75*
G02*
X153540000Y-77810000I0J140000D01*
G01*
X153540000Y-77530000D01*
G75*
G02*
X153680000Y-77390000I140000J0D01*
G01*
X154020000Y-77390000D01*
G75*
G02*
X154160000Y-77530000I0J-140000D01*
G01*
X154160000Y-77810000D01*
G75*
G02*
X154020000Y-77950000I-140000J0D01*
G01*
G37*
%TD*%
%TO.C,C25*%
G36*
G01*
X154020000Y-80520000D02*
X153680000Y-80520000D01*
G75*
G02*
X153540000Y-80380000I0J140000D01*
G01*
X153540000Y-80100000D01*
G75*
G02*
X153680000Y-79960000I140000J0D01*
G01*
X154020000Y-79960000D01*
G75*
G02*
X154160000Y-80100000I0J-140000D01*
G01*
X154160000Y-80380000D01*
G75*
G02*
X154020000Y-80520000I-140000J0D01*
G01*
G37*
G36*
G01*
X154020000Y-81480000D02*
X153680000Y-81480000D01*
G75*
G02*
X153540000Y-81340000I0J140000D01*
G01*
X153540000Y-81060000D01*
G75*
G02*
X153680000Y-80920000I140000J0D01*
G01*
X154020000Y-80920000D01*
G75*
G02*
X154160000Y-81060000I0J-140000D01*
G01*
X154160000Y-81340000D01*
G75*
G02*
X154020000Y-81480000I-140000J0D01*
G01*
G37*
%TD*%
%TO.C,C24*%
G36*
G01*
X153700000Y-86880000D02*
X154040000Y-86880000D01*
G75*
G02*
X154180000Y-87020000I0J-140000D01*
G01*
X154180000Y-87300000D01*
G75*
G02*
X154040000Y-87440000I-140000J0D01*
G01*
X153700000Y-87440000D01*
G75*
G02*
X153560000Y-87300000I0J140000D01*
G01*
X153560000Y-87020000D01*
G75*
G02*
X153700000Y-86880000I140000J0D01*
G01*
G37*
G36*
G01*
X153700000Y-85920000D02*
X154040000Y-85920000D01*
G75*
G02*
X154180000Y-86060000I0J-140000D01*
G01*
X154180000Y-86340000D01*
G75*
G02*
X154040000Y-86480000I-140000J0D01*
G01*
X153700000Y-86480000D01*
G75*
G02*
X153560000Y-86340000I0J140000D01*
G01*
X153560000Y-86060000D01*
G75*
G02*
X153700000Y-85920000I140000J0D01*
G01*
G37*
%TD*%
%TO.C,C23*%
G36*
G01*
X153700000Y-88870000D02*
X154040000Y-88870000D01*
G75*
G02*
X154180000Y-89010000I0J-140000D01*
G01*
X154180000Y-89290000D01*
G75*
G02*
X154040000Y-89430000I-140000J0D01*
G01*
X153700000Y-89430000D01*
G75*
G02*
X153560000Y-89290000I0J140000D01*
G01*
X153560000Y-89010000D01*
G75*
G02*
X153700000Y-88870000I140000J0D01*
G01*
G37*
G36*
G01*
X153700000Y-87910000D02*
X154040000Y-87910000D01*
G75*
G02*
X154180000Y-88050000I0J-140000D01*
G01*
X154180000Y-88330000D01*
G75*
G02*
X154040000Y-88470000I-140000J0D01*
G01*
X153700000Y-88470000D01*
G75*
G02*
X153560000Y-88330000I0J140000D01*
G01*
X153560000Y-88050000D01*
G75*
G02*
X153700000Y-87910000I140000J0D01*
G01*
G37*
%TD*%
%TO.C,C8*%
G36*
G01*
X155340000Y-97830000D02*
X155340000Y-97490000D01*
G75*
G02*
X155480000Y-97350000I140000J0D01*
G01*
X155760000Y-97350000D01*
G75*
G02*
X155900000Y-97490000I0J-140000D01*
G01*
X155900000Y-97830000D01*
G75*
G02*
X155760000Y-97970000I-140000J0D01*
G01*
X155480000Y-97970000D01*
G75*
G02*
X155340000Y-97830000I0J140000D01*
G01*
G37*
G36*
G01*
X154380000Y-97830000D02*
X154380000Y-97490000D01*
G75*
G02*
X154520000Y-97350000I140000J0D01*
G01*
X154800000Y-97350000D01*
G75*
G02*
X154940000Y-97490000I0J-140000D01*
G01*
X154940000Y-97830000D01*
G75*
G02*
X154800000Y-97970000I-140000J0D01*
G01*
X154520000Y-97970000D01*
G75*
G02*
X154380000Y-97830000I0J140000D01*
G01*
G37*
%TD*%
M02*
