%TF.GenerationSoftware,KiCad,Pcbnew,5.1.10-88a1d61d58~88~ubuntu20.04.1*%
%TF.CreationDate,2021-06-10T18:40:27+05:30*%
%TF.ProjectId,LB1A_DCA7M4_R512MB_F4GB,4c423141-5f44-4434-9137-4d345f523531,1.0.0*%
%TF.SameCoordinates,Original*%
%TF.FileFunction,Soldermask,Bot*%
%TF.FilePolarity,Negative*%
%FSLAX46Y46*%
G04 Gerber Fmt 4.6, Leading zero omitted, Abs format (unit mm)*
G04 Created by KiCad (PCBNEW 5.1.10-88a1d61d58~88~ubuntu20.04.1) date 2021-06-10 18:40:27*
%MOMM*%
%LPD*%
G01*
G04 APERTURE LIST*
%ADD10C,3.800000*%
%ADD11R,0.660000X0.230000*%
%ADD12R,0.660000X0.350000*%
%ADD13R,0.230000X0.660000*%
%ADD14R,0.350000X0.660000*%
%ADD15C,1.500000*%
%ADD16R,1.400000X1.150000*%
G04 APERTURE END LIST*
D10*
%TO.C,H4*%
X118000000Y-113500000D03*
%TD*%
%TO.C,H3*%
X162000000Y-113500000D03*
%TD*%
%TO.C,H2*%
X162000000Y-69500000D03*
%TD*%
%TO.C,H1*%
X118000000Y-69500000D03*
%TD*%
D11*
%TO.C,U7*%
X160005000Y-97370000D03*
X162715000Y-97370000D03*
X160005000Y-96970000D03*
X162715000Y-96970000D03*
X160005000Y-96570000D03*
X162715000Y-96570000D03*
X160005000Y-96170000D03*
X162715000Y-96170000D03*
X160005000Y-95770000D03*
X162715000Y-95770000D03*
X160005000Y-95370000D03*
X162715000Y-95370000D03*
X160005000Y-94970000D03*
X162715000Y-94970000D03*
X160005000Y-94570000D03*
X162715000Y-94570000D03*
X160005000Y-94170000D03*
X162715000Y-94170000D03*
X160005000Y-93770000D03*
X162715000Y-93770000D03*
X160005000Y-93370000D03*
X162715000Y-93370000D03*
X160005000Y-92970000D03*
X162715000Y-92970000D03*
X160005000Y-92570000D03*
X162715000Y-92570000D03*
X160005000Y-92170000D03*
X162715000Y-92170000D03*
X160005000Y-91770000D03*
X162715000Y-91770000D03*
X160005000Y-91370000D03*
X162715000Y-91370000D03*
X160005000Y-90970000D03*
X162715000Y-90970000D03*
X160005000Y-90570000D03*
X162715000Y-90570000D03*
X160005000Y-90170000D03*
X162715000Y-90170000D03*
X160005000Y-89770000D03*
X162715000Y-89770000D03*
X160005000Y-89370000D03*
X162715000Y-89370000D03*
X160005000Y-88970000D03*
X162715000Y-88970000D03*
X160005000Y-88570000D03*
X162715000Y-88570000D03*
X160005000Y-88170000D03*
X162715000Y-88170000D03*
X160005000Y-87770000D03*
X162715000Y-87770000D03*
X160005000Y-87370000D03*
X162715000Y-87370000D03*
X160005000Y-86970000D03*
X162715000Y-86970000D03*
X160005000Y-86570000D03*
X162715000Y-86570000D03*
X160005000Y-86170000D03*
X162715000Y-86170000D03*
X160005000Y-85770000D03*
X162715000Y-85770000D03*
X160005000Y-85370000D03*
X162715000Y-85370000D03*
X160005000Y-84970000D03*
X162715000Y-84970000D03*
X160005000Y-84570000D03*
X162715000Y-84570000D03*
X160005000Y-84170000D03*
X162715000Y-84170000D03*
X160005000Y-83770000D03*
X162715000Y-83770000D03*
D12*
X160005000Y-83295000D03*
X162715000Y-83295000D03*
X162715000Y-97845000D03*
X160005000Y-97845000D03*
%TD*%
D13*
%TO.C,U6*%
X123250000Y-68585000D03*
X123250000Y-71295000D03*
X123650000Y-68585000D03*
X123650000Y-71295000D03*
X124050000Y-68585000D03*
X124050000Y-71295000D03*
X124450000Y-68585000D03*
X124450000Y-71295000D03*
X124850000Y-68585000D03*
X124850000Y-71295000D03*
X125250000Y-68585000D03*
X125250000Y-71295000D03*
X125650000Y-68585000D03*
X125650000Y-71295000D03*
X126050000Y-68585000D03*
X126050000Y-71295000D03*
X126450000Y-68585000D03*
X126450000Y-71295000D03*
X126850000Y-68585000D03*
X126850000Y-71295000D03*
X127250000Y-68585000D03*
X127250000Y-71295000D03*
X127650000Y-68585000D03*
X127650000Y-71295000D03*
X128050000Y-68585000D03*
X128050000Y-71295000D03*
X128450000Y-68585000D03*
X128450000Y-71295000D03*
X128850000Y-68585000D03*
X128850000Y-71295000D03*
X129250000Y-68585000D03*
X129250000Y-71295000D03*
X129650000Y-68585000D03*
X129650000Y-71295000D03*
X130050000Y-68585000D03*
X130050000Y-71295000D03*
X130450000Y-68585000D03*
X130450000Y-71295000D03*
X130850000Y-68585000D03*
X130850000Y-71295000D03*
X131250000Y-68585000D03*
X131250000Y-71295000D03*
X131650000Y-68585000D03*
X131650000Y-71295000D03*
X132050000Y-68585000D03*
X132050000Y-71295000D03*
X132450000Y-68585000D03*
X132450000Y-71295000D03*
X132850000Y-68585000D03*
X132850000Y-71295000D03*
X133250000Y-68585000D03*
X133250000Y-71295000D03*
X133650000Y-68585000D03*
X133650000Y-71295000D03*
X134050000Y-68585000D03*
X134050000Y-71295000D03*
X134450000Y-68585000D03*
X134450000Y-71295000D03*
X134850000Y-68585000D03*
X134850000Y-71295000D03*
X135250000Y-68585000D03*
X135250000Y-71295000D03*
X135650000Y-68585000D03*
X135650000Y-71295000D03*
X136050000Y-68585000D03*
X136050000Y-71295000D03*
X136450000Y-68585000D03*
X136450000Y-71295000D03*
X136850000Y-68585000D03*
X136850000Y-71295000D03*
D14*
X137325000Y-68585000D03*
X137325000Y-71295000D03*
X122775000Y-71295000D03*
X122775000Y-68585000D03*
%TD*%
%TO.C,C4*%
G36*
G01*
X155320000Y-100700000D02*
X155320000Y-100360000D01*
G75*
G02*
X155460000Y-100220000I140000J0D01*
G01*
X155740000Y-100220000D01*
G75*
G02*
X155880000Y-100360000I0J-140000D01*
G01*
X155880000Y-100700000D01*
G75*
G02*
X155740000Y-100840000I-140000J0D01*
G01*
X155460000Y-100840000D01*
G75*
G02*
X155320000Y-100700000I0J140000D01*
G01*
G37*
G36*
G01*
X154360000Y-100700000D02*
X154360000Y-100360000D01*
G75*
G02*
X154500000Y-100220000I140000J0D01*
G01*
X154780000Y-100220000D01*
G75*
G02*
X154920000Y-100360000I0J-140000D01*
G01*
X154920000Y-100700000D01*
G75*
G02*
X154780000Y-100840000I-140000J0D01*
G01*
X154500000Y-100840000D01*
G75*
G02*
X154360000Y-100700000I0J140000D01*
G01*
G37*
%TD*%
%TO.C,C76*%
G36*
G01*
X151670000Y-113000000D02*
X151330000Y-113000000D01*
G75*
G02*
X151190000Y-112860000I0J140000D01*
G01*
X151190000Y-112580000D01*
G75*
G02*
X151330000Y-112440000I140000J0D01*
G01*
X151670000Y-112440000D01*
G75*
G02*
X151810000Y-112580000I0J-140000D01*
G01*
X151810000Y-112860000D01*
G75*
G02*
X151670000Y-113000000I-140000J0D01*
G01*
G37*
G36*
G01*
X151670000Y-112040000D02*
X151330000Y-112040000D01*
G75*
G02*
X151190000Y-111900000I0J140000D01*
G01*
X151190000Y-111620000D01*
G75*
G02*
X151330000Y-111480000I140000J0D01*
G01*
X151670000Y-111480000D01*
G75*
G02*
X151810000Y-111620000I0J-140000D01*
G01*
X151810000Y-111900000D01*
G75*
G02*
X151670000Y-112040000I-140000J0D01*
G01*
G37*
%TD*%
%TO.C,C75*%
G36*
G01*
X146410000Y-110470000D02*
X146070000Y-110470000D01*
G75*
G02*
X145930000Y-110330000I0J140000D01*
G01*
X145930000Y-110050000D01*
G75*
G02*
X146070000Y-109910000I140000J0D01*
G01*
X146410000Y-109910000D01*
G75*
G02*
X146550000Y-110050000I0J-140000D01*
G01*
X146550000Y-110330000D01*
G75*
G02*
X146410000Y-110470000I-140000J0D01*
G01*
G37*
G36*
G01*
X146410000Y-111430000D02*
X146070000Y-111430000D01*
G75*
G02*
X145930000Y-111290000I0J140000D01*
G01*
X145930000Y-111010000D01*
G75*
G02*
X146070000Y-110870000I140000J0D01*
G01*
X146410000Y-110870000D01*
G75*
G02*
X146550000Y-111010000I0J-140000D01*
G01*
X146550000Y-111290000D01*
G75*
G02*
X146410000Y-111430000I-140000J0D01*
G01*
G37*
%TD*%
%TO.C,C74*%
G36*
G01*
X149210000Y-99850000D02*
X149210000Y-100190000D01*
G75*
G02*
X149070000Y-100330000I-140000J0D01*
G01*
X148790000Y-100330000D01*
G75*
G02*
X148650000Y-100190000I0J140000D01*
G01*
X148650000Y-99850000D01*
G75*
G02*
X148790000Y-99710000I140000J0D01*
G01*
X149070000Y-99710000D01*
G75*
G02*
X149210000Y-99850000I0J-140000D01*
G01*
G37*
G36*
G01*
X150170000Y-99850000D02*
X150170000Y-100190000D01*
G75*
G02*
X150030000Y-100330000I-140000J0D01*
G01*
X149750000Y-100330000D01*
G75*
G02*
X149610000Y-100190000I0J140000D01*
G01*
X149610000Y-99850000D01*
G75*
G02*
X149750000Y-99710000I140000J0D01*
G01*
X150030000Y-99710000D01*
G75*
G02*
X150170000Y-99850000I0J-140000D01*
G01*
G37*
%TD*%
%TO.C,C73*%
G36*
G01*
X147110000Y-99860000D02*
X147110000Y-100200000D01*
G75*
G02*
X146970000Y-100340000I-140000J0D01*
G01*
X146690000Y-100340000D01*
G75*
G02*
X146550000Y-100200000I0J140000D01*
G01*
X146550000Y-99860000D01*
G75*
G02*
X146690000Y-99720000I140000J0D01*
G01*
X146970000Y-99720000D01*
G75*
G02*
X147110000Y-99860000I0J-140000D01*
G01*
G37*
G36*
G01*
X148070000Y-99860000D02*
X148070000Y-100200000D01*
G75*
G02*
X147930000Y-100340000I-140000J0D01*
G01*
X147650000Y-100340000D01*
G75*
G02*
X147510000Y-100200000I0J140000D01*
G01*
X147510000Y-99860000D01*
G75*
G02*
X147650000Y-99720000I140000J0D01*
G01*
X147930000Y-99720000D01*
G75*
G02*
X148070000Y-99860000I0J-140000D01*
G01*
G37*
%TD*%
%TO.C,C72*%
G36*
G01*
X145030000Y-99860000D02*
X145030000Y-100200000D01*
G75*
G02*
X144890000Y-100340000I-140000J0D01*
G01*
X144610000Y-100340000D01*
G75*
G02*
X144470000Y-100200000I0J140000D01*
G01*
X144470000Y-99860000D01*
G75*
G02*
X144610000Y-99720000I140000J0D01*
G01*
X144890000Y-99720000D01*
G75*
G02*
X145030000Y-99860000I0J-140000D01*
G01*
G37*
G36*
G01*
X145990000Y-99860000D02*
X145990000Y-100200000D01*
G75*
G02*
X145850000Y-100340000I-140000J0D01*
G01*
X145570000Y-100340000D01*
G75*
G02*
X145430000Y-100200000I0J140000D01*
G01*
X145430000Y-99860000D01*
G75*
G02*
X145570000Y-99720000I140000J0D01*
G01*
X145850000Y-99720000D01*
G75*
G02*
X145990000Y-99860000I0J-140000D01*
G01*
G37*
%TD*%
%TO.C,C70*%
G36*
G01*
X150800000Y-104850000D02*
X150800000Y-104510000D01*
G75*
G02*
X150940000Y-104370000I140000J0D01*
G01*
X151220000Y-104370000D01*
G75*
G02*
X151360000Y-104510000I0J-140000D01*
G01*
X151360000Y-104850000D01*
G75*
G02*
X151220000Y-104990000I-140000J0D01*
G01*
X150940000Y-104990000D01*
G75*
G02*
X150800000Y-104850000I0J140000D01*
G01*
G37*
G36*
G01*
X149840000Y-104850000D02*
X149840000Y-104510000D01*
G75*
G02*
X149980000Y-104370000I140000J0D01*
G01*
X150260000Y-104370000D01*
G75*
G02*
X150400000Y-104510000I0J-140000D01*
G01*
X150400000Y-104850000D01*
G75*
G02*
X150260000Y-104990000I-140000J0D01*
G01*
X149980000Y-104990000D01*
G75*
G02*
X149840000Y-104850000I0J140000D01*
G01*
G37*
%TD*%
%TO.C,C69*%
G36*
G01*
X150800000Y-103770000D02*
X150800000Y-103430000D01*
G75*
G02*
X150940000Y-103290000I140000J0D01*
G01*
X151220000Y-103290000D01*
G75*
G02*
X151360000Y-103430000I0J-140000D01*
G01*
X151360000Y-103770000D01*
G75*
G02*
X151220000Y-103910000I-140000J0D01*
G01*
X150940000Y-103910000D01*
G75*
G02*
X150800000Y-103770000I0J140000D01*
G01*
G37*
G36*
G01*
X149840000Y-103770000D02*
X149840000Y-103430000D01*
G75*
G02*
X149980000Y-103290000I140000J0D01*
G01*
X150260000Y-103290000D01*
G75*
G02*
X150400000Y-103430000I0J-140000D01*
G01*
X150400000Y-103770000D01*
G75*
G02*
X150260000Y-103910000I-140000J0D01*
G01*
X149980000Y-103910000D01*
G75*
G02*
X149840000Y-103770000I0J140000D01*
G01*
G37*
%TD*%
%TO.C,C68*%
G36*
G01*
X150820000Y-102700000D02*
X150820000Y-102360000D01*
G75*
G02*
X150960000Y-102220000I140000J0D01*
G01*
X151240000Y-102220000D01*
G75*
G02*
X151380000Y-102360000I0J-140000D01*
G01*
X151380000Y-102700000D01*
G75*
G02*
X151240000Y-102840000I-140000J0D01*
G01*
X150960000Y-102840000D01*
G75*
G02*
X150820000Y-102700000I0J140000D01*
G01*
G37*
G36*
G01*
X149860000Y-102700000D02*
X149860000Y-102360000D01*
G75*
G02*
X150000000Y-102220000I140000J0D01*
G01*
X150280000Y-102220000D01*
G75*
G02*
X150420000Y-102360000I0J-140000D01*
G01*
X150420000Y-102700000D01*
G75*
G02*
X150280000Y-102840000I-140000J0D01*
G01*
X150000000Y-102840000D01*
G75*
G02*
X149860000Y-102700000I0J140000D01*
G01*
G37*
%TD*%
%TO.C,C67*%
G36*
G01*
X150840000Y-101630000D02*
X150840000Y-101290000D01*
G75*
G02*
X150980000Y-101150000I140000J0D01*
G01*
X151260000Y-101150000D01*
G75*
G02*
X151400000Y-101290000I0J-140000D01*
G01*
X151400000Y-101630000D01*
G75*
G02*
X151260000Y-101770000I-140000J0D01*
G01*
X150980000Y-101770000D01*
G75*
G02*
X150840000Y-101630000I0J140000D01*
G01*
G37*
G36*
G01*
X149880000Y-101630000D02*
X149880000Y-101290000D01*
G75*
G02*
X150020000Y-101150000I140000J0D01*
G01*
X150300000Y-101150000D01*
G75*
G02*
X150440000Y-101290000I0J-140000D01*
G01*
X150440000Y-101630000D01*
G75*
G02*
X150300000Y-101770000I-140000J0D01*
G01*
X150020000Y-101770000D01*
G75*
G02*
X149880000Y-101630000I0J140000D01*
G01*
G37*
%TD*%
%TO.C,C66*%
G36*
G01*
X146450000Y-105340000D02*
X146790000Y-105340000D01*
G75*
G02*
X146930000Y-105480000I0J-140000D01*
G01*
X146930000Y-105760000D01*
G75*
G02*
X146790000Y-105900000I-140000J0D01*
G01*
X146450000Y-105900000D01*
G75*
G02*
X146310000Y-105760000I0J140000D01*
G01*
X146310000Y-105480000D01*
G75*
G02*
X146450000Y-105340000I140000J0D01*
G01*
G37*
G36*
G01*
X146450000Y-104380000D02*
X146790000Y-104380000D01*
G75*
G02*
X146930000Y-104520000I0J-140000D01*
G01*
X146930000Y-104800000D01*
G75*
G02*
X146790000Y-104940000I-140000J0D01*
G01*
X146450000Y-104940000D01*
G75*
G02*
X146310000Y-104800000I0J140000D01*
G01*
X146310000Y-104520000D01*
G75*
G02*
X146450000Y-104380000I140000J0D01*
G01*
G37*
%TD*%
%TO.C,C65*%
G36*
G01*
X145350000Y-105340000D02*
X145690000Y-105340000D01*
G75*
G02*
X145830000Y-105480000I0J-140000D01*
G01*
X145830000Y-105760000D01*
G75*
G02*
X145690000Y-105900000I-140000J0D01*
G01*
X145350000Y-105900000D01*
G75*
G02*
X145210000Y-105760000I0J140000D01*
G01*
X145210000Y-105480000D01*
G75*
G02*
X145350000Y-105340000I140000J0D01*
G01*
G37*
G36*
G01*
X145350000Y-104380000D02*
X145690000Y-104380000D01*
G75*
G02*
X145830000Y-104520000I0J-140000D01*
G01*
X145830000Y-104800000D01*
G75*
G02*
X145690000Y-104940000I-140000J0D01*
G01*
X145350000Y-104940000D01*
G75*
G02*
X145210000Y-104800000I0J140000D01*
G01*
X145210000Y-104520000D01*
G75*
G02*
X145350000Y-104380000I140000J0D01*
G01*
G37*
%TD*%
%TO.C,C64*%
G36*
G01*
X143420000Y-103270000D02*
X143420000Y-103610000D01*
G75*
G02*
X143280000Y-103750000I-140000J0D01*
G01*
X143000000Y-103750000D01*
G75*
G02*
X142860000Y-103610000I0J140000D01*
G01*
X142860000Y-103270000D01*
G75*
G02*
X143000000Y-103130000I140000J0D01*
G01*
X143280000Y-103130000D01*
G75*
G02*
X143420000Y-103270000I0J-140000D01*
G01*
G37*
G36*
G01*
X144380000Y-103270000D02*
X144380000Y-103610000D01*
G75*
G02*
X144240000Y-103750000I-140000J0D01*
G01*
X143960000Y-103750000D01*
G75*
G02*
X143820000Y-103610000I0J140000D01*
G01*
X143820000Y-103270000D01*
G75*
G02*
X143960000Y-103130000I140000J0D01*
G01*
X144240000Y-103130000D01*
G75*
G02*
X144380000Y-103270000I0J-140000D01*
G01*
G37*
%TD*%
%TO.C,C63*%
G36*
G01*
X144370000Y-102110000D02*
X144370000Y-102450000D01*
G75*
G02*
X144230000Y-102590000I-140000J0D01*
G01*
X143950000Y-102590000D01*
G75*
G02*
X143810000Y-102450000I0J140000D01*
G01*
X143810000Y-102110000D01*
G75*
G02*
X143950000Y-101970000I140000J0D01*
G01*
X144230000Y-101970000D01*
G75*
G02*
X144370000Y-102110000I0J-140000D01*
G01*
G37*
G36*
G01*
X143410000Y-102110000D02*
X143410000Y-102450000D01*
G75*
G02*
X143270000Y-102590000I-140000J0D01*
G01*
X142990000Y-102590000D01*
G75*
G02*
X142850000Y-102450000I0J140000D01*
G01*
X142850000Y-102110000D01*
G75*
G02*
X142990000Y-101970000I140000J0D01*
G01*
X143270000Y-101970000D01*
G75*
G02*
X143410000Y-102110000I0J-140000D01*
G01*
G37*
%TD*%
D15*
%TO.C,FID6*%
X163300000Y-109990000D03*
%TD*%
%TO.C,FID5*%
X163310000Y-73210000D03*
%TD*%
%TO.C,FID4*%
X117180000Y-73360000D03*
%TD*%
D16*
%TO.C,X2*%
X149970000Y-110090000D03*
X147770000Y-110090000D03*
X147770000Y-111690000D03*
X149970000Y-111690000D03*
%TD*%
D11*
%TO.C,U5*%
X117235000Y-97370000D03*
X119945000Y-97370000D03*
X117235000Y-96970000D03*
X119945000Y-96970000D03*
X117235000Y-96570000D03*
X119945000Y-96570000D03*
X117235000Y-96170000D03*
X119945000Y-96170000D03*
X117235000Y-95770000D03*
X119945000Y-95770000D03*
X117235000Y-95370000D03*
X119945000Y-95370000D03*
X117235000Y-94970000D03*
X119945000Y-94970000D03*
X117235000Y-94570000D03*
X119945000Y-94570000D03*
X117235000Y-94170000D03*
X119945000Y-94170000D03*
X117235000Y-93770000D03*
X119945000Y-93770000D03*
X117235000Y-93370000D03*
X119945000Y-93370000D03*
X117235000Y-92970000D03*
X119945000Y-92970000D03*
X117235000Y-92570000D03*
X119945000Y-92570000D03*
X117235000Y-92170000D03*
X119945000Y-92170000D03*
X117235000Y-91770000D03*
X119945000Y-91770000D03*
X117235000Y-91370000D03*
X119945000Y-91370000D03*
X117235000Y-90970000D03*
X119945000Y-90970000D03*
X117235000Y-90570000D03*
X119945000Y-90570000D03*
X117235000Y-90170000D03*
X119945000Y-90170000D03*
X117235000Y-89770000D03*
X119945000Y-89770000D03*
X117235000Y-89370000D03*
X119945000Y-89370000D03*
X117235000Y-88970000D03*
X119945000Y-88970000D03*
X117235000Y-88570000D03*
X119945000Y-88570000D03*
X117235000Y-88170000D03*
X119945000Y-88170000D03*
X117235000Y-87770000D03*
X119945000Y-87770000D03*
X117235000Y-87370000D03*
X119945000Y-87370000D03*
X117235000Y-86970000D03*
X119945000Y-86970000D03*
X117235000Y-86570000D03*
X119945000Y-86570000D03*
X117235000Y-86170000D03*
X119945000Y-86170000D03*
X117235000Y-85770000D03*
X119945000Y-85770000D03*
X117235000Y-85370000D03*
X119945000Y-85370000D03*
X117235000Y-84970000D03*
X119945000Y-84970000D03*
X117235000Y-84570000D03*
X119945000Y-84570000D03*
X117235000Y-84170000D03*
X119945000Y-84170000D03*
X117235000Y-83770000D03*
X119945000Y-83770000D03*
D12*
X117235000Y-83295000D03*
X119945000Y-83295000D03*
X119945000Y-97845000D03*
X117235000Y-97845000D03*
%TD*%
%TO.C,R45*%
G36*
G01*
X127615000Y-96070000D02*
X127985000Y-96070000D01*
G75*
G02*
X128120000Y-96205000I0J-135000D01*
G01*
X128120000Y-96475000D01*
G75*
G02*
X127985000Y-96610000I-135000J0D01*
G01*
X127615000Y-96610000D01*
G75*
G02*
X127480000Y-96475000I0J135000D01*
G01*
X127480000Y-96205000D01*
G75*
G02*
X127615000Y-96070000I135000J0D01*
G01*
G37*
G36*
G01*
X127615000Y-95050000D02*
X127985000Y-95050000D01*
G75*
G02*
X128120000Y-95185000I0J-135000D01*
G01*
X128120000Y-95455000D01*
G75*
G02*
X127985000Y-95590000I-135000J0D01*
G01*
X127615000Y-95590000D01*
G75*
G02*
X127480000Y-95455000I0J135000D01*
G01*
X127480000Y-95185000D01*
G75*
G02*
X127615000Y-95050000I135000J0D01*
G01*
G37*
%TD*%
%TO.C,R44*%
G36*
G01*
X126555000Y-96090000D02*
X126925000Y-96090000D01*
G75*
G02*
X127060000Y-96225000I0J-135000D01*
G01*
X127060000Y-96495000D01*
G75*
G02*
X126925000Y-96630000I-135000J0D01*
G01*
X126555000Y-96630000D01*
G75*
G02*
X126420000Y-96495000I0J135000D01*
G01*
X126420000Y-96225000D01*
G75*
G02*
X126555000Y-96090000I135000J0D01*
G01*
G37*
G36*
G01*
X126555000Y-95070000D02*
X126925000Y-95070000D01*
G75*
G02*
X127060000Y-95205000I0J-135000D01*
G01*
X127060000Y-95475000D01*
G75*
G02*
X126925000Y-95610000I-135000J0D01*
G01*
X126555000Y-95610000D01*
G75*
G02*
X126420000Y-95475000I0J135000D01*
G01*
X126420000Y-95205000D01*
G75*
G02*
X126555000Y-95070000I135000J0D01*
G01*
G37*
%TD*%
%TO.C,R42*%
G36*
G01*
X130155000Y-96110000D02*
X130525000Y-96110000D01*
G75*
G02*
X130660000Y-96245000I0J-135000D01*
G01*
X130660000Y-96515000D01*
G75*
G02*
X130525000Y-96650000I-135000J0D01*
G01*
X130155000Y-96650000D01*
G75*
G02*
X130020000Y-96515000I0J135000D01*
G01*
X130020000Y-96245000D01*
G75*
G02*
X130155000Y-96110000I135000J0D01*
G01*
G37*
G36*
G01*
X130155000Y-95090000D02*
X130525000Y-95090000D01*
G75*
G02*
X130660000Y-95225000I0J-135000D01*
G01*
X130660000Y-95495000D01*
G75*
G02*
X130525000Y-95630000I-135000J0D01*
G01*
X130155000Y-95630000D01*
G75*
G02*
X130020000Y-95495000I0J135000D01*
G01*
X130020000Y-95225000D01*
G75*
G02*
X130155000Y-95090000I135000J0D01*
G01*
G37*
%TD*%
%TO.C,R41*%
G36*
G01*
X131215000Y-96120000D02*
X131585000Y-96120000D01*
G75*
G02*
X131720000Y-96255000I0J-135000D01*
G01*
X131720000Y-96525000D01*
G75*
G02*
X131585000Y-96660000I-135000J0D01*
G01*
X131215000Y-96660000D01*
G75*
G02*
X131080000Y-96525000I0J135000D01*
G01*
X131080000Y-96255000D01*
G75*
G02*
X131215000Y-96120000I135000J0D01*
G01*
G37*
G36*
G01*
X131215000Y-95100000D02*
X131585000Y-95100000D01*
G75*
G02*
X131720000Y-95235000I0J-135000D01*
G01*
X131720000Y-95505000D01*
G75*
G02*
X131585000Y-95640000I-135000J0D01*
G01*
X131215000Y-95640000D01*
G75*
G02*
X131080000Y-95505000I0J135000D01*
G01*
X131080000Y-95235000D01*
G75*
G02*
X131215000Y-95100000I135000J0D01*
G01*
G37*
%TD*%
%TO.C,R35*%
G36*
G01*
X153995000Y-83560000D02*
X153625000Y-83560000D01*
G75*
G02*
X153490000Y-83425000I0J135000D01*
G01*
X153490000Y-83155000D01*
G75*
G02*
X153625000Y-83020000I135000J0D01*
G01*
X153995000Y-83020000D01*
G75*
G02*
X154130000Y-83155000I0J-135000D01*
G01*
X154130000Y-83425000D01*
G75*
G02*
X153995000Y-83560000I-135000J0D01*
G01*
G37*
G36*
G01*
X153995000Y-84580000D02*
X153625000Y-84580000D01*
G75*
G02*
X153490000Y-84445000I0J135000D01*
G01*
X153490000Y-84175000D01*
G75*
G02*
X153625000Y-84040000I135000J0D01*
G01*
X153995000Y-84040000D01*
G75*
G02*
X154130000Y-84175000I0J-135000D01*
G01*
X154130000Y-84445000D01*
G75*
G02*
X153995000Y-84580000I-135000J0D01*
G01*
G37*
%TD*%
%TO.C,R33*%
G36*
G01*
X146895000Y-75500000D02*
X147265000Y-75500000D01*
G75*
G02*
X147400000Y-75635000I0J-135000D01*
G01*
X147400000Y-75905000D01*
G75*
G02*
X147265000Y-76040000I-135000J0D01*
G01*
X146895000Y-76040000D01*
G75*
G02*
X146760000Y-75905000I0J135000D01*
G01*
X146760000Y-75635000D01*
G75*
G02*
X146895000Y-75500000I135000J0D01*
G01*
G37*
G36*
G01*
X146895000Y-74480000D02*
X147265000Y-74480000D01*
G75*
G02*
X147400000Y-74615000I0J-135000D01*
G01*
X147400000Y-74885000D01*
G75*
G02*
X147265000Y-75020000I-135000J0D01*
G01*
X146895000Y-75020000D01*
G75*
G02*
X146760000Y-74885000I0J135000D01*
G01*
X146760000Y-74615000D01*
G75*
G02*
X146895000Y-74480000I135000J0D01*
G01*
G37*
%TD*%
%TO.C,R32*%
G36*
G01*
X146215000Y-75020000D02*
X145845000Y-75020000D01*
G75*
G02*
X145710000Y-74885000I0J135000D01*
G01*
X145710000Y-74615000D01*
G75*
G02*
X145845000Y-74480000I135000J0D01*
G01*
X146215000Y-74480000D01*
G75*
G02*
X146350000Y-74615000I0J-135000D01*
G01*
X146350000Y-74885000D01*
G75*
G02*
X146215000Y-75020000I-135000J0D01*
G01*
G37*
G36*
G01*
X146215000Y-76040000D02*
X145845000Y-76040000D01*
G75*
G02*
X145710000Y-75905000I0J135000D01*
G01*
X145710000Y-75635000D01*
G75*
G02*
X145845000Y-75500000I135000J0D01*
G01*
X146215000Y-75500000D01*
G75*
G02*
X146350000Y-75635000I0J-135000D01*
G01*
X146350000Y-75905000D01*
G75*
G02*
X146215000Y-76040000I-135000J0D01*
G01*
G37*
%TD*%
%TO.C,R31*%
G36*
G01*
X142410000Y-78535000D02*
X142410000Y-78165000D01*
G75*
G02*
X142545000Y-78030000I135000J0D01*
G01*
X142815000Y-78030000D01*
G75*
G02*
X142950000Y-78165000I0J-135000D01*
G01*
X142950000Y-78535000D01*
G75*
G02*
X142815000Y-78670000I-135000J0D01*
G01*
X142545000Y-78670000D01*
G75*
G02*
X142410000Y-78535000I0J135000D01*
G01*
G37*
G36*
G01*
X141390000Y-78535000D02*
X141390000Y-78165000D01*
G75*
G02*
X141525000Y-78030000I135000J0D01*
G01*
X141795000Y-78030000D01*
G75*
G02*
X141930000Y-78165000I0J-135000D01*
G01*
X141930000Y-78535000D01*
G75*
G02*
X141795000Y-78670000I-135000J0D01*
G01*
X141525000Y-78670000D01*
G75*
G02*
X141390000Y-78535000I0J135000D01*
G01*
G37*
%TD*%
%TO.C,R30*%
G36*
G01*
X145145000Y-75010000D02*
X144775000Y-75010000D01*
G75*
G02*
X144640000Y-74875000I0J135000D01*
G01*
X144640000Y-74605000D01*
G75*
G02*
X144775000Y-74470000I135000J0D01*
G01*
X145145000Y-74470000D01*
G75*
G02*
X145280000Y-74605000I0J-135000D01*
G01*
X145280000Y-74875000D01*
G75*
G02*
X145145000Y-75010000I-135000J0D01*
G01*
G37*
G36*
G01*
X145145000Y-76030000D02*
X144775000Y-76030000D01*
G75*
G02*
X144640000Y-75895000I0J135000D01*
G01*
X144640000Y-75625000D01*
G75*
G02*
X144775000Y-75490000I135000J0D01*
G01*
X145145000Y-75490000D01*
G75*
G02*
X145280000Y-75625000I0J-135000D01*
G01*
X145280000Y-75895000D01*
G75*
G02*
X145145000Y-76030000I-135000J0D01*
G01*
G37*
%TD*%
%TO.C,R29*%
G36*
G01*
X147975000Y-75500000D02*
X148345000Y-75500000D01*
G75*
G02*
X148480000Y-75635000I0J-135000D01*
G01*
X148480000Y-75905000D01*
G75*
G02*
X148345000Y-76040000I-135000J0D01*
G01*
X147975000Y-76040000D01*
G75*
G02*
X147840000Y-75905000I0J135000D01*
G01*
X147840000Y-75635000D01*
G75*
G02*
X147975000Y-75500000I135000J0D01*
G01*
G37*
G36*
G01*
X147975000Y-74480000D02*
X148345000Y-74480000D01*
G75*
G02*
X148480000Y-74615000I0J-135000D01*
G01*
X148480000Y-74885000D01*
G75*
G02*
X148345000Y-75020000I-135000J0D01*
G01*
X147975000Y-75020000D01*
G75*
G02*
X147840000Y-74885000I0J135000D01*
G01*
X147840000Y-74615000D01*
G75*
G02*
X147975000Y-74480000I135000J0D01*
G01*
G37*
%TD*%
%TO.C,R28*%
G36*
G01*
X155680000Y-83455000D02*
X155680000Y-83085000D01*
G75*
G02*
X155815000Y-82950000I135000J0D01*
G01*
X156085000Y-82950000D01*
G75*
G02*
X156220000Y-83085000I0J-135000D01*
G01*
X156220000Y-83455000D01*
G75*
G02*
X156085000Y-83590000I-135000J0D01*
G01*
X155815000Y-83590000D01*
G75*
G02*
X155680000Y-83455000I0J135000D01*
G01*
G37*
G36*
G01*
X154660000Y-83455000D02*
X154660000Y-83085000D01*
G75*
G02*
X154795000Y-82950000I135000J0D01*
G01*
X155065000Y-82950000D01*
G75*
G02*
X155200000Y-83085000I0J-135000D01*
G01*
X155200000Y-83455000D01*
G75*
G02*
X155065000Y-83590000I-135000J0D01*
G01*
X154795000Y-83590000D01*
G75*
G02*
X154660000Y-83455000I0J135000D01*
G01*
G37*
%TD*%
%TO.C,R26*%
G36*
G01*
X150080000Y-80365000D02*
X150080000Y-79995000D01*
G75*
G02*
X150215000Y-79860000I135000J0D01*
G01*
X150485000Y-79860000D01*
G75*
G02*
X150620000Y-79995000I0J-135000D01*
G01*
X150620000Y-80365000D01*
G75*
G02*
X150485000Y-80500000I-135000J0D01*
G01*
X150215000Y-80500000D01*
G75*
G02*
X150080000Y-80365000I0J135000D01*
G01*
G37*
G36*
G01*
X149060000Y-80365000D02*
X149060000Y-79995000D01*
G75*
G02*
X149195000Y-79860000I135000J0D01*
G01*
X149465000Y-79860000D01*
G75*
G02*
X149600000Y-79995000I0J-135000D01*
G01*
X149600000Y-80365000D01*
G75*
G02*
X149465000Y-80500000I-135000J0D01*
G01*
X149195000Y-80500000D01*
G75*
G02*
X149060000Y-80365000I0J135000D01*
G01*
G37*
%TD*%
%TO.C,R25*%
G36*
G01*
X142410000Y-79655000D02*
X142410000Y-79285000D01*
G75*
G02*
X142545000Y-79150000I135000J0D01*
G01*
X142815000Y-79150000D01*
G75*
G02*
X142950000Y-79285000I0J-135000D01*
G01*
X142950000Y-79655000D01*
G75*
G02*
X142815000Y-79790000I-135000J0D01*
G01*
X142545000Y-79790000D01*
G75*
G02*
X142410000Y-79655000I0J135000D01*
G01*
G37*
G36*
G01*
X141390000Y-79655000D02*
X141390000Y-79285000D01*
G75*
G02*
X141525000Y-79150000I135000J0D01*
G01*
X141795000Y-79150000D01*
G75*
G02*
X141930000Y-79285000I0J-135000D01*
G01*
X141930000Y-79655000D01*
G75*
G02*
X141795000Y-79790000I-135000J0D01*
G01*
X141525000Y-79790000D01*
G75*
G02*
X141390000Y-79655000I0J135000D01*
G01*
G37*
%TD*%
%TO.C,R24*%
G36*
G01*
X155180000Y-84615000D02*
X155180000Y-84985000D01*
G75*
G02*
X155045000Y-85120000I-135000J0D01*
G01*
X154775000Y-85120000D01*
G75*
G02*
X154640000Y-84985000I0J135000D01*
G01*
X154640000Y-84615000D01*
G75*
G02*
X154775000Y-84480000I135000J0D01*
G01*
X155045000Y-84480000D01*
G75*
G02*
X155180000Y-84615000I0J-135000D01*
G01*
G37*
G36*
G01*
X156200000Y-84615000D02*
X156200000Y-84985000D01*
G75*
G02*
X156065000Y-85120000I-135000J0D01*
G01*
X155795000Y-85120000D01*
G75*
G02*
X155660000Y-84985000I0J135000D01*
G01*
X155660000Y-84615000D01*
G75*
G02*
X155795000Y-84480000I135000J0D01*
G01*
X156065000Y-84480000D01*
G75*
G02*
X156200000Y-84615000I0J-135000D01*
G01*
G37*
%TD*%
%TO.C,R23*%
G36*
G01*
X142420000Y-80735000D02*
X142420000Y-80365000D01*
G75*
G02*
X142555000Y-80230000I135000J0D01*
G01*
X142825000Y-80230000D01*
G75*
G02*
X142960000Y-80365000I0J-135000D01*
G01*
X142960000Y-80735000D01*
G75*
G02*
X142825000Y-80870000I-135000J0D01*
G01*
X142555000Y-80870000D01*
G75*
G02*
X142420000Y-80735000I0J135000D01*
G01*
G37*
G36*
G01*
X141400000Y-80735000D02*
X141400000Y-80365000D01*
G75*
G02*
X141535000Y-80230000I135000J0D01*
G01*
X141805000Y-80230000D01*
G75*
G02*
X141940000Y-80365000I0J-135000D01*
G01*
X141940000Y-80735000D01*
G75*
G02*
X141805000Y-80870000I-135000J0D01*
G01*
X141535000Y-80870000D01*
G75*
G02*
X141400000Y-80735000I0J135000D01*
G01*
G37*
%TD*%
%TO.C,R22*%
G36*
G01*
X155210000Y-81995000D02*
X155210000Y-82365000D01*
G75*
G02*
X155075000Y-82500000I-135000J0D01*
G01*
X154805000Y-82500000D01*
G75*
G02*
X154670000Y-82365000I0J135000D01*
G01*
X154670000Y-81995000D01*
G75*
G02*
X154805000Y-81860000I135000J0D01*
G01*
X155075000Y-81860000D01*
G75*
G02*
X155210000Y-81995000I0J-135000D01*
G01*
G37*
G36*
G01*
X156230000Y-81995000D02*
X156230000Y-82365000D01*
G75*
G02*
X156095000Y-82500000I-135000J0D01*
G01*
X155825000Y-82500000D01*
G75*
G02*
X155690000Y-82365000I0J135000D01*
G01*
X155690000Y-81995000D01*
G75*
G02*
X155825000Y-81860000I135000J0D01*
G01*
X156095000Y-81860000D01*
G75*
G02*
X156230000Y-81995000I0J-135000D01*
G01*
G37*
%TD*%
%TO.C,R21*%
G36*
G01*
X142430000Y-87245000D02*
X142430000Y-86875000D01*
G75*
G02*
X142565000Y-86740000I135000J0D01*
G01*
X142835000Y-86740000D01*
G75*
G02*
X142970000Y-86875000I0J-135000D01*
G01*
X142970000Y-87245000D01*
G75*
G02*
X142835000Y-87380000I-135000J0D01*
G01*
X142565000Y-87380000D01*
G75*
G02*
X142430000Y-87245000I0J135000D01*
G01*
G37*
G36*
G01*
X141410000Y-87245000D02*
X141410000Y-86875000D01*
G75*
G02*
X141545000Y-86740000I135000J0D01*
G01*
X141815000Y-86740000D01*
G75*
G02*
X141950000Y-86875000I0J-135000D01*
G01*
X141950000Y-87245000D01*
G75*
G02*
X141815000Y-87380000I-135000J0D01*
G01*
X141545000Y-87380000D01*
G75*
G02*
X141410000Y-87245000I0J135000D01*
G01*
G37*
%TD*%
%TO.C,R20*%
G36*
G01*
X155220000Y-77655000D02*
X155220000Y-78025000D01*
G75*
G02*
X155085000Y-78160000I-135000J0D01*
G01*
X154815000Y-78160000D01*
G75*
G02*
X154680000Y-78025000I0J135000D01*
G01*
X154680000Y-77655000D01*
G75*
G02*
X154815000Y-77520000I135000J0D01*
G01*
X155085000Y-77520000D01*
G75*
G02*
X155220000Y-77655000I0J-135000D01*
G01*
G37*
G36*
G01*
X156240000Y-77655000D02*
X156240000Y-78025000D01*
G75*
G02*
X156105000Y-78160000I-135000J0D01*
G01*
X155835000Y-78160000D01*
G75*
G02*
X155700000Y-78025000I0J135000D01*
G01*
X155700000Y-77655000D01*
G75*
G02*
X155835000Y-77520000I135000J0D01*
G01*
X156105000Y-77520000D01*
G75*
G02*
X156240000Y-77655000I0J-135000D01*
G01*
G37*
%TD*%
%TO.C,R19*%
G36*
G01*
X155220000Y-80925000D02*
X155220000Y-81295000D01*
G75*
G02*
X155085000Y-81430000I-135000J0D01*
G01*
X154815000Y-81430000D01*
G75*
G02*
X154680000Y-81295000I0J135000D01*
G01*
X154680000Y-80925000D01*
G75*
G02*
X154815000Y-80790000I135000J0D01*
G01*
X155085000Y-80790000D01*
G75*
G02*
X155220000Y-80925000I0J-135000D01*
G01*
G37*
G36*
G01*
X156240000Y-80925000D02*
X156240000Y-81295000D01*
G75*
G02*
X156105000Y-81430000I-135000J0D01*
G01*
X155835000Y-81430000D01*
G75*
G02*
X155700000Y-81295000I0J135000D01*
G01*
X155700000Y-80925000D01*
G75*
G02*
X155835000Y-80790000I135000J0D01*
G01*
X156105000Y-80790000D01*
G75*
G02*
X156240000Y-80925000I0J-135000D01*
G01*
G37*
%TD*%
%TO.C,R18*%
G36*
G01*
X155210000Y-79835000D02*
X155210000Y-80205000D01*
G75*
G02*
X155075000Y-80340000I-135000J0D01*
G01*
X154805000Y-80340000D01*
G75*
G02*
X154670000Y-80205000I0J135000D01*
G01*
X154670000Y-79835000D01*
G75*
G02*
X154805000Y-79700000I135000J0D01*
G01*
X155075000Y-79700000D01*
G75*
G02*
X155210000Y-79835000I0J-135000D01*
G01*
G37*
G36*
G01*
X156230000Y-79835000D02*
X156230000Y-80205000D01*
G75*
G02*
X156095000Y-80340000I-135000J0D01*
G01*
X155825000Y-80340000D01*
G75*
G02*
X155690000Y-80205000I0J135000D01*
G01*
X155690000Y-79835000D01*
G75*
G02*
X155825000Y-79700000I135000J0D01*
G01*
X156095000Y-79700000D01*
G75*
G02*
X156230000Y-79835000I0J-135000D01*
G01*
G37*
%TD*%
%TO.C,R17*%
G36*
G01*
X142420000Y-86165000D02*
X142420000Y-85795000D01*
G75*
G02*
X142555000Y-85660000I135000J0D01*
G01*
X142825000Y-85660000D01*
G75*
G02*
X142960000Y-85795000I0J-135000D01*
G01*
X142960000Y-86165000D01*
G75*
G02*
X142825000Y-86300000I-135000J0D01*
G01*
X142555000Y-86300000D01*
G75*
G02*
X142420000Y-86165000I0J135000D01*
G01*
G37*
G36*
G01*
X141400000Y-86165000D02*
X141400000Y-85795000D01*
G75*
G02*
X141535000Y-85660000I135000J0D01*
G01*
X141805000Y-85660000D01*
G75*
G02*
X141940000Y-85795000I0J-135000D01*
G01*
X141940000Y-86165000D01*
G75*
G02*
X141805000Y-86300000I-135000J0D01*
G01*
X141535000Y-86300000D01*
G75*
G02*
X141400000Y-86165000I0J135000D01*
G01*
G37*
%TD*%
%TO.C,R16*%
G36*
G01*
X155150000Y-87855000D02*
X155150000Y-88225000D01*
G75*
G02*
X155015000Y-88360000I-135000J0D01*
G01*
X154745000Y-88360000D01*
G75*
G02*
X154610000Y-88225000I0J135000D01*
G01*
X154610000Y-87855000D01*
G75*
G02*
X154745000Y-87720000I135000J0D01*
G01*
X155015000Y-87720000D01*
G75*
G02*
X155150000Y-87855000I0J-135000D01*
G01*
G37*
G36*
G01*
X156170000Y-87855000D02*
X156170000Y-88225000D01*
G75*
G02*
X156035000Y-88360000I-135000J0D01*
G01*
X155765000Y-88360000D01*
G75*
G02*
X155630000Y-88225000I0J135000D01*
G01*
X155630000Y-87855000D01*
G75*
G02*
X155765000Y-87720000I135000J0D01*
G01*
X156035000Y-87720000D01*
G75*
G02*
X156170000Y-87855000I0J-135000D01*
G01*
G37*
%TD*%
%TO.C,R15*%
G36*
G01*
X142450000Y-88315000D02*
X142450000Y-87945000D01*
G75*
G02*
X142585000Y-87810000I135000J0D01*
G01*
X142855000Y-87810000D01*
G75*
G02*
X142990000Y-87945000I0J-135000D01*
G01*
X142990000Y-88315000D01*
G75*
G02*
X142855000Y-88450000I-135000J0D01*
G01*
X142585000Y-88450000D01*
G75*
G02*
X142450000Y-88315000I0J135000D01*
G01*
G37*
G36*
G01*
X141430000Y-88315000D02*
X141430000Y-87945000D01*
G75*
G02*
X141565000Y-87810000I135000J0D01*
G01*
X141835000Y-87810000D01*
G75*
G02*
X141970000Y-87945000I0J-135000D01*
G01*
X141970000Y-88315000D01*
G75*
G02*
X141835000Y-88450000I-135000J0D01*
G01*
X141565000Y-88450000D01*
G75*
G02*
X141430000Y-88315000I0J135000D01*
G01*
G37*
%TD*%
%TO.C,R14*%
G36*
G01*
X155160000Y-86765000D02*
X155160000Y-87135000D01*
G75*
G02*
X155025000Y-87270000I-135000J0D01*
G01*
X154755000Y-87270000D01*
G75*
G02*
X154620000Y-87135000I0J135000D01*
G01*
X154620000Y-86765000D01*
G75*
G02*
X154755000Y-86630000I135000J0D01*
G01*
X155025000Y-86630000D01*
G75*
G02*
X155160000Y-86765000I0J-135000D01*
G01*
G37*
G36*
G01*
X156180000Y-86765000D02*
X156180000Y-87135000D01*
G75*
G02*
X156045000Y-87270000I-135000J0D01*
G01*
X155775000Y-87270000D01*
G75*
G02*
X155640000Y-87135000I0J135000D01*
G01*
X155640000Y-86765000D01*
G75*
G02*
X155775000Y-86630000I135000J0D01*
G01*
X156045000Y-86630000D01*
G75*
G02*
X156180000Y-86765000I0J-135000D01*
G01*
G37*
%TD*%
%TO.C,R13*%
G36*
G01*
X142420000Y-85075000D02*
X142420000Y-84705000D01*
G75*
G02*
X142555000Y-84570000I135000J0D01*
G01*
X142825000Y-84570000D01*
G75*
G02*
X142960000Y-84705000I0J-135000D01*
G01*
X142960000Y-85075000D01*
G75*
G02*
X142825000Y-85210000I-135000J0D01*
G01*
X142555000Y-85210000D01*
G75*
G02*
X142420000Y-85075000I0J135000D01*
G01*
G37*
G36*
G01*
X141400000Y-85075000D02*
X141400000Y-84705000D01*
G75*
G02*
X141535000Y-84570000I135000J0D01*
G01*
X141805000Y-84570000D01*
G75*
G02*
X141940000Y-84705000I0J-135000D01*
G01*
X141940000Y-85075000D01*
G75*
G02*
X141805000Y-85210000I-135000J0D01*
G01*
X141535000Y-85210000D01*
G75*
G02*
X141400000Y-85075000I0J135000D01*
G01*
G37*
%TD*%
%TO.C,R12*%
G36*
G01*
X155170000Y-85695000D02*
X155170000Y-86065000D01*
G75*
G02*
X155035000Y-86200000I-135000J0D01*
G01*
X154765000Y-86200000D01*
G75*
G02*
X154630000Y-86065000I0J135000D01*
G01*
X154630000Y-85695000D01*
G75*
G02*
X154765000Y-85560000I135000J0D01*
G01*
X155035000Y-85560000D01*
G75*
G02*
X155170000Y-85695000I0J-135000D01*
G01*
G37*
G36*
G01*
X156190000Y-85695000D02*
X156190000Y-86065000D01*
G75*
G02*
X156055000Y-86200000I-135000J0D01*
G01*
X155785000Y-86200000D01*
G75*
G02*
X155650000Y-86065000I0J135000D01*
G01*
X155650000Y-85695000D01*
G75*
G02*
X155785000Y-85560000I135000J0D01*
G01*
X156055000Y-85560000D01*
G75*
G02*
X156190000Y-85695000I0J-135000D01*
G01*
G37*
%TD*%
%TO.C,R11*%
G36*
G01*
X142430000Y-82935000D02*
X142430000Y-82565000D01*
G75*
G02*
X142565000Y-82430000I135000J0D01*
G01*
X142835000Y-82430000D01*
G75*
G02*
X142970000Y-82565000I0J-135000D01*
G01*
X142970000Y-82935000D01*
G75*
G02*
X142835000Y-83070000I-135000J0D01*
G01*
X142565000Y-83070000D01*
G75*
G02*
X142430000Y-82935000I0J135000D01*
G01*
G37*
G36*
G01*
X141410000Y-82935000D02*
X141410000Y-82565000D01*
G75*
G02*
X141545000Y-82430000I135000J0D01*
G01*
X141815000Y-82430000D01*
G75*
G02*
X141950000Y-82565000I0J-135000D01*
G01*
X141950000Y-82935000D01*
G75*
G02*
X141815000Y-83070000I-135000J0D01*
G01*
X141545000Y-83070000D01*
G75*
G02*
X141410000Y-82935000I0J135000D01*
G01*
G37*
%TD*%
%TO.C,R10*%
G36*
G01*
X142430000Y-83995000D02*
X142430000Y-83625000D01*
G75*
G02*
X142565000Y-83490000I135000J0D01*
G01*
X142835000Y-83490000D01*
G75*
G02*
X142970000Y-83625000I0J-135000D01*
G01*
X142970000Y-83995000D01*
G75*
G02*
X142835000Y-84130000I-135000J0D01*
G01*
X142565000Y-84130000D01*
G75*
G02*
X142430000Y-83995000I0J135000D01*
G01*
G37*
G36*
G01*
X141410000Y-83995000D02*
X141410000Y-83625000D01*
G75*
G02*
X141545000Y-83490000I135000J0D01*
G01*
X141815000Y-83490000D01*
G75*
G02*
X141950000Y-83625000I0J-135000D01*
G01*
X141950000Y-83995000D01*
G75*
G02*
X141815000Y-84130000I-135000J0D01*
G01*
X141545000Y-84130000D01*
G75*
G02*
X141410000Y-83995000I0J135000D01*
G01*
G37*
%TD*%
%TO.C,R9*%
G36*
G01*
X155220000Y-78765000D02*
X155220000Y-79135000D01*
G75*
G02*
X155085000Y-79270000I-135000J0D01*
G01*
X154815000Y-79270000D01*
G75*
G02*
X154680000Y-79135000I0J135000D01*
G01*
X154680000Y-78765000D01*
G75*
G02*
X154815000Y-78630000I135000J0D01*
G01*
X155085000Y-78630000D01*
G75*
G02*
X155220000Y-78765000I0J-135000D01*
G01*
G37*
G36*
G01*
X156240000Y-78765000D02*
X156240000Y-79135000D01*
G75*
G02*
X156105000Y-79270000I-135000J0D01*
G01*
X155835000Y-79270000D01*
G75*
G02*
X155700000Y-79135000I0J135000D01*
G01*
X155700000Y-78765000D01*
G75*
G02*
X155835000Y-78630000I135000J0D01*
G01*
X156105000Y-78630000D01*
G75*
G02*
X156240000Y-78765000I0J-135000D01*
G01*
G37*
%TD*%
%TO.C,R8*%
G36*
G01*
X142420000Y-81805000D02*
X142420000Y-81435000D01*
G75*
G02*
X142555000Y-81300000I135000J0D01*
G01*
X142825000Y-81300000D01*
G75*
G02*
X142960000Y-81435000I0J-135000D01*
G01*
X142960000Y-81805000D01*
G75*
G02*
X142825000Y-81940000I-135000J0D01*
G01*
X142555000Y-81940000D01*
G75*
G02*
X142420000Y-81805000I0J135000D01*
G01*
G37*
G36*
G01*
X141400000Y-81805000D02*
X141400000Y-81435000D01*
G75*
G02*
X141535000Y-81300000I135000J0D01*
G01*
X141805000Y-81300000D01*
G75*
G02*
X141940000Y-81435000I0J-135000D01*
G01*
X141940000Y-81805000D01*
G75*
G02*
X141805000Y-81940000I-135000J0D01*
G01*
X141535000Y-81940000D01*
G75*
G02*
X141400000Y-81805000I0J135000D01*
G01*
G37*
%TD*%
%TO.C,R7*%
G36*
G01*
X155350000Y-98575000D02*
X155350000Y-98205000D01*
G75*
G02*
X155485000Y-98070000I135000J0D01*
G01*
X155755000Y-98070000D01*
G75*
G02*
X155890000Y-98205000I0J-135000D01*
G01*
X155890000Y-98575000D01*
G75*
G02*
X155755000Y-98710000I-135000J0D01*
G01*
X155485000Y-98710000D01*
G75*
G02*
X155350000Y-98575000I0J135000D01*
G01*
G37*
G36*
G01*
X154330000Y-98575000D02*
X154330000Y-98205000D01*
G75*
G02*
X154465000Y-98070000I135000J0D01*
G01*
X154735000Y-98070000D01*
G75*
G02*
X154870000Y-98205000I0J-135000D01*
G01*
X154870000Y-98575000D01*
G75*
G02*
X154735000Y-98710000I-135000J0D01*
G01*
X154465000Y-98710000D01*
G75*
G02*
X154330000Y-98575000I0J135000D01*
G01*
G37*
%TD*%
%TO.C,R2*%
G36*
G01*
X157580000Y-99035000D02*
X157580000Y-98665000D01*
G75*
G02*
X157715000Y-98530000I135000J0D01*
G01*
X157985000Y-98530000D01*
G75*
G02*
X158120000Y-98665000I0J-135000D01*
G01*
X158120000Y-99035000D01*
G75*
G02*
X157985000Y-99170000I-135000J0D01*
G01*
X157715000Y-99170000D01*
G75*
G02*
X157580000Y-99035000I0J135000D01*
G01*
G37*
G36*
G01*
X156560000Y-99035000D02*
X156560000Y-98665000D01*
G75*
G02*
X156695000Y-98530000I135000J0D01*
G01*
X156965000Y-98530000D01*
G75*
G02*
X157100000Y-98665000I0J-135000D01*
G01*
X157100000Y-99035000D01*
G75*
G02*
X156965000Y-99170000I-135000J0D01*
G01*
X156695000Y-99170000D01*
G75*
G02*
X156560000Y-99035000I0J135000D01*
G01*
G37*
%TD*%
%TO.C,C42*%
G36*
G01*
X132600000Y-95690000D02*
X132260000Y-95690000D01*
G75*
G02*
X132120000Y-95550000I0J140000D01*
G01*
X132120000Y-95270000D01*
G75*
G02*
X132260000Y-95130000I140000J0D01*
G01*
X132600000Y-95130000D01*
G75*
G02*
X132740000Y-95270000I0J-140000D01*
G01*
X132740000Y-95550000D01*
G75*
G02*
X132600000Y-95690000I-140000J0D01*
G01*
G37*
G36*
G01*
X132600000Y-96650000D02*
X132260000Y-96650000D01*
G75*
G02*
X132120000Y-96510000I0J140000D01*
G01*
X132120000Y-96230000D01*
G75*
G02*
X132260000Y-96090000I140000J0D01*
G01*
X132600000Y-96090000D01*
G75*
G02*
X132740000Y-96230000I0J-140000D01*
G01*
X132740000Y-96510000D01*
G75*
G02*
X132600000Y-96650000I-140000J0D01*
G01*
G37*
%TD*%
%TO.C,C38*%
G36*
G01*
X125530000Y-96030000D02*
X125870000Y-96030000D01*
G75*
G02*
X126010000Y-96170000I0J-140000D01*
G01*
X126010000Y-96450000D01*
G75*
G02*
X125870000Y-96590000I-140000J0D01*
G01*
X125530000Y-96590000D01*
G75*
G02*
X125390000Y-96450000I0J140000D01*
G01*
X125390000Y-96170000D01*
G75*
G02*
X125530000Y-96030000I140000J0D01*
G01*
G37*
G36*
G01*
X125530000Y-95070000D02*
X125870000Y-95070000D01*
G75*
G02*
X126010000Y-95210000I0J-140000D01*
G01*
X126010000Y-95490000D01*
G75*
G02*
X125870000Y-95630000I-140000J0D01*
G01*
X125530000Y-95630000D01*
G75*
G02*
X125390000Y-95490000I0J140000D01*
G01*
X125390000Y-95210000D01*
G75*
G02*
X125530000Y-95070000I140000J0D01*
G01*
G37*
%TD*%
%TO.C,C22*%
G36*
G01*
X139860000Y-76640000D02*
X139860000Y-76980000D01*
G75*
G02*
X139720000Y-77120000I-140000J0D01*
G01*
X139440000Y-77120000D01*
G75*
G02*
X139300000Y-76980000I0J140000D01*
G01*
X139300000Y-76640000D01*
G75*
G02*
X139440000Y-76500000I140000J0D01*
G01*
X139720000Y-76500000D01*
G75*
G02*
X139860000Y-76640000I0J-140000D01*
G01*
G37*
G36*
G01*
X140820000Y-76640000D02*
X140820000Y-76980000D01*
G75*
G02*
X140680000Y-77120000I-140000J0D01*
G01*
X140400000Y-77120000D01*
G75*
G02*
X140260000Y-76980000I0J140000D01*
G01*
X140260000Y-76640000D01*
G75*
G02*
X140400000Y-76500000I140000J0D01*
G01*
X140680000Y-76500000D01*
G75*
G02*
X140820000Y-76640000I0J-140000D01*
G01*
G37*
%TD*%
%TO.C,C21*%
G36*
G01*
X157730000Y-76610000D02*
X157730000Y-76270000D01*
G75*
G02*
X157870000Y-76130000I140000J0D01*
G01*
X158150000Y-76130000D01*
G75*
G02*
X158290000Y-76270000I0J-140000D01*
G01*
X158290000Y-76610000D01*
G75*
G02*
X158150000Y-76750000I-140000J0D01*
G01*
X157870000Y-76750000D01*
G75*
G02*
X157730000Y-76610000I0J140000D01*
G01*
G37*
G36*
G01*
X156770000Y-76610000D02*
X156770000Y-76270000D01*
G75*
G02*
X156910000Y-76130000I140000J0D01*
G01*
X157190000Y-76130000D01*
G75*
G02*
X157330000Y-76270000I0J-140000D01*
G01*
X157330000Y-76610000D01*
G75*
G02*
X157190000Y-76750000I-140000J0D01*
G01*
X156910000Y-76750000D01*
G75*
G02*
X156770000Y-76610000I0J140000D01*
G01*
G37*
%TD*%
%TO.C,C20*%
G36*
G01*
X157630000Y-88210000D02*
X157630000Y-87870000D01*
G75*
G02*
X157770000Y-87730000I140000J0D01*
G01*
X158050000Y-87730000D01*
G75*
G02*
X158190000Y-87870000I0J-140000D01*
G01*
X158190000Y-88210000D01*
G75*
G02*
X158050000Y-88350000I-140000J0D01*
G01*
X157770000Y-88350000D01*
G75*
G02*
X157630000Y-88210000I0J140000D01*
G01*
G37*
G36*
G01*
X156670000Y-88210000D02*
X156670000Y-87870000D01*
G75*
G02*
X156810000Y-87730000I140000J0D01*
G01*
X157090000Y-87730000D01*
G75*
G02*
X157230000Y-87870000I0J-140000D01*
G01*
X157230000Y-88210000D01*
G75*
G02*
X157090000Y-88350000I-140000J0D01*
G01*
X156810000Y-88350000D01*
G75*
G02*
X156670000Y-88210000I0J140000D01*
G01*
G37*
%TD*%
%TO.C,C19*%
G36*
G01*
X157660000Y-85470000D02*
X157660000Y-85130000D01*
G75*
G02*
X157800000Y-84990000I140000J0D01*
G01*
X158080000Y-84990000D01*
G75*
G02*
X158220000Y-85130000I0J-140000D01*
G01*
X158220000Y-85470000D01*
G75*
G02*
X158080000Y-85610000I-140000J0D01*
G01*
X157800000Y-85610000D01*
G75*
G02*
X157660000Y-85470000I0J140000D01*
G01*
G37*
G36*
G01*
X156700000Y-85470000D02*
X156700000Y-85130000D01*
G75*
G02*
X156840000Y-84990000I140000J0D01*
G01*
X157120000Y-84990000D01*
G75*
G02*
X157260000Y-85130000I0J-140000D01*
G01*
X157260000Y-85470000D01*
G75*
G02*
X157120000Y-85610000I-140000J0D01*
G01*
X156840000Y-85610000D01*
G75*
G02*
X156700000Y-85470000I0J140000D01*
G01*
G37*
%TD*%
%TO.C,C18*%
G36*
G01*
X157670000Y-82810000D02*
X157670000Y-82470000D01*
G75*
G02*
X157810000Y-82330000I140000J0D01*
G01*
X158090000Y-82330000D01*
G75*
G02*
X158230000Y-82470000I0J-140000D01*
G01*
X158230000Y-82810000D01*
G75*
G02*
X158090000Y-82950000I-140000J0D01*
G01*
X157810000Y-82950000D01*
G75*
G02*
X157670000Y-82810000I0J140000D01*
G01*
G37*
G36*
G01*
X156710000Y-82810000D02*
X156710000Y-82470000D01*
G75*
G02*
X156850000Y-82330000I140000J0D01*
G01*
X157130000Y-82330000D01*
G75*
G02*
X157270000Y-82470000I0J-140000D01*
G01*
X157270000Y-82810000D01*
G75*
G02*
X157130000Y-82950000I-140000J0D01*
G01*
X156850000Y-82950000D01*
G75*
G02*
X156710000Y-82810000I0J140000D01*
G01*
G37*
%TD*%
%TO.C,C17*%
G36*
G01*
X157690000Y-80650000D02*
X157690000Y-80310000D01*
G75*
G02*
X157830000Y-80170000I140000J0D01*
G01*
X158110000Y-80170000D01*
G75*
G02*
X158250000Y-80310000I0J-140000D01*
G01*
X158250000Y-80650000D01*
G75*
G02*
X158110000Y-80790000I-140000J0D01*
G01*
X157830000Y-80790000D01*
G75*
G02*
X157690000Y-80650000I0J140000D01*
G01*
G37*
G36*
G01*
X156730000Y-80650000D02*
X156730000Y-80310000D01*
G75*
G02*
X156870000Y-80170000I140000J0D01*
G01*
X157150000Y-80170000D01*
G75*
G02*
X157290000Y-80310000I0J-140000D01*
G01*
X157290000Y-80650000D01*
G75*
G02*
X157150000Y-80790000I-140000J0D01*
G01*
X156870000Y-80790000D01*
G75*
G02*
X156730000Y-80650000I0J140000D01*
G01*
G37*
%TD*%
%TO.C,C16*%
G36*
G01*
X157690000Y-78520000D02*
X157690000Y-78180000D01*
G75*
G02*
X157830000Y-78040000I140000J0D01*
G01*
X158110000Y-78040000D01*
G75*
G02*
X158250000Y-78180000I0J-140000D01*
G01*
X158250000Y-78520000D01*
G75*
G02*
X158110000Y-78660000I-140000J0D01*
G01*
X157830000Y-78660000D01*
G75*
G02*
X157690000Y-78520000I0J140000D01*
G01*
G37*
G36*
G01*
X156730000Y-78520000D02*
X156730000Y-78180000D01*
G75*
G02*
X156870000Y-78040000I140000J0D01*
G01*
X157150000Y-78040000D01*
G75*
G02*
X157290000Y-78180000I0J-140000D01*
G01*
X157290000Y-78520000D01*
G75*
G02*
X157150000Y-78660000I-140000J0D01*
G01*
X156870000Y-78660000D01*
G75*
G02*
X156730000Y-78520000I0J140000D01*
G01*
G37*
%TD*%
%TO.C,C15*%
G36*
G01*
X139860000Y-75550000D02*
X139860000Y-75890000D01*
G75*
G02*
X139720000Y-76030000I-140000J0D01*
G01*
X139440000Y-76030000D01*
G75*
G02*
X139300000Y-75890000I0J140000D01*
G01*
X139300000Y-75550000D01*
G75*
G02*
X139440000Y-75410000I140000J0D01*
G01*
X139720000Y-75410000D01*
G75*
G02*
X139860000Y-75550000I0J-140000D01*
G01*
G37*
G36*
G01*
X140820000Y-75550000D02*
X140820000Y-75890000D01*
G75*
G02*
X140680000Y-76030000I-140000J0D01*
G01*
X140400000Y-76030000D01*
G75*
G02*
X140260000Y-75890000I0J140000D01*
G01*
X140260000Y-75550000D01*
G75*
G02*
X140400000Y-75410000I140000J0D01*
G01*
X140680000Y-75410000D01*
G75*
G02*
X140820000Y-75550000I0J-140000D01*
G01*
G37*
%TD*%
%TO.C,C14*%
G36*
G01*
X139950000Y-78720000D02*
X139950000Y-79060000D01*
G75*
G02*
X139810000Y-79200000I-140000J0D01*
G01*
X139530000Y-79200000D01*
G75*
G02*
X139390000Y-79060000I0J140000D01*
G01*
X139390000Y-78720000D01*
G75*
G02*
X139530000Y-78580000I140000J0D01*
G01*
X139810000Y-78580000D01*
G75*
G02*
X139950000Y-78720000I0J-140000D01*
G01*
G37*
G36*
G01*
X140910000Y-78720000D02*
X140910000Y-79060000D01*
G75*
G02*
X140770000Y-79200000I-140000J0D01*
G01*
X140490000Y-79200000D01*
G75*
G02*
X140350000Y-79060000I0J140000D01*
G01*
X140350000Y-78720000D01*
G75*
G02*
X140490000Y-78580000I140000J0D01*
G01*
X140770000Y-78580000D01*
G75*
G02*
X140910000Y-78720000I0J-140000D01*
G01*
G37*
%TD*%
%TO.C,C13*%
G36*
G01*
X139950000Y-80880000D02*
X139950000Y-81220000D01*
G75*
G02*
X139810000Y-81360000I-140000J0D01*
G01*
X139530000Y-81360000D01*
G75*
G02*
X139390000Y-81220000I0J140000D01*
G01*
X139390000Y-80880000D01*
G75*
G02*
X139530000Y-80740000I140000J0D01*
G01*
X139810000Y-80740000D01*
G75*
G02*
X139950000Y-80880000I0J-140000D01*
G01*
G37*
G36*
G01*
X140910000Y-80880000D02*
X140910000Y-81220000D01*
G75*
G02*
X140770000Y-81360000I-140000J0D01*
G01*
X140490000Y-81360000D01*
G75*
G02*
X140350000Y-81220000I0J140000D01*
G01*
X140350000Y-80880000D01*
G75*
G02*
X140490000Y-80740000I140000J0D01*
G01*
X140770000Y-80740000D01*
G75*
G02*
X140910000Y-80880000I0J-140000D01*
G01*
G37*
%TD*%
%TO.C,C12*%
G36*
G01*
X139960000Y-83120000D02*
X139960000Y-83460000D01*
G75*
G02*
X139820000Y-83600000I-140000J0D01*
G01*
X139540000Y-83600000D01*
G75*
G02*
X139400000Y-83460000I0J140000D01*
G01*
X139400000Y-83120000D01*
G75*
G02*
X139540000Y-82980000I140000J0D01*
G01*
X139820000Y-82980000D01*
G75*
G02*
X139960000Y-83120000I0J-140000D01*
G01*
G37*
G36*
G01*
X140920000Y-83120000D02*
X140920000Y-83460000D01*
G75*
G02*
X140780000Y-83600000I-140000J0D01*
G01*
X140500000Y-83600000D01*
G75*
G02*
X140360000Y-83460000I0J140000D01*
G01*
X140360000Y-83120000D01*
G75*
G02*
X140500000Y-82980000I140000J0D01*
G01*
X140780000Y-82980000D01*
G75*
G02*
X140920000Y-83120000I0J-140000D01*
G01*
G37*
%TD*%
%TO.C,C11*%
G36*
G01*
X139960000Y-85360000D02*
X139960000Y-85700000D01*
G75*
G02*
X139820000Y-85840000I-140000J0D01*
G01*
X139540000Y-85840000D01*
G75*
G02*
X139400000Y-85700000I0J140000D01*
G01*
X139400000Y-85360000D01*
G75*
G02*
X139540000Y-85220000I140000J0D01*
G01*
X139820000Y-85220000D01*
G75*
G02*
X139960000Y-85360000I0J-140000D01*
G01*
G37*
G36*
G01*
X140920000Y-85360000D02*
X140920000Y-85700000D01*
G75*
G02*
X140780000Y-85840000I-140000J0D01*
G01*
X140500000Y-85840000D01*
G75*
G02*
X140360000Y-85700000I0J140000D01*
G01*
X140360000Y-85360000D01*
G75*
G02*
X140500000Y-85220000I140000J0D01*
G01*
X140780000Y-85220000D01*
G75*
G02*
X140920000Y-85360000I0J-140000D01*
G01*
G37*
%TD*%
%TO.C,C10*%
G36*
G01*
X139980000Y-87430000D02*
X139980000Y-87770000D01*
G75*
G02*
X139840000Y-87910000I-140000J0D01*
G01*
X139560000Y-87910000D01*
G75*
G02*
X139420000Y-87770000I0J140000D01*
G01*
X139420000Y-87430000D01*
G75*
G02*
X139560000Y-87290000I140000J0D01*
G01*
X139840000Y-87290000D01*
G75*
G02*
X139980000Y-87430000I0J-140000D01*
G01*
G37*
G36*
G01*
X140940000Y-87430000D02*
X140940000Y-87770000D01*
G75*
G02*
X140800000Y-87910000I-140000J0D01*
G01*
X140520000Y-87910000D01*
G75*
G02*
X140380000Y-87770000I0J140000D01*
G01*
X140380000Y-87430000D01*
G75*
G02*
X140520000Y-87290000I140000J0D01*
G01*
X140800000Y-87290000D01*
G75*
G02*
X140940000Y-87430000I0J-140000D01*
G01*
G37*
%TD*%
%TO.C,C9*%
G36*
G01*
X157730000Y-75390000D02*
X157730000Y-75050000D01*
G75*
G02*
X157870000Y-74910000I140000J0D01*
G01*
X158150000Y-74910000D01*
G75*
G02*
X158290000Y-75050000I0J-140000D01*
G01*
X158290000Y-75390000D01*
G75*
G02*
X158150000Y-75530000I-140000J0D01*
G01*
X157870000Y-75530000D01*
G75*
G02*
X157730000Y-75390000I0J140000D01*
G01*
G37*
G36*
G01*
X156770000Y-75390000D02*
X156770000Y-75050000D01*
G75*
G02*
X156910000Y-74910000I140000J0D01*
G01*
X157190000Y-74910000D01*
G75*
G02*
X157330000Y-75050000I0J-140000D01*
G01*
X157330000Y-75390000D01*
G75*
G02*
X157190000Y-75530000I-140000J0D01*
G01*
X156910000Y-75530000D01*
G75*
G02*
X156770000Y-75390000I0J140000D01*
G01*
G37*
%TD*%
%TO.C,C7*%
G36*
G01*
X148630000Y-106120000D02*
X148630000Y-105780000D01*
G75*
G02*
X148770000Y-105640000I140000J0D01*
G01*
X149050000Y-105640000D01*
G75*
G02*
X149190000Y-105780000I0J-140000D01*
G01*
X149190000Y-106120000D01*
G75*
G02*
X149050000Y-106260000I-140000J0D01*
G01*
X148770000Y-106260000D01*
G75*
G02*
X148630000Y-106120000I0J140000D01*
G01*
G37*
G36*
G01*
X147670000Y-106120000D02*
X147670000Y-105780000D01*
G75*
G02*
X147810000Y-105640000I140000J0D01*
G01*
X148090000Y-105640000D01*
G75*
G02*
X148230000Y-105780000I0J-140000D01*
G01*
X148230000Y-106120000D01*
G75*
G02*
X148090000Y-106260000I-140000J0D01*
G01*
X147810000Y-106260000D01*
G75*
G02*
X147670000Y-106120000I0J140000D01*
G01*
G37*
%TD*%
%TO.C,C6*%
G36*
G01*
X155330000Y-99640000D02*
X155330000Y-99300000D01*
G75*
G02*
X155470000Y-99160000I140000J0D01*
G01*
X155750000Y-99160000D01*
G75*
G02*
X155890000Y-99300000I0J-140000D01*
G01*
X155890000Y-99640000D01*
G75*
G02*
X155750000Y-99780000I-140000J0D01*
G01*
X155470000Y-99780000D01*
G75*
G02*
X155330000Y-99640000I0J140000D01*
G01*
G37*
G36*
G01*
X154370000Y-99640000D02*
X154370000Y-99300000D01*
G75*
G02*
X154510000Y-99160000I140000J0D01*
G01*
X154790000Y-99160000D01*
G75*
G02*
X154930000Y-99300000I0J-140000D01*
G01*
X154930000Y-99640000D01*
G75*
G02*
X154790000Y-99780000I-140000J0D01*
G01*
X154510000Y-99780000D01*
G75*
G02*
X154370000Y-99640000I0J140000D01*
G01*
G37*
%TD*%
%TO.C,C5*%
G36*
G01*
X138830000Y-97880000D02*
X138830000Y-97540000D01*
G75*
G02*
X138970000Y-97400000I140000J0D01*
G01*
X139250000Y-97400000D01*
G75*
G02*
X139390000Y-97540000I0J-140000D01*
G01*
X139390000Y-97880000D01*
G75*
G02*
X139250000Y-98020000I-140000J0D01*
G01*
X138970000Y-98020000D01*
G75*
G02*
X138830000Y-97880000I0J140000D01*
G01*
G37*
G36*
G01*
X137870000Y-97880000D02*
X137870000Y-97540000D01*
G75*
G02*
X138010000Y-97400000I140000J0D01*
G01*
X138290000Y-97400000D01*
G75*
G02*
X138430000Y-97540000I0J-140000D01*
G01*
X138430000Y-97880000D01*
G75*
G02*
X138290000Y-98020000I-140000J0D01*
G01*
X138010000Y-98020000D01*
G75*
G02*
X137870000Y-97880000I0J140000D01*
G01*
G37*
%TD*%
%TO.C,C3*%
G36*
G01*
X151610000Y-99870000D02*
X151950000Y-99870000D01*
G75*
G02*
X152090000Y-100010000I0J-140000D01*
G01*
X152090000Y-100290000D01*
G75*
G02*
X151950000Y-100430000I-140000J0D01*
G01*
X151610000Y-100430000D01*
G75*
G02*
X151470000Y-100290000I0J140000D01*
G01*
X151470000Y-100010000D01*
G75*
G02*
X151610000Y-99870000I140000J0D01*
G01*
G37*
G36*
G01*
X151610000Y-98910000D02*
X151950000Y-98910000D01*
G75*
G02*
X152090000Y-99050000I0J-140000D01*
G01*
X152090000Y-99330000D01*
G75*
G02*
X151950000Y-99470000I-140000J0D01*
G01*
X151610000Y-99470000D01*
G75*
G02*
X151470000Y-99330000I0J140000D01*
G01*
X151470000Y-99050000D01*
G75*
G02*
X151610000Y-98910000I140000J0D01*
G01*
G37*
%TD*%
%TO.C,C2*%
G36*
G01*
X138430000Y-98570000D02*
X138430000Y-98910000D01*
G75*
G02*
X138290000Y-99050000I-140000J0D01*
G01*
X138010000Y-99050000D01*
G75*
G02*
X137870000Y-98910000I0J140000D01*
G01*
X137870000Y-98570000D01*
G75*
G02*
X138010000Y-98430000I140000J0D01*
G01*
X138290000Y-98430000D01*
G75*
G02*
X138430000Y-98570000I0J-140000D01*
G01*
G37*
G36*
G01*
X139390000Y-98570000D02*
X139390000Y-98910000D01*
G75*
G02*
X139250000Y-99050000I-140000J0D01*
G01*
X138970000Y-99050000D01*
G75*
G02*
X138830000Y-98910000I0J140000D01*
G01*
X138830000Y-98570000D01*
G75*
G02*
X138970000Y-98430000I140000J0D01*
G01*
X139250000Y-98430000D01*
G75*
G02*
X139390000Y-98570000I0J-140000D01*
G01*
G37*
%TD*%
%TO.C,C1*%
G36*
G01*
X155320000Y-101710000D02*
X155320000Y-101370000D01*
G75*
G02*
X155460000Y-101230000I140000J0D01*
G01*
X155740000Y-101230000D01*
G75*
G02*
X155880000Y-101370000I0J-140000D01*
G01*
X155880000Y-101710000D01*
G75*
G02*
X155740000Y-101850000I-140000J0D01*
G01*
X155460000Y-101850000D01*
G75*
G02*
X155320000Y-101710000I0J140000D01*
G01*
G37*
G36*
G01*
X154360000Y-101710000D02*
X154360000Y-101370000D01*
G75*
G02*
X154500000Y-101230000I140000J0D01*
G01*
X154780000Y-101230000D01*
G75*
G02*
X154920000Y-101370000I0J-140000D01*
G01*
X154920000Y-101710000D01*
G75*
G02*
X154780000Y-101850000I-140000J0D01*
G01*
X154500000Y-101850000D01*
G75*
G02*
X154360000Y-101710000I0J140000D01*
G01*
G37*
%TD*%
M02*
