%TF.GenerationSoftware,KiCad,Pcbnew,5.1.10-88a1d61d58~88~ubuntu20.04.1*%
%TF.CreationDate,2021-06-10T18:40:27+05:30*%
%TF.ProjectId,LB1A_DCA7M4_R512MB_F4GB,4c423141-5f44-4434-9137-4d345f523531,1.0.0*%
%TF.SameCoordinates,Original*%
%TF.FileFunction,Legend,Bot*%
%TF.FilePolarity,Positive*%
%FSLAX46Y46*%
G04 Gerber Fmt 4.6, Leading zero omitted, Abs format (unit mm)*
G04 Created by KiCad (PCBNEW 5.1.10-88a1d61d58~88~ubuntu20.04.1) date 2021-06-10 18:40:27*
%MOMM*%
%LPD*%
G01*
G04 APERTURE LIST*
%ADD10C,0.304800*%
%ADD11C,0.120000*%
%ADD12C,0.100000*%
G04 APERTURE END LIST*
D10*
X122841421Y-67800000D02*
G75*
G03*
X122841421Y-67800000I-141421J0D01*
G01*
X159341421Y-97400000D02*
G75*
G03*
X159341421Y-97400000I-141421J0D01*
G01*
X116641421Y-97400000D02*
G75*
G03*
X116641421Y-97400000I-141421J0D01*
G01*
D11*
X157500000Y-102800000D02*
X157700000Y-102600000D01*
X157500000Y-102800000D02*
X157300000Y-102600000D01*
X157500000Y-101600000D02*
X157500000Y-102800000D01*
X156300000Y-101600000D02*
X157500000Y-101600000D01*
X156500000Y-108100000D02*
X156500000Y-102900000D01*
X156600000Y-108100000D02*
X156500000Y-108100000D01*
X158600000Y-108100000D02*
X156600000Y-108100000D01*
X158600000Y-102900000D02*
X158600000Y-108100000D01*
X156500000Y-102900000D02*
X158600000Y-102900000D01*
X156200000Y-97800000D02*
X154000000Y-97800000D01*
X156200000Y-102200000D02*
X156200000Y-97800000D01*
X154000000Y-102200000D02*
X156200000Y-102200000D01*
X154000000Y-97800000D02*
X154000000Y-102200000D01*
X139500000Y-104500000D02*
X139800000Y-104800000D01*
X139500000Y-104500000D02*
X139800000Y-104200000D01*
X142400000Y-104500000D02*
X139500000Y-104500000D01*
X139400000Y-111900000D02*
X139400000Y-103000000D01*
X139000000Y-111900000D02*
X139400000Y-111900000D01*
X136700000Y-111900000D02*
X139000000Y-111900000D01*
X131000000Y-111900000D02*
X136700000Y-111900000D01*
X126900000Y-111900000D02*
X131000000Y-111900000D01*
X126900000Y-103000000D02*
X126900000Y-111900000D01*
X139400000Y-103000000D02*
X126900000Y-103000000D01*
X152100000Y-98500000D02*
X152500000Y-98500000D01*
X142500000Y-98500000D02*
X152100000Y-98500000D01*
X142500000Y-99400000D02*
X142500000Y-98500000D01*
X142500000Y-106600000D02*
X142500000Y-99400000D01*
X152500000Y-106600000D02*
X142500000Y-106600000D01*
X152500000Y-98500000D02*
X152500000Y-106600000D01*
X156400000Y-84200000D02*
X156500000Y-84200000D01*
X154400000Y-85400000D02*
X156400000Y-85400000D01*
X154400000Y-85300000D02*
X154400000Y-85400000D01*
X154400000Y-85200000D02*
X154400000Y-85300000D01*
X153200000Y-85200000D02*
X154400000Y-85200000D01*
X153200000Y-84900000D02*
X153200000Y-85200000D01*
X156200000Y-90800000D02*
X156300000Y-90700000D01*
X156000000Y-91000000D02*
X156300000Y-91300000D01*
X156000000Y-91000000D02*
X156200000Y-90800000D01*
X157500000Y-91000000D02*
X156000000Y-91000000D01*
X157500000Y-88900000D02*
X157500000Y-91000000D01*
X156500000Y-82100000D02*
X156500000Y-82700000D01*
X156400000Y-84600000D02*
X156400000Y-84200000D01*
X156400000Y-88700000D02*
X156400000Y-84600000D01*
X158500000Y-88700000D02*
X156400000Y-88700000D01*
X158500000Y-82100000D02*
X158500000Y-88700000D01*
X156500000Y-82100000D02*
X158500000Y-82100000D01*
X152900000Y-93700000D02*
X152900000Y-93600000D01*
X155900000Y-93700000D02*
X152900000Y-93700000D01*
X155900000Y-89700000D02*
X155900000Y-93700000D01*
X152900000Y-89700000D02*
X155900000Y-89700000D01*
X152900000Y-93600000D02*
X152900000Y-89700000D01*
X151600000Y-84000000D02*
X151800000Y-84200000D01*
X151600000Y-84000000D02*
X151800000Y-83800000D01*
X153100000Y-84000000D02*
X151600000Y-84000000D01*
X156500000Y-84200000D02*
X156500000Y-82700000D01*
X153200000Y-84800000D02*
X153200000Y-84900000D01*
X153200000Y-82700000D02*
X153200000Y-84800000D01*
X154700000Y-82700000D02*
X153200000Y-82700000D01*
X156500000Y-82700000D02*
X154700000Y-82700000D01*
X147400000Y-83100000D02*
X147400000Y-86200000D01*
X151500000Y-83100000D02*
X147400000Y-83100000D01*
X151500000Y-86200000D02*
X151500000Y-83100000D01*
X147400000Y-86200000D02*
X151500000Y-86200000D01*
D12*
%TO.C,U7*%
X160560000Y-82770000D02*
X162160000Y-82810000D01*
X160560000Y-98330000D02*
X162160000Y-98330000D01*
%TO.C,U6*%
X137850000Y-69140000D02*
X137810000Y-70740000D01*
X122290000Y-69140000D02*
X122290000Y-70740000D01*
D11*
%TO.C,C4*%
X155012164Y-100170000D02*
X155227836Y-100170000D01*
X155012164Y-100890000D02*
X155227836Y-100890000D01*
%TO.C,C76*%
X151140000Y-112347836D02*
X151140000Y-112132164D01*
X151860000Y-112347836D02*
X151860000Y-112132164D01*
%TO.C,C75*%
X146600000Y-110777836D02*
X146600000Y-110562164D01*
X145880000Y-110777836D02*
X145880000Y-110562164D01*
%TO.C,C74*%
X149517836Y-100380000D02*
X149302164Y-100380000D01*
X149517836Y-99660000D02*
X149302164Y-99660000D01*
%TO.C,C73*%
X147417836Y-100390000D02*
X147202164Y-100390000D01*
X147417836Y-99670000D02*
X147202164Y-99670000D01*
%TO.C,C72*%
X145337836Y-100390000D02*
X145122164Y-100390000D01*
X145337836Y-99670000D02*
X145122164Y-99670000D01*
%TO.C,C70*%
X150492164Y-104320000D02*
X150707836Y-104320000D01*
X150492164Y-105040000D02*
X150707836Y-105040000D01*
%TO.C,C69*%
X150492164Y-103240000D02*
X150707836Y-103240000D01*
X150492164Y-103960000D02*
X150707836Y-103960000D01*
%TO.C,C68*%
X150512164Y-102170000D02*
X150727836Y-102170000D01*
X150512164Y-102890000D02*
X150727836Y-102890000D01*
%TO.C,C67*%
X150532164Y-101100000D02*
X150747836Y-101100000D01*
X150532164Y-101820000D02*
X150747836Y-101820000D01*
%TO.C,C66*%
X146980000Y-105032164D02*
X146980000Y-105247836D01*
X146260000Y-105032164D02*
X146260000Y-105247836D01*
%TO.C,C65*%
X145880000Y-105032164D02*
X145880000Y-105247836D01*
X145160000Y-105032164D02*
X145160000Y-105247836D01*
%TO.C,C64*%
X143727836Y-103800000D02*
X143512164Y-103800000D01*
X143727836Y-103080000D02*
X143512164Y-103080000D01*
%TO.C,C63*%
X143717836Y-101920000D02*
X143502164Y-101920000D01*
X143717836Y-102640000D02*
X143502164Y-102640000D01*
%TO.C,X2*%
X150820000Y-109390000D02*
X150670000Y-109390000D01*
X150820000Y-112390000D02*
X150820000Y-109390000D01*
X150770000Y-112390000D02*
X150820000Y-112390000D01*
X150620000Y-112390000D02*
X150770000Y-112390000D01*
X146970000Y-112390000D02*
X150620000Y-112390000D01*
X146970000Y-109390000D02*
X146970000Y-112390000D01*
X150670000Y-109390000D02*
X146970000Y-109390000D01*
D12*
%TO.C,U5*%
X117790000Y-82770000D02*
X119390000Y-82810000D01*
X117790000Y-98330000D02*
X119390000Y-98330000D01*
D11*
%TO.C,R45*%
X128180000Y-95676359D02*
X128180000Y-95983641D01*
X127420000Y-95676359D02*
X127420000Y-95983641D01*
%TO.C,R44*%
X127120000Y-95696359D02*
X127120000Y-96003641D01*
X126360000Y-95696359D02*
X126360000Y-96003641D01*
%TO.C,R42*%
X130720000Y-95716359D02*
X130720000Y-96023641D01*
X129960000Y-95716359D02*
X129960000Y-96023641D01*
%TO.C,R41*%
X131780000Y-95726359D02*
X131780000Y-96033641D01*
X131020000Y-95726359D02*
X131020000Y-96033641D01*
%TO.C,R35*%
X153430000Y-83953641D02*
X153430000Y-83646359D01*
X154190000Y-83953641D02*
X154190000Y-83646359D01*
%TO.C,R33*%
X147460000Y-75106359D02*
X147460000Y-75413641D01*
X146700000Y-75106359D02*
X146700000Y-75413641D01*
%TO.C,R32*%
X145650000Y-75413641D02*
X145650000Y-75106359D01*
X146410000Y-75413641D02*
X146410000Y-75106359D01*
%TO.C,R31*%
X142016359Y-77970000D02*
X142323641Y-77970000D01*
X142016359Y-78730000D02*
X142323641Y-78730000D01*
%TO.C,R30*%
X144580000Y-75403641D02*
X144580000Y-75096359D01*
X145340000Y-75403641D02*
X145340000Y-75096359D01*
%TO.C,R29*%
X148540000Y-75106359D02*
X148540000Y-75413641D01*
X147780000Y-75106359D02*
X147780000Y-75413641D01*
%TO.C,R28*%
X155286359Y-82890000D02*
X155593641Y-82890000D01*
X155286359Y-83650000D02*
X155593641Y-83650000D01*
%TO.C,R26*%
X149686359Y-79800000D02*
X149993641Y-79800000D01*
X149686359Y-80560000D02*
X149993641Y-80560000D01*
%TO.C,R25*%
X142016359Y-79090000D02*
X142323641Y-79090000D01*
X142016359Y-79850000D02*
X142323641Y-79850000D01*
%TO.C,R24*%
X155573641Y-85180000D02*
X155266359Y-85180000D01*
X155573641Y-84420000D02*
X155266359Y-84420000D01*
%TO.C,R23*%
X142026359Y-80170000D02*
X142333641Y-80170000D01*
X142026359Y-80930000D02*
X142333641Y-80930000D01*
%TO.C,R22*%
X155603641Y-82560000D02*
X155296359Y-82560000D01*
X155603641Y-81800000D02*
X155296359Y-81800000D01*
%TO.C,R21*%
X142036359Y-86680000D02*
X142343641Y-86680000D01*
X142036359Y-87440000D02*
X142343641Y-87440000D01*
%TO.C,R20*%
X155613641Y-78220000D02*
X155306359Y-78220000D01*
X155613641Y-77460000D02*
X155306359Y-77460000D01*
%TO.C,R19*%
X155613641Y-81490000D02*
X155306359Y-81490000D01*
X155613641Y-80730000D02*
X155306359Y-80730000D01*
%TO.C,R18*%
X155603641Y-80400000D02*
X155296359Y-80400000D01*
X155603641Y-79640000D02*
X155296359Y-79640000D01*
%TO.C,R17*%
X142026359Y-85600000D02*
X142333641Y-85600000D01*
X142026359Y-86360000D02*
X142333641Y-86360000D01*
%TO.C,R16*%
X155543641Y-88420000D02*
X155236359Y-88420000D01*
X155543641Y-87660000D02*
X155236359Y-87660000D01*
%TO.C,R15*%
X142056359Y-87750000D02*
X142363641Y-87750000D01*
X142056359Y-88510000D02*
X142363641Y-88510000D01*
%TO.C,R14*%
X155553641Y-87330000D02*
X155246359Y-87330000D01*
X155553641Y-86570000D02*
X155246359Y-86570000D01*
%TO.C,R13*%
X142026359Y-84510000D02*
X142333641Y-84510000D01*
X142026359Y-85270000D02*
X142333641Y-85270000D01*
%TO.C,R12*%
X155563641Y-86260000D02*
X155256359Y-86260000D01*
X155563641Y-85500000D02*
X155256359Y-85500000D01*
%TO.C,R11*%
X142036359Y-82370000D02*
X142343641Y-82370000D01*
X142036359Y-83130000D02*
X142343641Y-83130000D01*
%TO.C,R10*%
X142036359Y-83430000D02*
X142343641Y-83430000D01*
X142036359Y-84190000D02*
X142343641Y-84190000D01*
%TO.C,R9*%
X155613641Y-79330000D02*
X155306359Y-79330000D01*
X155613641Y-78570000D02*
X155306359Y-78570000D01*
%TO.C,R8*%
X142026359Y-81240000D02*
X142333641Y-81240000D01*
X142026359Y-82000000D02*
X142333641Y-82000000D01*
%TO.C,R7*%
X154956359Y-98010000D02*
X155263641Y-98010000D01*
X154956359Y-98770000D02*
X155263641Y-98770000D01*
%TO.C,R2*%
X157186359Y-98470000D02*
X157493641Y-98470000D01*
X157186359Y-99230000D02*
X157493641Y-99230000D01*
%TO.C,C42*%
X132070000Y-95997836D02*
X132070000Y-95782164D01*
X132790000Y-95997836D02*
X132790000Y-95782164D01*
%TO.C,C38*%
X126060000Y-95722164D02*
X126060000Y-95937836D01*
X125340000Y-95722164D02*
X125340000Y-95937836D01*
%TO.C,C22*%
X140167836Y-77170000D02*
X139952164Y-77170000D01*
X140167836Y-76450000D02*
X139952164Y-76450000D01*
%TO.C,C21*%
X157422164Y-76080000D02*
X157637836Y-76080000D01*
X157422164Y-76800000D02*
X157637836Y-76800000D01*
%TO.C,C20*%
X157322164Y-87680000D02*
X157537836Y-87680000D01*
X157322164Y-88400000D02*
X157537836Y-88400000D01*
%TO.C,C19*%
X157352164Y-84940000D02*
X157567836Y-84940000D01*
X157352164Y-85660000D02*
X157567836Y-85660000D01*
%TO.C,C18*%
X157362164Y-82280000D02*
X157577836Y-82280000D01*
X157362164Y-83000000D02*
X157577836Y-83000000D01*
%TO.C,C17*%
X157382164Y-80120000D02*
X157597836Y-80120000D01*
X157382164Y-80840000D02*
X157597836Y-80840000D01*
%TO.C,C16*%
X157382164Y-77990000D02*
X157597836Y-77990000D01*
X157382164Y-78710000D02*
X157597836Y-78710000D01*
%TO.C,C15*%
X140167836Y-76080000D02*
X139952164Y-76080000D01*
X140167836Y-75360000D02*
X139952164Y-75360000D01*
%TO.C,C14*%
X140257836Y-79250000D02*
X140042164Y-79250000D01*
X140257836Y-78530000D02*
X140042164Y-78530000D01*
%TO.C,C13*%
X140257836Y-81410000D02*
X140042164Y-81410000D01*
X140257836Y-80690000D02*
X140042164Y-80690000D01*
%TO.C,C12*%
X140267836Y-83650000D02*
X140052164Y-83650000D01*
X140267836Y-82930000D02*
X140052164Y-82930000D01*
%TO.C,C11*%
X140267836Y-85890000D02*
X140052164Y-85890000D01*
X140267836Y-85170000D02*
X140052164Y-85170000D01*
%TO.C,C10*%
X140287836Y-87960000D02*
X140072164Y-87960000D01*
X140287836Y-87240000D02*
X140072164Y-87240000D01*
%TO.C,C9*%
X157422164Y-74860000D02*
X157637836Y-74860000D01*
X157422164Y-75580000D02*
X157637836Y-75580000D01*
%TO.C,C7*%
X148322164Y-105590000D02*
X148537836Y-105590000D01*
X148322164Y-106310000D02*
X148537836Y-106310000D01*
%TO.C,C6*%
X155022164Y-99110000D02*
X155237836Y-99110000D01*
X155022164Y-99830000D02*
X155237836Y-99830000D01*
%TO.C,C5*%
X138522164Y-97350000D02*
X138737836Y-97350000D01*
X138522164Y-98070000D02*
X138737836Y-98070000D01*
%TO.C,C3*%
X152140000Y-99562164D02*
X152140000Y-99777836D01*
X151420000Y-99562164D02*
X151420000Y-99777836D01*
%TO.C,C2*%
X138737836Y-99100000D02*
X138522164Y-99100000D01*
X138737836Y-98380000D02*
X138522164Y-98380000D01*
%TO.C,C1*%
X155012164Y-101180000D02*
X155227836Y-101180000D01*
X155012164Y-101900000D02*
X155227836Y-101900000D01*
%TD*%
M02*
