%TF.GenerationSoftware,KiCad,Pcbnew,5.1.10-88a1d61d58~88~ubuntu20.04.1*%
%TF.CreationDate,2021-06-10T18:40:27+05:30*%
%TF.ProjectId,LB1A_DCA7M4_R512MB_F4GB,4c423141-5f44-4434-9137-4d345f523531,1.0.0*%
%TF.SameCoordinates,Original*%
%TF.FileFunction,Legend,Top*%
%TF.FilePolarity,Positive*%
%FSLAX46Y46*%
G04 Gerber Fmt 4.6, Leading zero omitted, Abs format (unit mm)*
G04 Created by KiCad (PCBNEW 5.1.10-88a1d61d58~88~ubuntu20.04.1) date 2021-06-10 18:40:27*
%MOMM*%
%LPD*%
G01*
G04 APERTURE LIST*
%ADD10C,0.127000*%
%ADD11C,0.304800*%
%ADD12C,0.120000*%
%ADD13C,0.152400*%
%ADD14C,0.200000*%
G04 APERTURE END LIST*
D10*
X126039428Y-112108619D02*
X125555619Y-112108619D01*
X125555619Y-111092619D01*
X126571619Y-111092619D02*
X126765142Y-111092619D01*
X126861904Y-111141000D01*
X126958666Y-111237761D01*
X127007047Y-111431285D01*
X127007047Y-111769952D01*
X126958666Y-111963476D01*
X126861904Y-112060238D01*
X126765142Y-112108619D01*
X126571619Y-112108619D01*
X126474857Y-112060238D01*
X126378095Y-111963476D01*
X126329714Y-111769952D01*
X126329714Y-111431285D01*
X126378095Y-111237761D01*
X126474857Y-111141000D01*
X126571619Y-111092619D01*
X127974666Y-111141000D02*
X127877904Y-111092619D01*
X127732761Y-111092619D01*
X127587619Y-111141000D01*
X127490857Y-111237761D01*
X127442476Y-111334523D01*
X127394095Y-111528047D01*
X127394095Y-111673190D01*
X127442476Y-111866714D01*
X127490857Y-111963476D01*
X127587619Y-112060238D01*
X127732761Y-112108619D01*
X127829523Y-112108619D01*
X127974666Y-112060238D01*
X128023047Y-112011857D01*
X128023047Y-111673190D01*
X127829523Y-111673190D01*
X128458476Y-112108619D02*
X128458476Y-111092619D01*
X129522857Y-112011857D02*
X129474476Y-112060238D01*
X129329333Y-112108619D01*
X129232571Y-112108619D01*
X129087428Y-112060238D01*
X128990666Y-111963476D01*
X128942285Y-111866714D01*
X128893904Y-111673190D01*
X128893904Y-111528047D01*
X128942285Y-111334523D01*
X128990666Y-111237761D01*
X129087428Y-111141000D01*
X129232571Y-111092619D01*
X129329333Y-111092619D01*
X129474476Y-111141000D01*
X129522857Y-111189380D01*
X131071047Y-111576428D02*
X131216190Y-111624809D01*
X131264571Y-111673190D01*
X131312952Y-111769952D01*
X131312952Y-111915095D01*
X131264571Y-112011857D01*
X131216190Y-112060238D01*
X131119428Y-112108619D01*
X130732380Y-112108619D01*
X130732380Y-111092619D01*
X131071047Y-111092619D01*
X131167809Y-111141000D01*
X131216190Y-111189380D01*
X131264571Y-111286142D01*
X131264571Y-111382904D01*
X131216190Y-111479666D01*
X131167809Y-111528047D01*
X131071047Y-111576428D01*
X130732380Y-111576428D01*
X131941904Y-111092619D02*
X132135428Y-111092619D01*
X132232190Y-111141000D01*
X132328952Y-111237761D01*
X132377333Y-111431285D01*
X132377333Y-111769952D01*
X132328952Y-111963476D01*
X132232190Y-112060238D01*
X132135428Y-112108619D01*
X131941904Y-112108619D01*
X131845142Y-112060238D01*
X131748380Y-111963476D01*
X131700000Y-111769952D01*
X131700000Y-111431285D01*
X131748380Y-111237761D01*
X131845142Y-111141000D01*
X131941904Y-111092619D01*
X132764380Y-111818333D02*
X133248190Y-111818333D01*
X132667619Y-112108619D02*
X133006285Y-111092619D01*
X133344952Y-112108619D01*
X134264190Y-112108619D02*
X133925523Y-111624809D01*
X133683619Y-112108619D02*
X133683619Y-111092619D01*
X134070666Y-111092619D01*
X134167428Y-111141000D01*
X134215809Y-111189380D01*
X134264190Y-111286142D01*
X134264190Y-111431285D01*
X134215809Y-111528047D01*
X134167428Y-111576428D01*
X134070666Y-111624809D01*
X133683619Y-111624809D01*
X134699619Y-112108619D02*
X134699619Y-111092619D01*
X134941523Y-111092619D01*
X135086666Y-111141000D01*
X135183428Y-111237761D01*
X135231809Y-111334523D01*
X135280190Y-111528047D01*
X135280190Y-111673190D01*
X135231809Y-111866714D01*
X135183428Y-111963476D01*
X135086666Y-112060238D01*
X134941523Y-112108619D01*
X134699619Y-112108619D01*
X137021904Y-112108619D02*
X136441333Y-112108619D01*
X136731619Y-112108619D02*
X136731619Y-111092619D01*
X136634857Y-111237761D01*
X136538095Y-111334523D01*
X136441333Y-111382904D01*
X137408952Y-111818333D02*
X137892761Y-111818333D01*
X137312190Y-112108619D02*
X137650857Y-111092619D01*
X137989523Y-112108619D01*
X121443238Y-113759619D02*
X120959428Y-113759619D01*
X120959428Y-112743619D01*
X122120571Y-113227428D02*
X122265714Y-113275809D01*
X122314095Y-113324190D01*
X122362476Y-113420952D01*
X122362476Y-113566095D01*
X122314095Y-113662857D01*
X122265714Y-113711238D01*
X122168952Y-113759619D01*
X121781904Y-113759619D01*
X121781904Y-112743619D01*
X122120571Y-112743619D01*
X122217333Y-112792000D01*
X122265714Y-112840380D01*
X122314095Y-112937142D01*
X122314095Y-113033904D01*
X122265714Y-113130666D01*
X122217333Y-113179047D01*
X122120571Y-113227428D01*
X121781904Y-113227428D01*
X123330095Y-113759619D02*
X122749523Y-113759619D01*
X123039809Y-113759619D02*
X123039809Y-112743619D01*
X122943047Y-112888761D01*
X122846285Y-112985523D01*
X122749523Y-113033904D01*
X123717142Y-113469333D02*
X124200952Y-113469333D01*
X123620380Y-113759619D02*
X123959047Y-112743619D01*
X124297714Y-113759619D01*
X124394476Y-113856380D02*
X125168571Y-113856380D01*
X125410476Y-113759619D02*
X125410476Y-112743619D01*
X125652380Y-112743619D01*
X125797523Y-112792000D01*
X125894285Y-112888761D01*
X125942666Y-112985523D01*
X125991047Y-113179047D01*
X125991047Y-113324190D01*
X125942666Y-113517714D01*
X125894285Y-113614476D01*
X125797523Y-113711238D01*
X125652380Y-113759619D01*
X125410476Y-113759619D01*
X127007047Y-113662857D02*
X126958666Y-113711238D01*
X126813523Y-113759619D01*
X126716761Y-113759619D01*
X126571619Y-113711238D01*
X126474857Y-113614476D01*
X126426476Y-113517714D01*
X126378095Y-113324190D01*
X126378095Y-113179047D01*
X126426476Y-112985523D01*
X126474857Y-112888761D01*
X126571619Y-112792000D01*
X126716761Y-112743619D01*
X126813523Y-112743619D01*
X126958666Y-112792000D01*
X127007047Y-112840380D01*
X127394095Y-113469333D02*
X127877904Y-113469333D01*
X127297333Y-113759619D02*
X127636000Y-112743619D01*
X127974666Y-113759619D01*
X128216571Y-112743619D02*
X128893904Y-112743619D01*
X128458476Y-113759619D01*
X129280952Y-113759619D02*
X129280952Y-112743619D01*
X129619619Y-113469333D01*
X129958285Y-112743619D01*
X129958285Y-113759619D01*
X130877523Y-113082285D02*
X130877523Y-113759619D01*
X130635619Y-112695238D02*
X130393714Y-113420952D01*
X131022666Y-113420952D01*
X131167809Y-113856380D02*
X131941904Y-113856380D01*
X132764380Y-113759619D02*
X132425714Y-113275809D01*
X132183809Y-113759619D02*
X132183809Y-112743619D01*
X132570857Y-112743619D01*
X132667619Y-112792000D01*
X132716000Y-112840380D01*
X132764380Y-112937142D01*
X132764380Y-113082285D01*
X132716000Y-113179047D01*
X132667619Y-113227428D01*
X132570857Y-113275809D01*
X132183809Y-113275809D01*
X133683619Y-112743619D02*
X133199809Y-112743619D01*
X133151428Y-113227428D01*
X133199809Y-113179047D01*
X133296571Y-113130666D01*
X133538476Y-113130666D01*
X133635238Y-113179047D01*
X133683619Y-113227428D01*
X133732000Y-113324190D01*
X133732000Y-113566095D01*
X133683619Y-113662857D01*
X133635238Y-113711238D01*
X133538476Y-113759619D01*
X133296571Y-113759619D01*
X133199809Y-113711238D01*
X133151428Y-113662857D01*
X134699619Y-113759619D02*
X134119047Y-113759619D01*
X134409333Y-113759619D02*
X134409333Y-112743619D01*
X134312571Y-112888761D01*
X134215809Y-112985523D01*
X134119047Y-113033904D01*
X135086666Y-112840380D02*
X135135047Y-112792000D01*
X135231809Y-112743619D01*
X135473714Y-112743619D01*
X135570476Y-112792000D01*
X135618857Y-112840380D01*
X135667238Y-112937142D01*
X135667238Y-113033904D01*
X135618857Y-113179047D01*
X135038285Y-113759619D01*
X135667238Y-113759619D01*
X136102666Y-113759619D02*
X136102666Y-112743619D01*
X136441333Y-113469333D01*
X136780000Y-112743619D01*
X136780000Y-113759619D01*
X137602476Y-113227428D02*
X137747619Y-113275809D01*
X137796000Y-113324190D01*
X137844380Y-113420952D01*
X137844380Y-113566095D01*
X137796000Y-113662857D01*
X137747619Y-113711238D01*
X137650857Y-113759619D01*
X137263809Y-113759619D01*
X137263809Y-112743619D01*
X137602476Y-112743619D01*
X137699238Y-112792000D01*
X137747619Y-112840380D01*
X137796000Y-112937142D01*
X137796000Y-113033904D01*
X137747619Y-113130666D01*
X137699238Y-113179047D01*
X137602476Y-113227428D01*
X137263809Y-113227428D01*
X138037904Y-113856380D02*
X138812000Y-113856380D01*
X139392571Y-113227428D02*
X139053904Y-113227428D01*
X139053904Y-113759619D02*
X139053904Y-112743619D01*
X139537714Y-112743619D01*
X140360190Y-113082285D02*
X140360190Y-113759619D01*
X140118285Y-112695238D02*
X139876380Y-113420952D01*
X140505333Y-113420952D01*
X141424571Y-112792000D02*
X141327809Y-112743619D01*
X141182666Y-112743619D01*
X141037523Y-112792000D01*
X140940761Y-112888761D01*
X140892380Y-112985523D01*
X140844000Y-113179047D01*
X140844000Y-113324190D01*
X140892380Y-113517714D01*
X140940761Y-113614476D01*
X141037523Y-113711238D01*
X141182666Y-113759619D01*
X141279428Y-113759619D01*
X141424571Y-113711238D01*
X141472952Y-113662857D01*
X141472952Y-113324190D01*
X141279428Y-113324190D01*
X142247047Y-113227428D02*
X142392190Y-113275809D01*
X142440571Y-113324190D01*
X142488952Y-113420952D01*
X142488952Y-113566095D01*
X142440571Y-113662857D01*
X142392190Y-113711238D01*
X142295428Y-113759619D01*
X141908380Y-113759619D01*
X141908380Y-112743619D01*
X142247047Y-112743619D01*
X142343809Y-112792000D01*
X142392190Y-112840380D01*
X142440571Y-112937142D01*
X142440571Y-113033904D01*
X142392190Y-113130666D01*
X142343809Y-113179047D01*
X142247047Y-113227428D01*
X141908380Y-113227428D01*
X128797142Y-115410619D02*
X128458476Y-114926809D01*
X128216571Y-115410619D02*
X128216571Y-114394619D01*
X128603619Y-114394619D01*
X128700380Y-114443000D01*
X128748761Y-114491380D01*
X128797142Y-114588142D01*
X128797142Y-114733285D01*
X128748761Y-114830047D01*
X128700380Y-114878428D01*
X128603619Y-114926809D01*
X128216571Y-114926809D01*
X129232571Y-114878428D02*
X129571238Y-114878428D01*
X129716380Y-115410619D02*
X129232571Y-115410619D01*
X129232571Y-114394619D01*
X129716380Y-114394619D01*
X130006666Y-114394619D02*
X130345333Y-115410619D01*
X130684000Y-114394619D01*
X132328952Y-115410619D02*
X131748380Y-115410619D01*
X132038666Y-115410619D02*
X132038666Y-114394619D01*
X131941904Y-114539761D01*
X131845142Y-114636523D01*
X131748380Y-114684904D01*
X132764380Y-115313857D02*
X132812761Y-115362238D01*
X132764380Y-115410619D01*
X132716000Y-115362238D01*
X132764380Y-115313857D01*
X132764380Y-115410619D01*
X133441714Y-114394619D02*
X133538476Y-114394619D01*
X133635238Y-114443000D01*
X133683619Y-114491380D01*
X133732000Y-114588142D01*
X133780380Y-114781666D01*
X133780380Y-115023571D01*
X133732000Y-115217095D01*
X133683619Y-115313857D01*
X133635238Y-115362238D01*
X133538476Y-115410619D01*
X133441714Y-115410619D01*
X133344952Y-115362238D01*
X133296571Y-115313857D01*
X133248190Y-115217095D01*
X133199809Y-115023571D01*
X133199809Y-114781666D01*
X133248190Y-114588142D01*
X133296571Y-114491380D01*
X133344952Y-114443000D01*
X133441714Y-114394619D01*
X134215809Y-115313857D02*
X134264190Y-115362238D01*
X134215809Y-115410619D01*
X134167428Y-115362238D01*
X134215809Y-115313857D01*
X134215809Y-115410619D01*
X134893142Y-114394619D02*
X134989904Y-114394619D01*
X135086666Y-114443000D01*
X135135047Y-114491380D01*
X135183428Y-114588142D01*
X135231809Y-114781666D01*
X135231809Y-115023571D01*
X135183428Y-115217095D01*
X135135047Y-115313857D01*
X135086666Y-115362238D01*
X134989904Y-115410619D01*
X134893142Y-115410619D01*
X134796380Y-115362238D01*
X134748000Y-115313857D01*
X134699619Y-115217095D01*
X134651238Y-115023571D01*
X134651238Y-114781666D01*
X134699619Y-114588142D01*
X134748000Y-114491380D01*
X134796380Y-114443000D01*
X134893142Y-114394619D01*
D11*
X140841421Y-107500000D02*
G75*
G03*
X140841421Y-107500000I-141421J0D01*
G01*
D12*
X133000000Y-92500000D02*
X133200000Y-92300000D01*
X133000000Y-92500000D02*
X132800000Y-92300000D01*
X133000000Y-90400000D02*
X133000000Y-92500000D01*
X130500000Y-75100000D02*
X130700000Y-75300000D01*
X130500000Y-75100000D02*
X130300000Y-75300000D01*
X130500000Y-77200000D02*
X130500000Y-75100000D01*
X134800000Y-87500000D02*
X127500000Y-87500000D01*
X134800000Y-81200000D02*
X134800000Y-87500000D01*
X127500000Y-81200000D02*
X134800000Y-81200000D01*
X127500000Y-87500000D02*
X127500000Y-81200000D01*
X120800000Y-79400000D02*
X121100000Y-79700000D01*
X120800000Y-79400000D02*
X121100000Y-79100000D01*
X125800000Y-79400000D02*
X120800000Y-79400000D01*
X127400000Y-81100000D02*
X125800000Y-79400000D01*
X124700000Y-91700000D02*
X124900000Y-91500000D01*
X124700000Y-91700000D02*
X124500000Y-91500000D01*
X124700000Y-90600000D02*
X124700000Y-91700000D01*
X125200000Y-90600000D02*
X124700000Y-90600000D01*
X126900000Y-90600000D02*
X125200000Y-90600000D01*
X126900000Y-89800000D02*
X126900000Y-90600000D01*
X127600000Y-89800000D02*
X126900000Y-89800000D01*
X127600000Y-90500000D02*
X127600000Y-88400000D01*
X129800000Y-90500000D02*
X127600000Y-90500000D01*
X129800000Y-88400000D02*
X129800000Y-90500000D01*
X127600000Y-88400000D02*
X129800000Y-88400000D01*
X121900000Y-91900000D02*
X122000000Y-91900000D01*
X121900000Y-94900000D02*
X121900000Y-91900000D01*
X124700000Y-94900000D02*
X121900000Y-94900000D01*
X124700000Y-91900000D02*
X124700000Y-94900000D01*
X122000000Y-91900000D02*
X124700000Y-91900000D01*
X139700000Y-82800000D02*
X139900000Y-83000000D01*
X139500000Y-83000000D02*
X139700000Y-82800000D01*
X139700000Y-82800000D02*
X139500000Y-83000000D01*
X139700000Y-83300000D02*
X139700000Y-82800000D01*
X137500000Y-83300000D02*
X139700000Y-83300000D01*
X137700000Y-78400000D02*
X137700000Y-78500000D01*
X140700000Y-78400000D02*
X137700000Y-78400000D01*
X140700000Y-80400000D02*
X140700000Y-78400000D01*
X140700000Y-82700000D02*
X140700000Y-80400000D01*
X137700000Y-82700000D02*
X140700000Y-82700000D01*
X137700000Y-78500000D02*
X137700000Y-82700000D01*
X137500000Y-86400000D02*
X137500000Y-82800000D01*
X137400000Y-86400000D02*
X137500000Y-86400000D01*
X137400000Y-82800000D02*
X137500000Y-82800000D01*
X135400000Y-86400000D02*
X135400000Y-86300000D01*
X137400000Y-86400000D02*
X135400000Y-86400000D01*
X135400000Y-82800000D02*
X137400000Y-82800000D01*
X135400000Y-82900000D02*
X135400000Y-82800000D01*
X135400000Y-86300000D02*
X135400000Y-82900000D01*
X137000000Y-76700000D02*
X137300000Y-77000000D01*
X136700000Y-77000000D02*
X137000000Y-76700000D01*
X137000000Y-76700000D02*
X136700000Y-77000000D01*
X137000000Y-78200000D02*
X137000000Y-76700000D01*
X136400000Y-76500000D02*
X137300000Y-76500000D01*
X136400000Y-76400000D02*
X136400000Y-76500000D01*
X136400000Y-76200000D02*
X136400000Y-76400000D01*
X136400000Y-71400000D02*
X136400000Y-76200000D01*
X139200000Y-71400000D02*
X136400000Y-71400000D01*
X139200000Y-76500000D02*
X139200000Y-71400000D01*
X137300000Y-76500000D02*
X139200000Y-76500000D01*
X137400000Y-82400000D02*
X137400000Y-80300000D01*
X137300000Y-82400000D02*
X137400000Y-82400000D01*
X135200000Y-82400000D02*
X137300000Y-82400000D01*
X135200000Y-80300000D02*
X135200000Y-82400000D01*
X135200000Y-80300000D02*
X135200000Y-78300000D01*
X137400000Y-78300000D02*
X137400000Y-80300000D01*
X135200000Y-78300000D02*
X137400000Y-78300000D01*
D13*
%TO.C,U1*%
X143709880Y-107634400D02*
X143709880Y-107888400D01*
X143709880Y-95645600D02*
X143709880Y-95391600D01*
X146210002Y-107634400D02*
X146210002Y-107888400D01*
X146210002Y-95645600D02*
X146210002Y-95391600D01*
X148710124Y-107634400D02*
X148710124Y-107888400D01*
X148710124Y-95645600D02*
X148710124Y-95391600D01*
X151209992Y-107634400D02*
X151209992Y-107888400D01*
X151209992Y-95645600D02*
X151209992Y-95391600D01*
X141215600Y-105140120D02*
X140961600Y-105140120D01*
X153204400Y-105140120D02*
X153458400Y-105140120D01*
X141215600Y-102639998D02*
X140961600Y-102639998D01*
X153204400Y-102639998D02*
X153458400Y-102639998D01*
X141215600Y-100139876D02*
X140961600Y-100139876D01*
X153204400Y-100139876D02*
X153458400Y-100139876D01*
X141215600Y-97640008D02*
X140961600Y-97640008D01*
X153204400Y-97640008D02*
X153458400Y-97640008D01*
X153331400Y-107761400D02*
X153331400Y-95518600D01*
X153331400Y-95518600D02*
X141088600Y-95518600D01*
X141088600Y-95518600D02*
X141088600Y-107761400D01*
X141088600Y-107761400D02*
X153331400Y-107761400D01*
X141088600Y-107761400D02*
X153331400Y-107761400D01*
X141088600Y-95518600D02*
X141088600Y-107761400D01*
X153331400Y-95518600D02*
X141088600Y-95518600D01*
X153331400Y-107761400D02*
X153331400Y-95518600D01*
X153204400Y-97640008D02*
X153458400Y-97640008D01*
X141215600Y-97640008D02*
X140961600Y-97640008D01*
X153204400Y-100139876D02*
X153458400Y-100139876D01*
X141215600Y-100139876D02*
X140961600Y-100139876D01*
X153204400Y-102639998D02*
X153458400Y-102639998D01*
X141215600Y-102639998D02*
X140961600Y-102639998D01*
X153204400Y-105140120D02*
X153458400Y-105140120D01*
X141215600Y-105140120D02*
X140961600Y-105140120D01*
X151209992Y-95645600D02*
X151209992Y-95391600D01*
X151209992Y-107634400D02*
X151209992Y-107888400D01*
X148710124Y-95645600D02*
X148710124Y-95391600D01*
X148710124Y-107634400D02*
X148710124Y-107888400D01*
X146210002Y-95645600D02*
X146210002Y-95391600D01*
X146210002Y-107634400D02*
X146210002Y-107888400D01*
X143709880Y-95645600D02*
X143709880Y-95391600D01*
X143709880Y-107634400D02*
X143709880Y-107888400D01*
D14*
%TO.C,U2*%
X144575000Y-75770000D02*
G75*
G03*
X144575000Y-75770000I-100000J0D01*
G01*
X144475000Y-76520000D02*
X145225000Y-75770000D01*
X144475000Y-89270000D02*
X144475000Y-76520000D01*
X151985000Y-89270000D02*
X144475000Y-89270000D01*
X151985000Y-75770000D02*
X151985000Y-89270000D01*
X145225000Y-75770000D02*
X151985000Y-75770000D01*
D12*
%TO.C,R6*%
X156156359Y-107350000D02*
X156463641Y-107350000D01*
X156156359Y-106590000D02*
X156463641Y-106590000D01*
%TO.C,C77*%
X145812164Y-111490000D02*
X146027836Y-111490000D01*
X145812164Y-112210000D02*
X146027836Y-112210000D01*
%TO.C,X1*%
X144540000Y-109240000D02*
X144640000Y-109240000D01*
X144540000Y-110840000D02*
X144540000Y-109240000D01*
X146940000Y-110840000D02*
X144540000Y-110840000D01*
X146940000Y-109240000D02*
X146940000Y-110840000D01*
X144540000Y-109240000D02*
X146940000Y-109240000D01*
D14*
%TO.C,U4*%
X134030000Y-81455000D02*
G75*
G03*
X134030000Y-81455000I-100000J0D01*
G01*
%TO.C,U3*%
X133940000Y-98020000D02*
G75*
G03*
X133940000Y-98020000I-100000J0D01*
G01*
X133340000Y-98020000D02*
X133840000Y-98520000D01*
X126340000Y-98020000D02*
X133340000Y-98020000D01*
X126340000Y-107020000D02*
X126340000Y-98020000D01*
X133840000Y-107020000D02*
X126340000Y-107020000D01*
X133840000Y-98520000D02*
X133840000Y-107020000D01*
D12*
%TO.C,R46*%
X136460000Y-81146359D02*
X136460000Y-81453641D01*
X137220000Y-81146359D02*
X137220000Y-81453641D01*
%TO.C,R43*%
X136153641Y-103180000D02*
X135846359Y-103180000D01*
X136153641Y-103940000D02*
X135846359Y-103940000D01*
%TO.C,R40*%
X136173641Y-98860000D02*
X135866359Y-98860000D01*
X136173641Y-99620000D02*
X135866359Y-99620000D01*
%TO.C,R39*%
X136173641Y-97770000D02*
X135866359Y-97770000D01*
X136173641Y-98530000D02*
X135866359Y-98530000D01*
%TO.C,R38*%
X136163641Y-102110000D02*
X135856359Y-102110000D01*
X136163641Y-102870000D02*
X135856359Y-102870000D01*
%TO.C,R37*%
X136163641Y-101020000D02*
X135856359Y-101020000D01*
X136163641Y-101780000D02*
X135856359Y-101780000D01*
%TO.C,R36*%
X136173641Y-99940000D02*
X135866359Y-99940000D01*
X136173641Y-100700000D02*
X135866359Y-100700000D01*
%TO.C,R34*%
X154230000Y-82823641D02*
X154230000Y-82516359D01*
X153470000Y-82823641D02*
X153470000Y-82516359D01*
%TO.C,R27*%
X142173641Y-92230000D02*
X141866359Y-92230000D01*
X142173641Y-92990000D02*
X141866359Y-92990000D01*
%TO.C,R5*%
X136475000Y-79161359D02*
X136475000Y-79468641D01*
X137235000Y-79161359D02*
X137235000Y-79468641D01*
%TO.C,R4*%
X135400000Y-79161359D02*
X135400000Y-79468641D01*
X136160000Y-79161359D02*
X136160000Y-79468641D01*
%TO.C,R3*%
X156156359Y-108420000D02*
X156463641Y-108420000D01*
X156156359Y-107660000D02*
X156463641Y-107660000D01*
%TO.C,R1*%
X144923641Y-92830000D02*
X144616359Y-92830000D01*
X144923641Y-93590000D02*
X144616359Y-93590000D01*
D10*
%TO.C,L4*%
X130105000Y-89850000D02*
X130105000Y-90410000D01*
X132105000Y-89850000D02*
X132105000Y-90410000D01*
%TO.C,L3*%
X133830000Y-89850000D02*
X133830000Y-90410000D01*
X135830000Y-89850000D02*
X135830000Y-90410000D01*
%TO.C,L2*%
X129380000Y-78735000D02*
X129380000Y-78175000D01*
X127380000Y-78735000D02*
X127380000Y-78175000D01*
%TO.C,L1*%
X132750000Y-80055000D02*
X133310000Y-80055000D01*
X132750000Y-78055000D02*
X133310000Y-78055000D01*
D12*
%TO.C,C62*%
X136302164Y-83765000D02*
X136517836Y-83765000D01*
X136302164Y-83045000D02*
X136517836Y-83045000D01*
%TO.C,C61*%
X125532836Y-88470000D02*
X125317164Y-88470000D01*
X125532836Y-89190000D02*
X125317164Y-89190000D01*
%TO.C,C60*%
X125532836Y-87420000D02*
X125317164Y-87420000D01*
X125532836Y-88140000D02*
X125317164Y-88140000D01*
%TO.C,C59*%
X136302164Y-84940000D02*
X136517836Y-84940000D01*
X136302164Y-84220000D02*
X136517836Y-84220000D01*
%TO.C,C58*%
X125542836Y-82745000D02*
X125327164Y-82745000D01*
X125542836Y-83465000D02*
X125327164Y-83465000D01*
%TO.C,C57*%
X125532836Y-85170000D02*
X125317164Y-85170000D01*
X125532836Y-85890000D02*
X125317164Y-85890000D01*
%TO.C,C56*%
X127845000Y-89302164D02*
X127845000Y-89517836D01*
X128565000Y-89302164D02*
X128565000Y-89517836D01*
%TO.C,C55*%
X125542836Y-83770000D02*
X125327164Y-83770000D01*
X125542836Y-84490000D02*
X125327164Y-84490000D01*
%TO.C,C54*%
X125542836Y-81670000D02*
X125327164Y-81670000D01*
X125542836Y-82390000D02*
X125327164Y-82390000D01*
%TO.C,C53*%
X132620000Y-89302164D02*
X132620000Y-89517836D01*
X133340000Y-89302164D02*
X133340000Y-89517836D01*
%TO.C,C52*%
X128895000Y-89302164D02*
X128895000Y-89517836D01*
X129615000Y-89302164D02*
X129615000Y-89517836D01*
%TO.C,C51*%
X136302164Y-86140000D02*
X136517836Y-86140000D01*
X136302164Y-85420000D02*
X136517836Y-85420000D01*
%TO.C,C50*%
X128116252Y-91195000D02*
X126693748Y-91195000D01*
X128116252Y-93015000D02*
X126693748Y-93015000D01*
%TO.C,C49*%
X138365000Y-90216252D02*
X138365000Y-88793748D01*
X136545000Y-90216252D02*
X136545000Y-88793748D01*
%TO.C,C48*%
X125366252Y-76620000D02*
X123943748Y-76620000D01*
X125366252Y-78440000D02*
X123943748Y-78440000D01*
%TO.C,C47*%
X134116252Y-75470000D02*
X132693748Y-75470000D01*
X134116252Y-77290000D02*
X132693748Y-77290000D01*
%TO.C,C46*%
X125532836Y-89520000D02*
X125317164Y-89520000D01*
X125532836Y-90240000D02*
X125317164Y-90240000D01*
%TO.C,C45*%
X125532836Y-86370000D02*
X125317164Y-86370000D01*
X125532836Y-87090000D02*
X125317164Y-87090000D01*
%TO.C,C44*%
X125542836Y-80470000D02*
X125327164Y-80470000D01*
X125542836Y-81190000D02*
X125327164Y-81190000D01*
%TO.C,C43*%
X130890000Y-78412836D02*
X130890000Y-78197164D01*
X130170000Y-78412836D02*
X130170000Y-78197164D01*
%TO.C,C41*%
X124200000Y-100602164D02*
X124200000Y-100817836D01*
X124920000Y-100602164D02*
X124920000Y-100817836D01*
%TO.C,C40*%
X136097836Y-104260000D02*
X135882164Y-104260000D01*
X136097836Y-104980000D02*
X135882164Y-104980000D01*
%TO.C,C39*%
X136127836Y-96720000D02*
X135912164Y-96720000D01*
X136127836Y-97440000D02*
X135912164Y-97440000D01*
%TO.C,C37*%
X143150000Y-82007836D02*
X143150000Y-81792164D01*
X142430000Y-82007836D02*
X142430000Y-81792164D01*
%TO.C,C36*%
X154220000Y-84807836D02*
X154220000Y-84592164D01*
X153500000Y-84807836D02*
X153500000Y-84592164D01*
%TO.C,C35*%
X142390000Y-76622164D02*
X142390000Y-76837836D01*
X143110000Y-76622164D02*
X143110000Y-76837836D01*
%TO.C,C34*%
X155360000Y-77297836D02*
X155360000Y-77082164D01*
X154640000Y-77297836D02*
X154640000Y-77082164D01*
%TO.C,C31*%
X159460000Y-78057836D02*
X159460000Y-77842164D01*
X158740000Y-78057836D02*
X158740000Y-77842164D01*
%TO.C,C30*%
X137800000Y-84352164D02*
X137800000Y-84567836D01*
X138520000Y-84352164D02*
X138520000Y-84567836D01*
%TO.C,C29*%
X143110000Y-86507836D02*
X143110000Y-86292164D01*
X142390000Y-86507836D02*
X142390000Y-86292164D01*
%TO.C,C28*%
X142390000Y-78622164D02*
X142390000Y-78837836D01*
X143110000Y-78622164D02*
X143110000Y-78837836D01*
%TO.C,C27*%
X141230000Y-76652164D02*
X141230000Y-76867836D01*
X141950000Y-76652164D02*
X141950000Y-76867836D01*
%TO.C,C26*%
X154210000Y-77297836D02*
X154210000Y-77082164D01*
X153490000Y-77297836D02*
X153490000Y-77082164D01*
%TO.C,C25*%
X154210000Y-80827836D02*
X154210000Y-80612164D01*
X153490000Y-80827836D02*
X153490000Y-80612164D01*
%TO.C,C24*%
X153510000Y-86572164D02*
X153510000Y-86787836D01*
X154230000Y-86572164D02*
X154230000Y-86787836D01*
%TO.C,C23*%
X153510000Y-88562164D02*
X153510000Y-88777836D01*
X154230000Y-88562164D02*
X154230000Y-88777836D01*
%TO.C,C8*%
X155032164Y-98020000D02*
X155247836Y-98020000D01*
X155032164Y-97300000D02*
X155247836Y-97300000D01*
%TD*%
M02*
