%FSLAX45Y45*%
G04 Gerber Fmt 4.5, Leading zero omitted, Abs format (unit mm)*
G04 Created by KiCad (PCBNEW 5.1.10-88a1d61d58~88~ubuntu20.04.1) date 2021-06-10 18:40:54*
%MOMM*%
%LPD*%
G01*
G04 APERTURE LIST*
%TA.AperFunction,Profile*%
%ADD10C,0.050000*%
%TD*%
%ADD11C,0.200000*%
%ADD12C,0.300000*%
G04 APERTURE END LIST*
D10*
X16500000Y-11410000D02*
G75*
G02*
X16260000Y-11650000I-240000J0D01*
G01*
X11740000Y-11650000D02*
G75*
G02*
X11500000Y-11410000I0J240000D01*
G01*
X16260000Y-6650000D02*
G75*
G02*
X16500000Y-6890000I0J-240000D01*
G01*
X11500000Y-6890000D02*
G75*
G02*
X11740000Y-6650000I240000J0D01*
G01*
X11500000Y-6890000D02*
X11500000Y-7150000D01*
X16260000Y-6650000D02*
X11740000Y-6650000D01*
X16500000Y-11410000D02*
X16500000Y-6890000D01*
X11740000Y-11650000D02*
X16260000Y-11650000D01*
X11500000Y-7150000D02*
X11500000Y-11410000D01*
D11*
X11778983Y-9091984D02*
X11789016Y-9102017D01*
X11789016Y-9091984D02*
X11778983Y-9102017D01*
X12441983Y-9493984D02*
X12452016Y-9504017D01*
X12452016Y-9493984D02*
X12441983Y-9504017D01*
X12441983Y-9530984D02*
X12452016Y-9541017D01*
X12452016Y-9530984D02*
X12441983Y-9541017D01*
X12478983Y-9529984D02*
X12489016Y-9540017D01*
X12489016Y-9529984D02*
X12478983Y-9540017D01*
X13682983Y-9320984D02*
X13693016Y-9331017D01*
X13693016Y-9320984D02*
X13682983Y-9331017D01*
X16048983Y-9090984D02*
X16059016Y-9101017D01*
X16059016Y-9090984D02*
X16048983Y-9101017D01*
X16049983Y-9130984D02*
X16060016Y-9141017D01*
X16060016Y-9130984D02*
X16049983Y-9141017D01*
X16050983Y-8970984D02*
X16061016Y-8981017D01*
X16061016Y-8970984D02*
X16050983Y-8981017D01*
X16050983Y-9011984D02*
X16061016Y-9022017D01*
X16061016Y-9011984D02*
X16050983Y-9022017D01*
X16052060Y-9049658D02*
X16062093Y-9059691D01*
X16062093Y-9049658D02*
X16052060Y-9059691D01*
X16052983Y-8930984D02*
X16063016Y-8941017D01*
X16063016Y-8930984D02*
X16052983Y-8941017D01*
X16052983Y-9169984D02*
X16063016Y-9180017D01*
X16063016Y-9169984D02*
X16052983Y-9180017D01*
X16053983Y-9211984D02*
X16064016Y-9222017D01*
X16064016Y-9211984D02*
X16053983Y-9222017D01*
X16056983Y-8891984D02*
X16067016Y-8902017D01*
X16067016Y-8891984D02*
X16056983Y-8902017D01*
X16057357Y-9251446D02*
X16067390Y-9261479D01*
X16067390Y-9251446D02*
X16057357Y-9261479D01*
X16058983Y-8853984D02*
X16069016Y-8864017D01*
X16069016Y-8853984D02*
X16058983Y-8864017D01*
X16059983Y-8730984D02*
X16070016Y-8741017D01*
X16070016Y-8730984D02*
X16059983Y-8741017D01*
X16060983Y-8770984D02*
X16071016Y-8781017D01*
X16071016Y-8770984D02*
X16060983Y-8781017D01*
X16061983Y-8811984D02*
X16072016Y-8822017D01*
X16072016Y-8811984D02*
X16061983Y-8822017D01*
D12*
X11783928Y-12118214D02*
X11783928Y-11818214D01*
X11855357Y-11818214D01*
X11898214Y-11832500D01*
X11926786Y-11861071D01*
X11941071Y-11889643D01*
X11955357Y-11946786D01*
X11955357Y-11989643D01*
X11941071Y-12046786D01*
X11926786Y-12075357D01*
X11898214Y-12103929D01*
X11855357Y-12118214D01*
X11783928Y-12118214D01*
X12083928Y-12118214D02*
X12083928Y-11918214D01*
X12083928Y-11975357D02*
X12098214Y-11946786D01*
X12112500Y-11932500D01*
X12141071Y-11918214D01*
X12169643Y-11918214D01*
X12269643Y-12118214D02*
X12269643Y-11918214D01*
X12269643Y-11818214D02*
X12255357Y-11832500D01*
X12269643Y-11846786D01*
X12283928Y-11832500D01*
X12269643Y-11818214D01*
X12269643Y-11846786D01*
X12455357Y-12118214D02*
X12426786Y-12103929D01*
X12412500Y-12075357D01*
X12412500Y-11818214D01*
X12612500Y-12118214D02*
X12583928Y-12103929D01*
X12569643Y-12075357D01*
X12569643Y-11818214D01*
X12955357Y-12118214D02*
X12955357Y-11818214D01*
X13055357Y-12032500D01*
X13155357Y-11818214D01*
X13155357Y-12118214D01*
X13426786Y-12118214D02*
X13426786Y-11961071D01*
X13412500Y-11932500D01*
X13383928Y-11918214D01*
X13326786Y-11918214D01*
X13298214Y-11932500D01*
X13426786Y-12103929D02*
X13398214Y-12118214D01*
X13326786Y-12118214D01*
X13298214Y-12103929D01*
X13283928Y-12075357D01*
X13283928Y-12046786D01*
X13298214Y-12018214D01*
X13326786Y-12003929D01*
X13398214Y-12003929D01*
X13426786Y-11989643D01*
X13569643Y-11918214D02*
X13569643Y-12218214D01*
X13569643Y-11932500D02*
X13598214Y-11918214D01*
X13655357Y-11918214D01*
X13683928Y-11932500D01*
X13698214Y-11946786D01*
X13712500Y-11975357D01*
X13712500Y-12061071D01*
X13698214Y-12089643D01*
X13683928Y-12103929D01*
X13655357Y-12118214D01*
X13598214Y-12118214D01*
X13569643Y-12103929D01*
X13841071Y-12089643D02*
X13855357Y-12103929D01*
X13841071Y-12118214D01*
X13826786Y-12103929D01*
X13841071Y-12089643D01*
X13841071Y-12118214D01*
X13841071Y-11932500D02*
X13855357Y-11946786D01*
X13841071Y-11961071D01*
X13826786Y-11946786D01*
X13841071Y-11932500D01*
X13841071Y-11961071D01*
X11487467Y-12607484D02*
X11497500Y-12617517D01*
X11497500Y-12607484D02*
X11487467Y-12617517D01*
X11841071Y-12448214D02*
X11869643Y-12448214D01*
X11898214Y-12462500D01*
X11912500Y-12476786D01*
X11926786Y-12505357D01*
X11941071Y-12562500D01*
X11941071Y-12633929D01*
X11926786Y-12691071D01*
X11912500Y-12719643D01*
X11898214Y-12733929D01*
X11869643Y-12748214D01*
X11841071Y-12748214D01*
X11812500Y-12733929D01*
X11798214Y-12719643D01*
X11783928Y-12691071D01*
X11769643Y-12633929D01*
X11769643Y-12562500D01*
X11783928Y-12505357D01*
X11798214Y-12476786D01*
X11812500Y-12462500D01*
X11841071Y-12448214D01*
X12069643Y-12719643D02*
X12083928Y-12733929D01*
X12069643Y-12748214D01*
X12055357Y-12733929D01*
X12069643Y-12719643D01*
X12069643Y-12748214D01*
X12369643Y-12748214D02*
X12198214Y-12748214D01*
X12283928Y-12748214D02*
X12283928Y-12448214D01*
X12255357Y-12491071D01*
X12226786Y-12519643D01*
X12198214Y-12533929D01*
X12555357Y-12448214D02*
X12583928Y-12448214D01*
X12612500Y-12462500D01*
X12626786Y-12476786D01*
X12641071Y-12505357D01*
X12655357Y-12562500D01*
X12655357Y-12633929D01*
X12641071Y-12691071D01*
X12626786Y-12719643D01*
X12612500Y-12733929D01*
X12583928Y-12748214D01*
X12555357Y-12748214D01*
X12526786Y-12733929D01*
X12512500Y-12719643D01*
X12498214Y-12691071D01*
X12483928Y-12633929D01*
X12483928Y-12562500D01*
X12498214Y-12505357D01*
X12512500Y-12476786D01*
X12526786Y-12462500D01*
X12555357Y-12448214D01*
X12841071Y-12448214D02*
X12869643Y-12448214D01*
X12898214Y-12462500D01*
X12912500Y-12476786D01*
X12926786Y-12505357D01*
X12941071Y-12562500D01*
X12941071Y-12633929D01*
X12926786Y-12691071D01*
X12912500Y-12719643D01*
X12898214Y-12733929D01*
X12869643Y-12748214D01*
X12841071Y-12748214D01*
X12812500Y-12733929D01*
X12798214Y-12719643D01*
X12783928Y-12691071D01*
X12769643Y-12633929D01*
X12769643Y-12562500D01*
X12783928Y-12505357D01*
X12798214Y-12476786D01*
X12812500Y-12462500D01*
X12841071Y-12448214D01*
X13069643Y-12748214D02*
X13069643Y-12548214D01*
X13069643Y-12576786D02*
X13083928Y-12562500D01*
X13112500Y-12548214D01*
X13155357Y-12548214D01*
X13183928Y-12562500D01*
X13198214Y-12591071D01*
X13198214Y-12748214D01*
X13198214Y-12591071D02*
X13212500Y-12562500D01*
X13241071Y-12548214D01*
X13283928Y-12548214D01*
X13312500Y-12562500D01*
X13326786Y-12591071D01*
X13326786Y-12748214D01*
X13469643Y-12748214D02*
X13469643Y-12548214D01*
X13469643Y-12576786D02*
X13483928Y-12562500D01*
X13512500Y-12548214D01*
X13555357Y-12548214D01*
X13583928Y-12562500D01*
X13598214Y-12591071D01*
X13598214Y-12748214D01*
X13598214Y-12591071D02*
X13612500Y-12562500D01*
X13641071Y-12548214D01*
X13683928Y-12548214D01*
X13712500Y-12562500D01*
X13726786Y-12591071D01*
X13726786Y-12748214D01*
X14312500Y-12433929D02*
X14055357Y-12819643D01*
X14698214Y-12448214D02*
X14726786Y-12448214D01*
X14755357Y-12462500D01*
X14769643Y-12476786D01*
X14783928Y-12505357D01*
X14798214Y-12562500D01*
X14798214Y-12633929D01*
X14783928Y-12691071D01*
X14769643Y-12719643D01*
X14755357Y-12733929D01*
X14726786Y-12748214D01*
X14698214Y-12748214D01*
X14669643Y-12733929D01*
X14655357Y-12719643D01*
X14641071Y-12691071D01*
X14626786Y-12633929D01*
X14626786Y-12562500D01*
X14641071Y-12505357D01*
X14655357Y-12476786D01*
X14669643Y-12462500D01*
X14698214Y-12448214D01*
X14926786Y-12719643D02*
X14941071Y-12733929D01*
X14926786Y-12748214D01*
X14912500Y-12733929D01*
X14926786Y-12719643D01*
X14926786Y-12748214D01*
X15126786Y-12448214D02*
X15155357Y-12448214D01*
X15183928Y-12462500D01*
X15198214Y-12476786D01*
X15212500Y-12505357D01*
X15226786Y-12562500D01*
X15226786Y-12633929D01*
X15212500Y-12691071D01*
X15198214Y-12719643D01*
X15183928Y-12733929D01*
X15155357Y-12748214D01*
X15126786Y-12748214D01*
X15098214Y-12733929D01*
X15083928Y-12719643D01*
X15069643Y-12691071D01*
X15055357Y-12633929D01*
X15055357Y-12562500D01*
X15069643Y-12505357D01*
X15083928Y-12476786D01*
X15098214Y-12462500D01*
X15126786Y-12448214D01*
X15412500Y-12448214D02*
X15441071Y-12448214D01*
X15469643Y-12462500D01*
X15483928Y-12476786D01*
X15498214Y-12505357D01*
X15512500Y-12562500D01*
X15512500Y-12633929D01*
X15498214Y-12691071D01*
X15483928Y-12719643D01*
X15469643Y-12733929D01*
X15441071Y-12748214D01*
X15412500Y-12748214D01*
X15383928Y-12733929D01*
X15369643Y-12719643D01*
X15355357Y-12691071D01*
X15341071Y-12633929D01*
X15341071Y-12562500D01*
X15355357Y-12505357D01*
X15369643Y-12476786D01*
X15383928Y-12462500D01*
X15412500Y-12448214D01*
X15612500Y-12448214D02*
X15798214Y-12448214D01*
X15698214Y-12562500D01*
X15741071Y-12562500D01*
X15769643Y-12576786D01*
X15783928Y-12591071D01*
X15798214Y-12619643D01*
X15798214Y-12691071D01*
X15783928Y-12719643D01*
X15769643Y-12733929D01*
X15741071Y-12748214D01*
X15655357Y-12748214D01*
X15626786Y-12733929D01*
X15612500Y-12719643D01*
X15941071Y-12748214D02*
X15998214Y-12748214D01*
X16026786Y-12733929D01*
X16041071Y-12719643D01*
X16069643Y-12676786D01*
X16083928Y-12619643D01*
X16083928Y-12505357D01*
X16069643Y-12476786D01*
X16055357Y-12462500D01*
X16026786Y-12448214D01*
X15969643Y-12448214D01*
X15941071Y-12462500D01*
X15926786Y-12476786D01*
X15912500Y-12505357D01*
X15912500Y-12576786D01*
X15926786Y-12605357D01*
X15941071Y-12619643D01*
X15969643Y-12633929D01*
X16026786Y-12633929D01*
X16055357Y-12619643D01*
X16069643Y-12605357D01*
X16083928Y-12576786D01*
X16198214Y-12448214D02*
X16198214Y-12505357D01*
X16312500Y-12448214D02*
X16312500Y-12505357D01*
X16755357Y-12862500D02*
X16741071Y-12848214D01*
X16712500Y-12805357D01*
X16698214Y-12776786D01*
X16683928Y-12733929D01*
X16669643Y-12662500D01*
X16669643Y-12605357D01*
X16683928Y-12533929D01*
X16698214Y-12491071D01*
X16712500Y-12462500D01*
X16741071Y-12419643D01*
X16755357Y-12405357D01*
X17026786Y-12748214D02*
X16855357Y-12748214D01*
X16941071Y-12748214D02*
X16941071Y-12448214D01*
X16912500Y-12491071D01*
X16883928Y-12519643D01*
X16855357Y-12533929D01*
X17169643Y-12748214D02*
X17226786Y-12748214D01*
X17255357Y-12733929D01*
X17269643Y-12719643D01*
X17298214Y-12676786D01*
X17312500Y-12619643D01*
X17312500Y-12505357D01*
X17298214Y-12476786D01*
X17283928Y-12462500D01*
X17255357Y-12448214D01*
X17198214Y-12448214D01*
X17169643Y-12462500D01*
X17155357Y-12476786D01*
X17141071Y-12505357D01*
X17141071Y-12576786D01*
X17155357Y-12605357D01*
X17169643Y-12619643D01*
X17198214Y-12633929D01*
X17255357Y-12633929D01*
X17283928Y-12619643D01*
X17298214Y-12605357D01*
X17312500Y-12576786D01*
X17669643Y-12748214D02*
X17669643Y-12448214D01*
X17798214Y-12748214D02*
X17798214Y-12591071D01*
X17783928Y-12562500D01*
X17755357Y-12548214D01*
X17712500Y-12548214D01*
X17683928Y-12562500D01*
X17669643Y-12576786D01*
X17983928Y-12748214D02*
X17955357Y-12733929D01*
X17941071Y-12719643D01*
X17926786Y-12691071D01*
X17926786Y-12605357D01*
X17941071Y-12576786D01*
X17955357Y-12562500D01*
X17983928Y-12548214D01*
X18026786Y-12548214D01*
X18055357Y-12562500D01*
X18069643Y-12576786D01*
X18083928Y-12605357D01*
X18083928Y-12691071D01*
X18069643Y-12719643D01*
X18055357Y-12733929D01*
X18026786Y-12748214D01*
X17983928Y-12748214D01*
X18255357Y-12748214D02*
X18226786Y-12733929D01*
X18212500Y-12705357D01*
X18212500Y-12448214D01*
X18483928Y-12733929D02*
X18455357Y-12748214D01*
X18398214Y-12748214D01*
X18369643Y-12733929D01*
X18355357Y-12705357D01*
X18355357Y-12591071D01*
X18369643Y-12562500D01*
X18398214Y-12548214D01*
X18455357Y-12548214D01*
X18483928Y-12562500D01*
X18498214Y-12591071D01*
X18498214Y-12619643D01*
X18355357Y-12648214D01*
X18612500Y-12733929D02*
X18641071Y-12748214D01*
X18698214Y-12748214D01*
X18726786Y-12733929D01*
X18741071Y-12705357D01*
X18741071Y-12691071D01*
X18726786Y-12662500D01*
X18698214Y-12648214D01*
X18655357Y-12648214D01*
X18626786Y-12633929D01*
X18612500Y-12605357D01*
X18612500Y-12591071D01*
X18626786Y-12562500D01*
X18655357Y-12548214D01*
X18698214Y-12548214D01*
X18726786Y-12562500D01*
X18841071Y-12862500D02*
X18855357Y-12848214D01*
X18883928Y-12805357D01*
X18898214Y-12776786D01*
X18912500Y-12733929D01*
X18926786Y-12662500D01*
X18926786Y-12605357D01*
X18912500Y-12533929D01*
X18898214Y-12491071D01*
X18883928Y-12462500D01*
X18855357Y-12419643D01*
X18841071Y-12405357D01*
M02*
