%FSLAX45Y45*%
G04 Gerber Fmt 4.5, Leading zero omitted, Abs format (unit mm)*
G04 Created by KiCad (PCBNEW 5.1.10-88a1d61d58~88~ubuntu20.04.1) date 2021-06-10 18:40:54*
%MOMM*%
%LPD*%
G01*
G04 APERTURE LIST*
%TA.AperFunction,Profile*%
%ADD10C,0.050000*%
%TD*%
%ADD11C,0.200000*%
%ADD12C,0.300000*%
G04 APERTURE END LIST*
D10*
X16500000Y-11410000D02*
G75*
G02*
X16260000Y-11650000I-240000J0D01*
G01*
X11740000Y-11650000D02*
G75*
G02*
X11500000Y-11410000I0J240000D01*
G01*
X16260000Y-6650000D02*
G75*
G02*
X16500000Y-6890000I0J-240000D01*
G01*
X11500000Y-6890000D02*
G75*
G02*
X11740000Y-6650000I240000J0D01*
G01*
X11500000Y-6890000D02*
X11500000Y-7150000D01*
X16260000Y-6650000D02*
X11740000Y-6650000D01*
X16500000Y-11410000D02*
X16500000Y-6890000D01*
X11740000Y-11650000D02*
X16260000Y-11650000D01*
X11500000Y-7150000D02*
X11500000Y-11410000D01*
D11*
D12*
X11783928Y-12118214D02*
X11783928Y-11818214D01*
X11855357Y-11818214D01*
X11898214Y-11832500D01*
X11926786Y-11861071D01*
X11941071Y-11889643D01*
X11955357Y-11946786D01*
X11955357Y-11989643D01*
X11941071Y-12046786D01*
X11926786Y-12075357D01*
X11898214Y-12103929D01*
X11855357Y-12118214D01*
X11783928Y-12118214D01*
X12083928Y-12118214D02*
X12083928Y-11918214D01*
X12083928Y-11975357D02*
X12098214Y-11946786D01*
X12112500Y-11932500D01*
X12141071Y-11918214D01*
X12169643Y-11918214D01*
X12269643Y-12118214D02*
X12269643Y-11918214D01*
X12269643Y-11818214D02*
X12255357Y-11832500D01*
X12269643Y-11846786D01*
X12283928Y-11832500D01*
X12269643Y-11818214D01*
X12269643Y-11846786D01*
X12455357Y-12118214D02*
X12426786Y-12103929D01*
X12412500Y-12075357D01*
X12412500Y-11818214D01*
X12612500Y-12118214D02*
X12583928Y-12103929D01*
X12569643Y-12075357D01*
X12569643Y-11818214D01*
X12955357Y-12118214D02*
X12955357Y-11818214D01*
X13055357Y-12032500D01*
X13155357Y-11818214D01*
X13155357Y-12118214D01*
X13426786Y-12118214D02*
X13426786Y-11961071D01*
X13412500Y-11932500D01*
X13383928Y-11918214D01*
X13326786Y-11918214D01*
X13298214Y-11932500D01*
X13426786Y-12103929D02*
X13398214Y-12118214D01*
X13326786Y-12118214D01*
X13298214Y-12103929D01*
X13283928Y-12075357D01*
X13283928Y-12046786D01*
X13298214Y-12018214D01*
X13326786Y-12003929D01*
X13398214Y-12003929D01*
X13426786Y-11989643D01*
X13569643Y-11918214D02*
X13569643Y-12218214D01*
X13569643Y-11932500D02*
X13598214Y-11918214D01*
X13655357Y-11918214D01*
X13683928Y-11932500D01*
X13698214Y-11946786D01*
X13712500Y-11975357D01*
X13712500Y-12061071D01*
X13698214Y-12089643D01*
X13683928Y-12103929D01*
X13655357Y-12118214D01*
X13598214Y-12118214D01*
X13569643Y-12103929D01*
X13841071Y-12089643D02*
X13855357Y-12103929D01*
X13841071Y-12118214D01*
X13826786Y-12103929D01*
X13841071Y-12089643D01*
X13841071Y-12118214D01*
X13841071Y-11932500D02*
X13855357Y-11946786D01*
X13841071Y-11961071D01*
X13826786Y-11946786D01*
X13841071Y-11932500D01*
X13841071Y-11961071D01*
M02*
