%FSLAX45Y45*%
G04 Gerber Fmt 4.5, Leading zero omitted, Abs format (unit mm)*
G04 Created by KiCad (PCBNEW 5.1.10-88a1d61d58~88~ubuntu20.04.1) date 2021-06-10 18:40:54*
%MOMM*%
%LPD*%
G01*
G04 APERTURE LIST*
%TA.AperFunction,Profile*%
%ADD10C,0.050000*%
%TD*%
%ADD11C,0.200000*%
%ADD12C,0.300000*%
G04 APERTURE END LIST*
D10*
X16500000Y-11410000D02*
G75*
G02*
X16260000Y-11650000I-240000J0D01*
G01*
X11740000Y-11650000D02*
G75*
G02*
X11500000Y-11410000I0J240000D01*
G01*
X16260000Y-6650000D02*
G75*
G02*
X16500000Y-6890000I0J-240000D01*
G01*
X11500000Y-6890000D02*
G75*
G02*
X11740000Y-6650000I240000J0D01*
G01*
X11500000Y-6890000D02*
X11500000Y-7150000D01*
X16260000Y-6650000D02*
X11740000Y-6650000D01*
X16500000Y-11410000D02*
X16500000Y-6890000D01*
X11740000Y-11650000D02*
X16260000Y-11650000D01*
X11500000Y-7150000D02*
X11500000Y-11410000D01*
D11*
X11544967Y-8925967D02*
X11565033Y-8946033D01*
X11565033Y-8925967D02*
X11544967Y-8946033D01*
X11554967Y-9245967D02*
X11575033Y-9266033D01*
X11575033Y-9245967D02*
X11554967Y-9266033D01*
X11560967Y-9003967D02*
X11581033Y-9024033D01*
X11581033Y-9003967D02*
X11560967Y-9024033D01*
X11561466Y-9051965D02*
X11581532Y-9072031D01*
X11581532Y-9051965D02*
X11561466Y-9072031D01*
X11580967Y-8884967D02*
X11601033Y-8905033D01*
X11601033Y-8884967D02*
X11580967Y-8905033D01*
X11590967Y-8802967D02*
X11611033Y-8823033D01*
X11611033Y-8802967D02*
X11590967Y-8823033D01*
X11593967Y-8964967D02*
X11614033Y-8985033D01*
X11614033Y-8964967D02*
X11593967Y-8985033D01*
X11594967Y-8644967D02*
X11615033Y-8665033D01*
X11615033Y-8644967D02*
X11594967Y-8665033D01*
X11595967Y-8724967D02*
X11616033Y-8745033D01*
X11616033Y-8724967D02*
X11595967Y-8745033D01*
X11601967Y-8563967D02*
X11622033Y-8584033D01*
X11622033Y-8563967D02*
X11601967Y-8584033D01*
X11618967Y-8850967D02*
X11639033Y-8871033D01*
X11639033Y-8850967D02*
X11618967Y-8871033D01*
X11637967Y-8764967D02*
X11658033Y-8785033D01*
X11658033Y-8764967D02*
X11637967Y-8785033D01*
X11639967Y-8445967D02*
X11660033Y-8466033D01*
X11660033Y-8445967D02*
X11639967Y-8466033D01*
X11640967Y-8365967D02*
X11661033Y-8386033D01*
X11661033Y-8365967D02*
X11640967Y-8386033D01*
X11640967Y-8606967D02*
X11661033Y-8627033D01*
X11661033Y-8606967D02*
X11640967Y-8627033D01*
X11640967Y-8685967D02*
X11661033Y-8706033D01*
X11661033Y-8685967D02*
X11640967Y-8706033D01*
X11641967Y-8525967D02*
X11662033Y-8546033D01*
X11662033Y-8525967D02*
X11641967Y-8546033D01*
X11778967Y-8488967D02*
X11799033Y-8509033D01*
X11799033Y-8488967D02*
X11778967Y-8509033D01*
X11781466Y-8405967D02*
X11801532Y-8426033D01*
X11801532Y-8405967D02*
X11781466Y-8426033D01*
X11817649Y-8063649D02*
X11837715Y-8083715D01*
X11837715Y-8063649D02*
X11817649Y-8083715D01*
X11904967Y-8725967D02*
X11925033Y-8746033D01*
X11925033Y-8725967D02*
X11904967Y-8746033D01*
X11905967Y-8647967D02*
X11926033Y-8668033D01*
X11926033Y-8647967D02*
X11905967Y-8668033D01*
X11908967Y-8486967D02*
X11929033Y-8507033D01*
X11929033Y-8486967D02*
X11908967Y-8507033D01*
X11909967Y-8804967D02*
X11930033Y-8825033D01*
X11930033Y-8804967D02*
X11909967Y-8825033D01*
X11910967Y-8884967D02*
X11931033Y-8905033D01*
X11931033Y-8884967D02*
X11910967Y-8905033D01*
X11910967Y-8965967D02*
X11931033Y-8986033D01*
X11931033Y-8965967D02*
X11910967Y-8986033D01*
X11910967Y-9013967D02*
X11931033Y-9034033D01*
X11931033Y-9013967D02*
X11910967Y-9034033D01*
X11911967Y-8405967D02*
X11932033Y-8426033D01*
X11932033Y-8405967D02*
X11911967Y-8426033D01*
X11913967Y-8564967D02*
X11934033Y-8585033D01*
X11934033Y-8564967D02*
X11913967Y-8585033D01*
X12047967Y-8927967D02*
X12068033Y-8948033D01*
X12068033Y-8927967D02*
X12047967Y-8948033D01*
X12051967Y-8445967D02*
X12072033Y-8466033D01*
X12072033Y-8445967D02*
X12051967Y-8466033D01*
X12053967Y-8365967D02*
X12074033Y-8386033D01*
X12074033Y-8365967D02*
X12053967Y-8386033D01*
X12054967Y-8527967D02*
X12075033Y-8548033D01*
X12075033Y-8527967D02*
X12054967Y-8548033D01*
X12054967Y-8844967D02*
X12075033Y-8865033D01*
X12075033Y-8844967D02*
X12054967Y-8865033D01*
X12056967Y-8607967D02*
X12077033Y-8628033D01*
X12077033Y-8607967D02*
X12056967Y-8628033D01*
X12057967Y-8687967D02*
X12078033Y-8708033D01*
X12078033Y-8687967D02*
X12057967Y-8708033D01*
X12058967Y-8765967D02*
X12079033Y-8786033D01*
X12079033Y-8765967D02*
X12058967Y-8786033D01*
X12280967Y-9618967D02*
X12301033Y-9639033D01*
X12301033Y-9618967D02*
X12280967Y-9639033D01*
X12280967Y-9905967D02*
X12301033Y-9926033D01*
X12301033Y-9905967D02*
X12280967Y-9926033D01*
X12314967Y-6773967D02*
X12335033Y-6794033D01*
X12335033Y-6773967D02*
X12314967Y-6794033D01*
X12314967Y-7193967D02*
X12335033Y-7214033D01*
X12335033Y-7193967D02*
X12314967Y-7214033D01*
X12323967Y-9655967D02*
X12344033Y-9676033D01*
X12344033Y-9655967D02*
X12323967Y-9676033D01*
X12340961Y-9939648D02*
X12361027Y-9959714D01*
X12361027Y-9939648D02*
X12340961Y-9959714D01*
X12354967Y-6723967D02*
X12375033Y-6744033D01*
X12375033Y-6723967D02*
X12354967Y-6744033D01*
X12354967Y-7233967D02*
X12375033Y-7254033D01*
X12375033Y-7233967D02*
X12354967Y-7254033D01*
X12355967Y-8467967D02*
X12376033Y-8488033D01*
X12376033Y-8467967D02*
X12355967Y-8488033D01*
X12360967Y-8921967D02*
X12381033Y-8942033D01*
X12381033Y-8921967D02*
X12360967Y-8942033D01*
X12362967Y-8817967D02*
X12383033Y-8838033D01*
X12383033Y-8817967D02*
X12362967Y-8838033D01*
X12362967Y-9688967D02*
X12383033Y-9709033D01*
X12383033Y-9688967D02*
X12362967Y-9709033D01*
X12363967Y-9744694D02*
X12384033Y-9764760D01*
X12384033Y-9744694D02*
X12363967Y-9764760D01*
X12376915Y-9854556D02*
X12396981Y-9874622D01*
X12396981Y-9854556D02*
X12376915Y-9874622D01*
X12378967Y-9968967D02*
X12399033Y-9989033D01*
X12399033Y-9968967D02*
X12378967Y-9989033D01*
X12385467Y-8072967D02*
X12405533Y-8093033D01*
X12405533Y-8072967D02*
X12385467Y-8093033D01*
X12385467Y-8192967D02*
X12405533Y-8213033D01*
X12405533Y-8192967D02*
X12385467Y-8213033D01*
X12394967Y-6773967D02*
X12415033Y-6794033D01*
X12415033Y-6773967D02*
X12394967Y-6794033D01*
X12394967Y-7193967D02*
X12415033Y-7214033D01*
X12415033Y-7193967D02*
X12394967Y-7214033D01*
X12402967Y-8600467D02*
X12423033Y-8620533D01*
X12423033Y-8600467D02*
X12402967Y-8620533D01*
X12405467Y-8542967D02*
X12425533Y-8563033D01*
X12425533Y-8542967D02*
X12405467Y-8563033D01*
X12405467Y-8662967D02*
X12425533Y-8683033D01*
X12425533Y-8662967D02*
X12405467Y-8683033D01*
X12405467Y-8767967D02*
X12425533Y-8788033D01*
X12425533Y-8767967D02*
X12405467Y-8788033D01*
X12407967Y-8300467D02*
X12428033Y-8320533D01*
X12428033Y-8300467D02*
X12407967Y-8320533D01*
X12407967Y-8402967D02*
X12428033Y-8423033D01*
X12428033Y-8402967D02*
X12407967Y-8423033D01*
X12407967Y-8875467D02*
X12428033Y-8895533D01*
X12428033Y-8875467D02*
X12407967Y-8895533D01*
X12407967Y-8975804D02*
X12428033Y-8995870D01*
X12428033Y-8975804D02*
X12407967Y-8995870D01*
X12410969Y-9817720D02*
X12431035Y-9837786D01*
X12431035Y-9817720D02*
X12410969Y-9837786D01*
X12413967Y-8819967D02*
X12434033Y-8840033D01*
X12434033Y-8819967D02*
X12413967Y-8840033D01*
X12434967Y-6723967D02*
X12455033Y-6744033D01*
X12455033Y-6723967D02*
X12434967Y-6744033D01*
X12434967Y-7233967D02*
X12455033Y-7254033D01*
X12455033Y-7233967D02*
X12434967Y-7254033D01*
X12437967Y-7742967D02*
X12458033Y-7763033D01*
X12458033Y-7742967D02*
X12437967Y-7763033D01*
X12473967Y-9829967D02*
X12494033Y-9850033D01*
X12494033Y-9829967D02*
X12473967Y-9850033D01*
X12474967Y-6773967D02*
X12495033Y-6794033D01*
X12495033Y-6773967D02*
X12474967Y-6794033D01*
X12474967Y-7193967D02*
X12495033Y-7214033D01*
X12495033Y-7193967D02*
X12474967Y-7214033D01*
X12529967Y-10013967D02*
X12550033Y-10034033D01*
X12550033Y-10013967D02*
X12529967Y-10034033D01*
X12567967Y-10476967D02*
X12588033Y-10497033D01*
X12588033Y-10476967D02*
X12567967Y-10497033D01*
X12568988Y-10524956D02*
X12589054Y-10545022D01*
X12589054Y-10524956D02*
X12568988Y-10545022D01*
X12594967Y-6779967D02*
X12615033Y-6800033D01*
X12615033Y-6779967D02*
X12594967Y-6800033D01*
X12594967Y-7189967D02*
X12615033Y-7210033D01*
X12615033Y-7189967D02*
X12594967Y-7210033D01*
X12627967Y-10016967D02*
X12648033Y-10037033D01*
X12648033Y-10016967D02*
X12627967Y-10037033D01*
X12628967Y-10066967D02*
X12649033Y-10087033D01*
X12649033Y-10066967D02*
X12628967Y-10087033D01*
X12629967Y-10117967D02*
X12650033Y-10138033D01*
X12650033Y-10117967D02*
X12629967Y-10138033D01*
X12630967Y-10189967D02*
X12651033Y-10210033D01*
X12651033Y-10189967D02*
X12630967Y-10210033D01*
X12634967Y-6741967D02*
X12655033Y-6762033D01*
X12655033Y-6741967D02*
X12634967Y-6762033D01*
X12634967Y-7221967D02*
X12655033Y-7242033D01*
X12655033Y-7221967D02*
X12634967Y-7242033D01*
X12648967Y-8288967D02*
X12669033Y-8309033D01*
X12669033Y-8288967D02*
X12648967Y-8309033D01*
X12673967Y-9814967D02*
X12694033Y-9835033D01*
X12694033Y-9814967D02*
X12673967Y-9835033D01*
X12674967Y-6779967D02*
X12695033Y-6800033D01*
X12695033Y-6779967D02*
X12674967Y-6800033D01*
X12674967Y-7182967D02*
X12695033Y-7203033D01*
X12695033Y-7182967D02*
X12674967Y-7203033D01*
X12703967Y-8286967D02*
X12724033Y-8307033D01*
X12724033Y-8286967D02*
X12703967Y-8307033D01*
X12707967Y-8045467D02*
X12728033Y-8065533D01*
X12728033Y-8045467D02*
X12707967Y-8065533D01*
X12707967Y-8095467D02*
X12728033Y-8115533D01*
X12728033Y-8095467D02*
X12707967Y-8115533D01*
X12710467Y-8172967D02*
X12730533Y-8193033D01*
X12730533Y-8172967D02*
X12710467Y-8193033D01*
X12714967Y-7223967D02*
X12735033Y-7244033D01*
X12735033Y-7223967D02*
X12714967Y-7244033D01*
X12715967Y-6739967D02*
X12736033Y-6760033D01*
X12736033Y-6739967D02*
X12715967Y-6760033D01*
X12715967Y-8481967D02*
X12736033Y-8502033D01*
X12736033Y-8481967D02*
X12715967Y-8502033D01*
X12725467Y-8402967D02*
X12745533Y-8423033D01*
X12745533Y-8402967D02*
X12725467Y-8423033D01*
X12750467Y-8687967D02*
X12770533Y-8708033D01*
X12770533Y-8687967D02*
X12750467Y-8708033D01*
X12750467Y-8775467D02*
X12770533Y-8795533D01*
X12770533Y-8775467D02*
X12750467Y-8795533D01*
X12752967Y-9200467D02*
X12773033Y-9220533D01*
X12773033Y-9200467D02*
X12752967Y-9220533D01*
X12754967Y-6780967D02*
X12775033Y-6801033D01*
X12775033Y-6780967D02*
X12754967Y-6801033D01*
X12754967Y-7187967D02*
X12775033Y-7208033D01*
X12775033Y-7187967D02*
X12754967Y-7208033D01*
X12762967Y-7815467D02*
X12783033Y-7835533D01*
X12783033Y-7815467D02*
X12762967Y-7835533D01*
X12763967Y-9789967D02*
X12784033Y-9810033D01*
X12784033Y-9789967D02*
X12763967Y-9810033D01*
X12765467Y-8175467D02*
X12785533Y-8195533D01*
X12785533Y-8175467D02*
X12765467Y-8195533D01*
X12775467Y-8045467D02*
X12795533Y-8065533D01*
X12795533Y-8045467D02*
X12775467Y-8065533D01*
X12777967Y-8095467D02*
X12798033Y-8115533D01*
X12798033Y-8095467D02*
X12777967Y-8115533D01*
X12810967Y-8763967D02*
X12831033Y-8784033D01*
X12831033Y-8763967D02*
X12810967Y-8784033D01*
X12810967Y-8817967D02*
X12831033Y-8838033D01*
X12831033Y-8817967D02*
X12810967Y-8838033D01*
X12811348Y-9056349D02*
X12831414Y-9076415D01*
X12831414Y-9056349D02*
X12811348Y-9076415D01*
X12812967Y-8685467D02*
X12833033Y-8705533D01*
X12833033Y-8685467D02*
X12812967Y-8705533D01*
X12820467Y-7815467D02*
X12840533Y-7835533D01*
X12840533Y-7815467D02*
X12820467Y-7835533D01*
X12835967Y-6781967D02*
X12856033Y-6802033D01*
X12856033Y-6781967D02*
X12835967Y-6802033D01*
X12863967Y-8763967D02*
X12884033Y-8784033D01*
X12884033Y-8763967D02*
X12863967Y-8784033D01*
X12874967Y-7053967D02*
X12895033Y-7074033D01*
X12895033Y-7053967D02*
X12874967Y-7074033D01*
X12875967Y-6735967D02*
X12896033Y-6756033D01*
X12896033Y-6735967D02*
X12875967Y-6756033D01*
X12880467Y-7815467D02*
X12900533Y-7835533D01*
X12900533Y-7815467D02*
X12880467Y-7835533D01*
X12914967Y-6781967D02*
X12935033Y-6802033D01*
X12935033Y-6781967D02*
X12914967Y-6802033D01*
X12915467Y-8820467D02*
X12935533Y-8840533D01*
X12935533Y-8820467D02*
X12915467Y-8840533D01*
X12915467Y-9055467D02*
X12935533Y-9075533D01*
X12935533Y-9055467D02*
X12915467Y-9075533D01*
X12915967Y-7022967D02*
X12936033Y-7043033D01*
X12936033Y-7022967D02*
X12915967Y-7043033D01*
X12917967Y-8765467D02*
X12938033Y-8785533D01*
X12938033Y-8765467D02*
X12917967Y-8785533D01*
X12923967Y-10316967D02*
X12944033Y-10337033D01*
X12944033Y-10316967D02*
X12923967Y-10337033D01*
X12939967Y-9818150D02*
X12960033Y-9838216D01*
X12960033Y-9818150D02*
X12939967Y-9838216D01*
X12939967Y-10175967D02*
X12960033Y-10196033D01*
X12960033Y-10175967D02*
X12939967Y-10196033D01*
X12954967Y-6740967D02*
X12975033Y-6761033D01*
X12975033Y-6740967D02*
X12954967Y-6761033D01*
X12954967Y-7056967D02*
X12975033Y-7077033D01*
X12975033Y-7056967D02*
X12954967Y-7077033D01*
X12978967Y-9781206D02*
X12999033Y-9801272D01*
X12999033Y-9781206D02*
X12978967Y-9801272D01*
X12995967Y-6781967D02*
X13016033Y-6802033D01*
X13016033Y-6781967D02*
X12995967Y-6802033D01*
X12995967Y-7022967D02*
X13016033Y-7043033D01*
X13016033Y-7022967D02*
X12995967Y-7043033D01*
X13004967Y-10249967D02*
X13025033Y-10270033D01*
X13025033Y-10249967D02*
X13004967Y-10270033D01*
X13010467Y-9265467D02*
X13030533Y-9285533D01*
X13030533Y-9265467D02*
X13010467Y-9285533D01*
X13012967Y-9197967D02*
X13033033Y-9218033D01*
X13033033Y-9197967D02*
X13012967Y-9218033D01*
X13022967Y-9818150D02*
X13043033Y-9838216D01*
X13043033Y-9818150D02*
X13022967Y-9838216D01*
X13042967Y-7677967D02*
X13063033Y-7698033D01*
X13063033Y-7677967D02*
X13042967Y-7698033D01*
X13073967Y-9818150D02*
X13094033Y-9838216D01*
X13094033Y-9818150D02*
X13073967Y-9838216D01*
X13073967Y-10166967D02*
X13094033Y-10187033D01*
X13094033Y-10166967D02*
X13073967Y-10187033D01*
X13075467Y-9197967D02*
X13095533Y-9218033D01*
X13095533Y-9197967D02*
X13075467Y-9218033D01*
X13075467Y-9265467D02*
X13095533Y-9285533D01*
X13095533Y-9265467D02*
X13075467Y-9285533D01*
X13083967Y-8763967D02*
X13104033Y-8784033D01*
X13104033Y-8763967D02*
X13083967Y-8784033D01*
X13105967Y-7858967D02*
X13126033Y-7879033D01*
X13126033Y-7858967D02*
X13105967Y-7879033D01*
X13115967Y-7055967D02*
X13136033Y-7076033D01*
X13136033Y-7055967D02*
X13115967Y-7076033D01*
X13120467Y-8417967D02*
X13140533Y-8438033D01*
X13140533Y-8417967D02*
X13120467Y-8438033D01*
X13120467Y-8540467D02*
X13140533Y-8560533D01*
X13140533Y-8540467D02*
X13120467Y-8560533D01*
X13122967Y-8310467D02*
X13143033Y-8330533D01*
X13143033Y-8310467D02*
X13122967Y-8330533D01*
X13124967Y-9818150D02*
X13145033Y-9838216D01*
X13145033Y-9818150D02*
X13124967Y-9838216D01*
X13147967Y-9197967D02*
X13168033Y-9218033D01*
X13168033Y-9197967D02*
X13147967Y-9218033D01*
X13147967Y-9265467D02*
X13168033Y-9285533D01*
X13168033Y-9265467D02*
X13147967Y-9285533D01*
X13153967Y-7022967D02*
X13174033Y-7043033D01*
X13174033Y-7022967D02*
X13153967Y-7043033D01*
X13194967Y-7053967D02*
X13215033Y-7074033D01*
X13215033Y-7053967D02*
X13194967Y-7074033D01*
X13212468Y-8081655D02*
X13232534Y-8101721D01*
X13232534Y-8081655D02*
X13212468Y-8101721D01*
X13222967Y-9818150D02*
X13243033Y-9838216D01*
X13243033Y-9818150D02*
X13222967Y-9838216D01*
X13234967Y-7023967D02*
X13255033Y-7044033D01*
X13255033Y-7023967D02*
X13234967Y-7044033D01*
X13254967Y-8103967D02*
X13275033Y-8124033D01*
X13275033Y-8103967D02*
X13254967Y-8124033D01*
X13260467Y-8307967D02*
X13280533Y-8328033D01*
X13280533Y-8307967D02*
X13260467Y-8328033D01*
X13260467Y-8421967D02*
X13280533Y-8442033D01*
X13280533Y-8421967D02*
X13260467Y-8442033D01*
X13260967Y-8540467D02*
X13281033Y-8560533D01*
X13281033Y-8540467D02*
X13260967Y-8560533D01*
X13311967Y-8105967D02*
X13332033Y-8126033D01*
X13332033Y-8105967D02*
X13311967Y-8126033D01*
X13316967Y-6945967D02*
X13337033Y-6966033D01*
X13337033Y-6945967D02*
X13316967Y-6966033D01*
X13317967Y-7627967D02*
X13338033Y-7648033D01*
X13338033Y-7627967D02*
X13317967Y-7648033D01*
X13355967Y-6916967D02*
X13376033Y-6937033D01*
X13376033Y-6916967D02*
X13355967Y-6937033D01*
X13376967Y-10365967D02*
X13397033Y-10386033D01*
X13397033Y-10365967D02*
X13376967Y-10386033D01*
X13377967Y-9940299D02*
X13398033Y-9960365D01*
X13398033Y-9940299D02*
X13377967Y-9960365D01*
X13380967Y-10165967D02*
X13401033Y-10186033D01*
X13401033Y-10165967D02*
X13380967Y-10186033D01*
X13383967Y-10237967D02*
X13404033Y-10258033D01*
X13404033Y-10237967D02*
X13383967Y-10258033D01*
X13409967Y-8177967D02*
X13430033Y-8198033D01*
X13430033Y-8177967D02*
X13409967Y-8198033D01*
X13412967Y-9010467D02*
X13433033Y-9030533D01*
X13433033Y-9010467D02*
X13412967Y-9030533D01*
X13417802Y-9634872D02*
X13437868Y-9654938D01*
X13437868Y-9634872D02*
X13417802Y-9654938D01*
X13430662Y-10252467D02*
X13450728Y-10272533D01*
X13450728Y-10252467D02*
X13430662Y-10272533D01*
X13447967Y-10095967D02*
X13468033Y-10116033D01*
X13468033Y-10095967D02*
X13447967Y-10116033D01*
X13466967Y-9805967D02*
X13487033Y-9826033D01*
X13487033Y-9805967D02*
X13466967Y-9826033D01*
X13467967Y-9634872D02*
X13488033Y-9654938D01*
X13488033Y-9634872D02*
X13467967Y-9654938D01*
X13480467Y-9012967D02*
X13500533Y-9033033D01*
X13500533Y-9012967D02*
X13480467Y-9033033D01*
X13481967Y-8447967D02*
X13502033Y-8468033D01*
X13502033Y-8447967D02*
X13481967Y-8468033D01*
X13485720Y-10062933D02*
X13505786Y-10082999D01*
X13505786Y-10062933D02*
X13485720Y-10082999D01*
X13490467Y-8322967D02*
X13510533Y-8343033D01*
X13510533Y-8322967D02*
X13490467Y-8343033D01*
X13509967Y-8559967D02*
X13530033Y-8580033D01*
X13530033Y-8559967D02*
X13509967Y-8580033D01*
X13514967Y-6763967D02*
X13535033Y-6784033D01*
X13535033Y-6763967D02*
X13514967Y-6784033D01*
X13514967Y-7043967D02*
X13535033Y-7064033D01*
X13535033Y-7043967D02*
X13514967Y-7064033D01*
X13530967Y-8447967D02*
X13551033Y-8468033D01*
X13551033Y-8447967D02*
X13530967Y-8468033D01*
X13540967Y-10529967D02*
X13561033Y-10550033D01*
X13561033Y-10529967D02*
X13540967Y-10550033D01*
X13554967Y-6713967D02*
X13575033Y-6734033D01*
X13575033Y-6713967D02*
X13554967Y-6734033D01*
X13554967Y-6993967D02*
X13575033Y-7014033D01*
X13575033Y-6993967D02*
X13554967Y-7014033D01*
X13555467Y-9012967D02*
X13575533Y-9033033D01*
X13575533Y-9012967D02*
X13555467Y-9033033D01*
X13567967Y-8042967D02*
X13588033Y-8063033D01*
X13588033Y-8042967D02*
X13567967Y-8063033D01*
X13594967Y-6763967D02*
X13615033Y-6784033D01*
X13615033Y-6763967D02*
X13594967Y-6784033D01*
X13594967Y-7043967D02*
X13615033Y-7064033D01*
X13615033Y-7043967D02*
X13594967Y-7064033D01*
X13597967Y-10532129D02*
X13618033Y-10552195D01*
X13618033Y-10532129D02*
X13597967Y-10552195D01*
X13600467Y-7547967D02*
X13620533Y-7568033D01*
X13620533Y-7547967D02*
X13600467Y-7568033D01*
X13600467Y-7610467D02*
X13620533Y-7630533D01*
X13620533Y-7610467D02*
X13600467Y-7630533D01*
X13600467Y-7675467D02*
X13620533Y-7695533D01*
X13620533Y-7675467D02*
X13600467Y-7695533D01*
X13600467Y-7742967D02*
X13620533Y-7763033D01*
X13620533Y-7742967D02*
X13600467Y-7763033D01*
X13634967Y-6713967D02*
X13655033Y-6734033D01*
X13655033Y-6713967D02*
X13634967Y-6734033D01*
X13634967Y-6993967D02*
X13655033Y-7014033D01*
X13655033Y-6993967D02*
X13634967Y-7014033D01*
X13655967Y-8258939D02*
X13676033Y-8279005D01*
X13676033Y-8258939D02*
X13655967Y-8279005D01*
X13674967Y-6763967D02*
X13695033Y-6784033D01*
X13695033Y-6763967D02*
X13674967Y-6784033D01*
X13674967Y-7043967D02*
X13695033Y-7064033D01*
X13695033Y-7043967D02*
X13674967Y-7064033D01*
X13734340Y-9786967D02*
X13754406Y-9807033D01*
X13754406Y-9786967D02*
X13734340Y-9807033D01*
X13781093Y-10648733D02*
X13801159Y-10668799D01*
X13801159Y-10648733D02*
X13781093Y-10668799D01*
X13811967Y-8224967D02*
X13832033Y-8245033D01*
X13832033Y-8224967D02*
X13811967Y-8245033D01*
X13827776Y-10671594D02*
X13847842Y-10691660D01*
X13847842Y-10671594D02*
X13827776Y-10691660D01*
X13871967Y-7560967D02*
X13892033Y-7581033D01*
X13892033Y-7560967D02*
X13871967Y-7581033D01*
X13882967Y-8385967D02*
X13903033Y-8406033D01*
X13903033Y-8385967D02*
X13882967Y-8406033D01*
X13888715Y-10274257D02*
X13908781Y-10294323D01*
X13908781Y-10274257D02*
X13888715Y-10294323D01*
X13900801Y-10618130D02*
X13920867Y-10638196D01*
X13920867Y-10618130D02*
X13900801Y-10638196D01*
X13903967Y-10439967D02*
X13924033Y-10460033D01*
X13924033Y-10439967D02*
X13903967Y-10460033D01*
X13904942Y-10155022D02*
X13925008Y-10175088D01*
X13925008Y-10155022D02*
X13904942Y-10175088D01*
X13905075Y-10203022D02*
X13925141Y-10223088D01*
X13925141Y-10203022D02*
X13905075Y-10223088D01*
X13906201Y-10107038D02*
X13926267Y-10127104D01*
X13926267Y-10107038D02*
X13906201Y-10127104D01*
X13907054Y-10059046D02*
X13927120Y-10079112D01*
X13927120Y-10059046D02*
X13907054Y-10079112D01*
X13925967Y-8937967D02*
X13946033Y-8958033D01*
X13946033Y-8937967D02*
X13925967Y-8958033D01*
X13956967Y-7800967D02*
X13977033Y-7821033D01*
X13977033Y-7800967D02*
X13956967Y-7821033D01*
X13956967Y-8016967D02*
X13977033Y-8037033D01*
X13977033Y-8016967D02*
X13956967Y-8037033D01*
X13956967Y-8241967D02*
X13977033Y-8262033D01*
X13977033Y-8241967D02*
X13956967Y-8262033D01*
X13957967Y-8469967D02*
X13978033Y-8490033D01*
X13978033Y-8469967D02*
X13957967Y-8490033D01*
X13958967Y-8668967D02*
X13979033Y-8689033D01*
X13979033Y-8668967D02*
X13958967Y-8689033D01*
X13960967Y-10372467D02*
X13981033Y-10392533D01*
X13981033Y-10372467D02*
X13960967Y-10392533D01*
X13995967Y-10740632D02*
X14016033Y-10760698D01*
X14016033Y-10740632D02*
X13995967Y-10760698D01*
X14005075Y-10336467D02*
X14025141Y-10356533D01*
X14025141Y-10336467D02*
X14005075Y-10356533D01*
X14015967Y-9831967D02*
X14036033Y-9852033D01*
X14036033Y-9831967D02*
X14015967Y-9852033D01*
X14028298Y-10625262D02*
X14048364Y-10645328D01*
X14048364Y-10625262D02*
X14028298Y-10645328D01*
X14033454Y-10773967D02*
X14053520Y-10794033D01*
X14053520Y-10773967D02*
X14033454Y-10794033D01*
X14044967Y-7479967D02*
X14065033Y-7500033D01*
X14065033Y-7479967D02*
X14044967Y-7500033D01*
X14045967Y-7746967D02*
X14066033Y-7767033D01*
X14066033Y-7746967D02*
X14045967Y-7767033D01*
X14052967Y-7953967D02*
X14073033Y-7974033D01*
X14073033Y-7953967D02*
X14052967Y-7974033D01*
X14053967Y-8161967D02*
X14074033Y-8182033D01*
X14074033Y-8161967D02*
X14053967Y-8182033D01*
X14053967Y-8390967D02*
X14074033Y-8411033D01*
X14074033Y-8390967D02*
X14053967Y-8411033D01*
X14053967Y-8619967D02*
X14074033Y-8640033D01*
X14074033Y-8619967D02*
X14053967Y-8640033D01*
X14056967Y-8678967D02*
X14077033Y-8699033D01*
X14077033Y-8678967D02*
X14056967Y-8699033D01*
X14066967Y-10336467D02*
X14087033Y-10356533D01*
X14087033Y-10336467D02*
X14066967Y-10356533D01*
X14069967Y-9846967D02*
X14090033Y-9867033D01*
X14090033Y-9846967D02*
X14069967Y-9867033D01*
X14113967Y-10091967D02*
X14134033Y-10112033D01*
X14134033Y-10091967D02*
X14113967Y-10112033D01*
X14139967Y-9559967D02*
X14160033Y-9580033D01*
X14160033Y-9559967D02*
X14139967Y-9580033D01*
X14193818Y-9466162D02*
X14213884Y-9486228D01*
X14213884Y-9466162D02*
X14193818Y-9486228D01*
X14202578Y-9513356D02*
X14222644Y-9533422D01*
X14222644Y-9513356D02*
X14202578Y-9533422D01*
X14267787Y-9452016D02*
X14287853Y-9472082D01*
X14287853Y-9452016D02*
X14267787Y-9472082D01*
X14269967Y-9499967D02*
X14290033Y-9520033D01*
X14290033Y-9499967D02*
X14269967Y-9520033D01*
X14285967Y-9354967D02*
X14306033Y-9375033D01*
X14306033Y-9354967D02*
X14285967Y-9375033D01*
X14285967Y-10961480D02*
X14306033Y-10981546D01*
X14306033Y-10961480D02*
X14285967Y-10981546D01*
X14349967Y-9448967D02*
X14370033Y-9469033D01*
X14370033Y-9448967D02*
X14349967Y-9469033D01*
X14350952Y-9805078D02*
X14371018Y-9825144D01*
X14371018Y-9805078D02*
X14350952Y-9825144D01*
X14354285Y-10974285D02*
X14374351Y-10994351D01*
X14374351Y-10974285D02*
X14354285Y-10994351D01*
X14355480Y-9296967D02*
X14375546Y-9317033D01*
X14375546Y-9296967D02*
X14355480Y-9317033D01*
X14358576Y-9852265D02*
X14378642Y-9872331D01*
X14378642Y-9852265D02*
X14358576Y-9872331D01*
X14359967Y-8845967D02*
X14380033Y-8866033D01*
X14380033Y-8845967D02*
X14359967Y-8866033D01*
X14371967Y-9954467D02*
X14392033Y-9974533D01*
X14392033Y-9954467D02*
X14371967Y-9974533D01*
X14371967Y-10002467D02*
X14392033Y-10022533D01*
X14392033Y-10002467D02*
X14371967Y-10022533D01*
X14379967Y-10409967D02*
X14400033Y-10430033D01*
X14400033Y-10409967D02*
X14379967Y-10430033D01*
X14379967Y-10461967D02*
X14400033Y-10482033D01*
X14400033Y-10461967D02*
X14379967Y-10482033D01*
X14379967Y-10509967D02*
X14400033Y-10530033D01*
X14400033Y-10509967D02*
X14379967Y-10530033D01*
X14381967Y-8682967D02*
X14402033Y-8703033D01*
X14402033Y-8682967D02*
X14381967Y-8703033D01*
X14382380Y-10049324D02*
X14402446Y-10069390D01*
X14402446Y-10049324D02*
X14382380Y-10069390D01*
X14397948Y-9447596D02*
X14418014Y-9467662D01*
X14418014Y-9447596D02*
X14397948Y-9467662D01*
X14405104Y-10975104D02*
X14425170Y-10995170D01*
X14425170Y-10975104D02*
X14405104Y-10995170D01*
X14406967Y-7460967D02*
X14427033Y-7481033D01*
X14427033Y-7460967D02*
X14406967Y-7481033D01*
X14406967Y-9874967D02*
X14427033Y-9895033D01*
X14427033Y-9874967D02*
X14406967Y-9895033D01*
X14408671Y-11075974D02*
X14428737Y-11096040D01*
X14428737Y-11075974D02*
X14408671Y-11096040D01*
X14410282Y-11025001D02*
X14430348Y-11045067D01*
X14430348Y-11025001D02*
X14410282Y-11045067D01*
X14411967Y-10129967D02*
X14432033Y-10150033D01*
X14432033Y-10129967D02*
X14411967Y-10150033D01*
X14416967Y-8841967D02*
X14437033Y-8862033D01*
X14437033Y-8841967D02*
X14416967Y-8862033D01*
X14421967Y-8539967D02*
X14442033Y-8560033D01*
X14442033Y-8539967D02*
X14421967Y-8560033D01*
X14423967Y-7642967D02*
X14444033Y-7663033D01*
X14444033Y-7642967D02*
X14423967Y-7663033D01*
X14423967Y-7721967D02*
X14444033Y-7742033D01*
X14444033Y-7721967D02*
X14423967Y-7742033D01*
X14423967Y-7801967D02*
X14444033Y-7822033D01*
X14444033Y-7801967D02*
X14423967Y-7822033D01*
X14425659Y-9921135D02*
X14445725Y-9941201D01*
X14445725Y-9921135D02*
X14425659Y-9941201D01*
X14425967Y-7881967D02*
X14446033Y-7902033D01*
X14446033Y-7881967D02*
X14425967Y-7902033D01*
X14425967Y-7961967D02*
X14446033Y-7982033D01*
X14446033Y-7961967D02*
X14425967Y-7982033D01*
X14425967Y-8122967D02*
X14446033Y-8143033D01*
X14446033Y-8122967D02*
X14425967Y-8143033D01*
X14426967Y-8041967D02*
X14447033Y-8062033D01*
X14447033Y-8041967D02*
X14426967Y-8062033D01*
X14426967Y-8201967D02*
X14447033Y-8222033D01*
X14447033Y-8201967D02*
X14426967Y-8222033D01*
X14426967Y-9824967D02*
X14447033Y-9845033D01*
X14447033Y-9824967D02*
X14426967Y-9845033D01*
X14429967Y-10759967D02*
X14450033Y-10780033D01*
X14450033Y-10759967D02*
X14429967Y-10780033D01*
X14433967Y-8681967D02*
X14454033Y-8702033D01*
X14454033Y-8681967D02*
X14433967Y-8702033D01*
X14450967Y-8801967D02*
X14471033Y-8822033D01*
X14471033Y-8801967D02*
X14450967Y-8822033D01*
X14456967Y-11173967D02*
X14477033Y-11194033D01*
X14477033Y-11173967D02*
X14456967Y-11194033D01*
X14468967Y-10479967D02*
X14489033Y-10500033D01*
X14489033Y-10479967D02*
X14468967Y-10500033D01*
X14473967Y-9519967D02*
X14494033Y-9540033D01*
X14494033Y-9519967D02*
X14473967Y-9540033D01*
X14476967Y-9794967D02*
X14497033Y-9815033D01*
X14497033Y-9794967D02*
X14476967Y-9815033D01*
X14476967Y-9842967D02*
X14497033Y-9863033D01*
X14497033Y-9842967D02*
X14476967Y-9863033D01*
X14476967Y-9919967D02*
X14497033Y-9940033D01*
X14497033Y-9919967D02*
X14476967Y-9940033D01*
X14481967Y-10319967D02*
X14502033Y-10340033D01*
X14502033Y-10319967D02*
X14481967Y-10340033D01*
X14483967Y-9445967D02*
X14504033Y-9466033D01*
X14504033Y-9445967D02*
X14483967Y-9466033D01*
X14484967Y-8911967D02*
X14505033Y-8932033D01*
X14505033Y-8911967D02*
X14484967Y-8932033D01*
X14485967Y-10757967D02*
X14506033Y-10778033D01*
X14506033Y-10757967D02*
X14485967Y-10778033D01*
X14528967Y-11104967D02*
X14549033Y-11125033D01*
X14549033Y-11104967D02*
X14528967Y-11125033D01*
X14531967Y-8401967D02*
X14552033Y-8422033D01*
X14552033Y-8401967D02*
X14531967Y-8422033D01*
X14532453Y-8721967D02*
X14552519Y-8742033D01*
X14552519Y-8721967D02*
X14532453Y-8742033D01*
X14532967Y-8560967D02*
X14553033Y-8581033D01*
X14553033Y-8560967D02*
X14532967Y-8581033D01*
X14532967Y-9446967D02*
X14553033Y-9467033D01*
X14553033Y-9446967D02*
X14532967Y-9467033D01*
X14533967Y-7681967D02*
X14554033Y-7702033D01*
X14554033Y-7681967D02*
X14533967Y-7702033D01*
X14533967Y-7840967D02*
X14554033Y-7861033D01*
X14554033Y-7840967D02*
X14533967Y-7861033D01*
X14533967Y-8483967D02*
X14554033Y-8504033D01*
X14554033Y-8483967D02*
X14533967Y-8504033D01*
X14533967Y-8642967D02*
X14554033Y-8663033D01*
X14554033Y-8642967D02*
X14533967Y-8663033D01*
X14534967Y-8320967D02*
X14555033Y-8341033D01*
X14555033Y-8320967D02*
X14534967Y-8341033D01*
X14544967Y-10254967D02*
X14565033Y-10275033D01*
X14565033Y-10254967D02*
X14544967Y-10275033D01*
X14544967Y-10759967D02*
X14565033Y-10780033D01*
X14565033Y-10759967D02*
X14544967Y-10780033D01*
X14546967Y-9924967D02*
X14567033Y-9945033D01*
X14567033Y-9924967D02*
X14546967Y-9945033D01*
X14546967Y-10059967D02*
X14567033Y-10080033D01*
X14567033Y-10059967D02*
X14546967Y-10080033D01*
X14546967Y-10319967D02*
X14567033Y-10340033D01*
X14567033Y-10319967D02*
X14546967Y-10340033D01*
X14546967Y-10384967D02*
X14567033Y-10405033D01*
X14567033Y-10384967D02*
X14546967Y-10405033D01*
X14552075Y-11345667D02*
X14572141Y-11365733D01*
X14572141Y-11345667D02*
X14552075Y-11365733D01*
X14554294Y-11262385D02*
X14574360Y-11282451D01*
X14574360Y-11262385D02*
X14554294Y-11282451D01*
X14556967Y-9804967D02*
X14577033Y-9825033D01*
X14577033Y-9804967D02*
X14556967Y-9825033D01*
X14557898Y-11395493D02*
X14577964Y-11415559D01*
X14577964Y-11395493D02*
X14557898Y-11415559D01*
X14561477Y-10876480D02*
X14581543Y-10896546D01*
X14581543Y-10876480D02*
X14561477Y-10896546D01*
X14578967Y-9465967D02*
X14599033Y-9486033D01*
X14599033Y-9465967D02*
X14578967Y-9486033D01*
X14580967Y-9265967D02*
X14601033Y-9286033D01*
X14601033Y-9265967D02*
X14580967Y-9286033D01*
X14586967Y-9384967D02*
X14607033Y-9405033D01*
X14607033Y-9384967D02*
X14586967Y-9405033D01*
X14590967Y-11309155D02*
X14611033Y-11329221D01*
X14611033Y-11309155D02*
X14590967Y-11329221D01*
X14594967Y-7393967D02*
X14615033Y-7414033D01*
X14615033Y-7393967D02*
X14594967Y-7414033D01*
X14594967Y-9328967D02*
X14615033Y-9349033D01*
X14615033Y-9328967D02*
X14594967Y-9349033D01*
X14597039Y-11236129D02*
X14617105Y-11256195D01*
X14617105Y-11236129D02*
X14597039Y-11256195D01*
X14608967Y-8648967D02*
X14629033Y-8669033D01*
X14629033Y-8648967D02*
X14608967Y-8669033D01*
X14610967Y-8322967D02*
X14631033Y-8343033D01*
X14631033Y-8322967D02*
X14610967Y-8343033D01*
X14611967Y-8481967D02*
X14632033Y-8502033D01*
X14632033Y-8481967D02*
X14611967Y-8502033D01*
X14611967Y-8559967D02*
X14632033Y-8580033D01*
X14632033Y-8559967D02*
X14611967Y-8580033D01*
X14611967Y-9924967D02*
X14632033Y-9945033D01*
X14632033Y-9924967D02*
X14611967Y-9945033D01*
X14611967Y-10059967D02*
X14632033Y-10080033D01*
X14632033Y-10059967D02*
X14611967Y-10080033D01*
X14612967Y-8402967D02*
X14633033Y-8423033D01*
X14633033Y-8402967D02*
X14612967Y-8423033D01*
X14615967Y-7679967D02*
X14636033Y-7700033D01*
X14636033Y-7679967D02*
X14615967Y-7700033D01*
X14616967Y-9834967D02*
X14637033Y-9855033D01*
X14637033Y-9834967D02*
X14616967Y-9855033D01*
X14616967Y-10119967D02*
X14637033Y-10140033D01*
X14637033Y-10119967D02*
X14616967Y-10140033D01*
X14641967Y-9372967D02*
X14662033Y-9393033D01*
X14662033Y-9372967D02*
X14641967Y-9393033D01*
X14675967Y-10779967D02*
X14696033Y-10800033D01*
X14696033Y-10779967D02*
X14675967Y-10800033D01*
X14676967Y-9924967D02*
X14697033Y-9945033D01*
X14697033Y-9924967D02*
X14676967Y-9945033D01*
X14676967Y-10249967D02*
X14697033Y-10270033D01*
X14697033Y-10249967D02*
X14676967Y-10270033D01*
X14676967Y-10384967D02*
X14697033Y-10405033D01*
X14697033Y-10384967D02*
X14676967Y-10405033D01*
X14686967Y-9834967D02*
X14707033Y-9855033D01*
X14707033Y-9834967D02*
X14686967Y-9855033D01*
X14691967Y-8321967D02*
X14712033Y-8342033D01*
X14712033Y-8321967D02*
X14691967Y-8342033D01*
X14692852Y-8243130D02*
X14712918Y-8263196D01*
X14712918Y-8243130D02*
X14692852Y-8263196D01*
X14693130Y-7760967D02*
X14713196Y-7781033D01*
X14713196Y-7760967D02*
X14693130Y-7781033D01*
X14693130Y-7838967D02*
X14713196Y-7859033D01*
X14713196Y-7838967D02*
X14693130Y-7859033D01*
X14693130Y-7921967D02*
X14713196Y-7942033D01*
X14713196Y-7921967D02*
X14693130Y-7942033D01*
X14693967Y-8402967D02*
X14714033Y-8423033D01*
X14714033Y-8402967D02*
X14693967Y-8423033D01*
X14698967Y-7396967D02*
X14719033Y-7417033D01*
X14719033Y-7396967D02*
X14698967Y-7417033D01*
X14729967Y-10505967D02*
X14750033Y-10526033D01*
X14750033Y-10505967D02*
X14729967Y-10526033D01*
X14736967Y-9919967D02*
X14757033Y-9940033D01*
X14757033Y-9919967D02*
X14736967Y-9940033D01*
X14741967Y-10059967D02*
X14762033Y-10080033D01*
X14762033Y-10059967D02*
X14741967Y-10080033D01*
X14741967Y-10254967D02*
X14762033Y-10275033D01*
X14762033Y-10254967D02*
X14741967Y-10275033D01*
X14742967Y-10119967D02*
X14763033Y-10140033D01*
X14763033Y-10119967D02*
X14742967Y-10140033D01*
X14744967Y-10313967D02*
X14765033Y-10334033D01*
X14765033Y-10313967D02*
X14744967Y-10334033D01*
X14778967Y-9385967D02*
X14799033Y-9406033D01*
X14799033Y-9385967D02*
X14778967Y-9406033D01*
X14784784Y-9790396D02*
X14804850Y-9810462D01*
X14804850Y-9790396D02*
X14784784Y-9810462D01*
X14787132Y-9838339D02*
X14807198Y-9858405D01*
X14807198Y-9838339D02*
X14787132Y-9858405D01*
X14793444Y-10998967D02*
X14813510Y-11019033D01*
X14813510Y-10998967D02*
X14793444Y-11019033D01*
X14806967Y-9924967D02*
X14827033Y-9945033D01*
X14827033Y-9924967D02*
X14806967Y-9945033D01*
X14806967Y-10124967D02*
X14827033Y-10145033D01*
X14827033Y-10124967D02*
X14806967Y-10145033D01*
X14806967Y-10254967D02*
X14827033Y-10275033D01*
X14827033Y-10254967D02*
X14806967Y-10275033D01*
X14806967Y-10319967D02*
X14827033Y-10340033D01*
X14827033Y-10319967D02*
X14806967Y-10340033D01*
X14812908Y-9419908D02*
X14832974Y-9439974D01*
X14832974Y-9419908D02*
X14812908Y-9439974D01*
X14816967Y-10454967D02*
X14837033Y-10475033D01*
X14837033Y-10454967D02*
X14816967Y-10475033D01*
X14819596Y-9467440D02*
X14839662Y-9487506D01*
X14839662Y-9467440D02*
X14819596Y-9487506D01*
X14828182Y-9540752D02*
X14848248Y-9560818D01*
X14848248Y-9540752D02*
X14828182Y-9560818D01*
X14845967Y-10741967D02*
X14866033Y-10762033D01*
X14866033Y-10741967D02*
X14845967Y-10762033D01*
X14849967Y-10884967D02*
X14870033Y-10905033D01*
X14870033Y-10884967D02*
X14849967Y-10905033D01*
X14866967Y-9804967D02*
X14887033Y-9825033D01*
X14887033Y-9804967D02*
X14866967Y-9825033D01*
X14866967Y-9854967D02*
X14887033Y-9875033D01*
X14887033Y-9854967D02*
X14866967Y-9875033D01*
X14871967Y-9924967D02*
X14892033Y-9945033D01*
X14892033Y-9924967D02*
X14871967Y-9945033D01*
X14871967Y-10059967D02*
X14892033Y-10080033D01*
X14892033Y-10059967D02*
X14871967Y-10080033D01*
X14871967Y-10319967D02*
X14892033Y-10340033D01*
X14892033Y-10319967D02*
X14871967Y-10340033D01*
X14871967Y-10384967D02*
X14892033Y-10405033D01*
X14892033Y-10384967D02*
X14871967Y-10405033D01*
X14876967Y-10249967D02*
X14897033Y-10270033D01*
X14897033Y-10249967D02*
X14876967Y-10270033D01*
X14877967Y-10789967D02*
X14898033Y-10810033D01*
X14898033Y-10789967D02*
X14877967Y-10810033D01*
X14878967Y-11274967D02*
X14899033Y-11295033D01*
X14899033Y-11274967D02*
X14878967Y-11295033D01*
X14888967Y-7463967D02*
X14909033Y-7484033D01*
X14909033Y-7463967D02*
X14888967Y-7484033D01*
X14896453Y-10872967D02*
X14916519Y-10893033D01*
X14916519Y-10872967D02*
X14896453Y-10893033D01*
X14909967Y-10499967D02*
X14930033Y-10520033D01*
X14930033Y-10499967D02*
X14909967Y-10520033D01*
X14914967Y-9854967D02*
X14935033Y-9875033D01*
X14935033Y-9854967D02*
X14914967Y-9875033D01*
X14926967Y-8163967D02*
X14947033Y-8184033D01*
X14947033Y-8163967D02*
X14926967Y-8184033D01*
X14930967Y-7923967D02*
X14951033Y-7944033D01*
X14951033Y-7923967D02*
X14930967Y-7944033D01*
X14931967Y-8321967D02*
X14952033Y-8342033D01*
X14952033Y-8321967D02*
X14931967Y-8342033D01*
X14932967Y-7761967D02*
X14953033Y-7782033D01*
X14953033Y-7761967D02*
X14932967Y-7782033D01*
X14936967Y-9924967D02*
X14957033Y-9945033D01*
X14957033Y-9924967D02*
X14936967Y-9945033D01*
X14936967Y-10059967D02*
X14957033Y-10080033D01*
X14957033Y-10059967D02*
X14936967Y-10080033D01*
X14936967Y-10124967D02*
X14957033Y-10145033D01*
X14957033Y-10124967D02*
X14936967Y-10145033D01*
X14936967Y-10254967D02*
X14957033Y-10275033D01*
X14957033Y-10254967D02*
X14936967Y-10275033D01*
X14936967Y-10314967D02*
X14957033Y-10335033D01*
X14957033Y-10314967D02*
X14936967Y-10335033D01*
X14936967Y-10380967D02*
X14957033Y-10401033D01*
X14957033Y-10380967D02*
X14936967Y-10401033D01*
X14938967Y-8563967D02*
X14959033Y-8584033D01*
X14959033Y-8563967D02*
X14938967Y-8584033D01*
X14941679Y-10889049D02*
X14961745Y-10909115D01*
X14961745Y-10889049D02*
X14941679Y-10909115D01*
X14986967Y-11158967D02*
X15007033Y-11179033D01*
X15007033Y-11158967D02*
X14986967Y-11179033D01*
X14989664Y-10887854D02*
X15009730Y-10907920D01*
X15009730Y-10887854D02*
X14989664Y-10907920D01*
X14992990Y-10839990D02*
X15013056Y-10860056D01*
X15013056Y-10839990D02*
X14992990Y-10860056D01*
X15000290Y-8898967D02*
X15020356Y-8919033D01*
X15020356Y-8898967D02*
X15000290Y-8919033D01*
X15006967Y-9844967D02*
X15027033Y-9865033D01*
X15027033Y-9844967D02*
X15006967Y-9865033D01*
X15011967Y-7760967D02*
X15032033Y-7781033D01*
X15032033Y-7760967D02*
X15011967Y-7781033D01*
X15011967Y-8643967D02*
X15032033Y-8664033D01*
X15032033Y-8643967D02*
X15011967Y-8664033D01*
X15012803Y-8322967D02*
X15032869Y-8343033D01*
X15032869Y-8322967D02*
X15012803Y-8343033D01*
X15012967Y-7680967D02*
X15033033Y-7701033D01*
X15033033Y-7680967D02*
X15012967Y-7701033D01*
X15014130Y-8482556D02*
X15034196Y-8502622D01*
X15034196Y-8482556D02*
X15014130Y-8502622D01*
X15016967Y-9794967D02*
X15037033Y-9815033D01*
X15037033Y-9794967D02*
X15016967Y-9815033D01*
X15025967Y-10742967D02*
X15046033Y-10763033D01*
X15046033Y-10742967D02*
X15025967Y-10763033D01*
X15031967Y-10024967D02*
X15052033Y-10045033D01*
X15052033Y-10024967D02*
X15031967Y-10045033D01*
X15036454Y-8955967D02*
X15056520Y-8976033D01*
X15056520Y-8955967D02*
X15036454Y-8976033D01*
X15065967Y-10769967D02*
X15086033Y-10790033D01*
X15086033Y-10769967D02*
X15065967Y-10790033D01*
X15066967Y-9794967D02*
X15087033Y-9815033D01*
X15087033Y-9794967D02*
X15066967Y-9815033D01*
X15066967Y-9924967D02*
X15087033Y-9945033D01*
X15087033Y-9924967D02*
X15066967Y-9945033D01*
X15091967Y-7761967D02*
X15112033Y-7782033D01*
X15112033Y-7761967D02*
X15091967Y-7782033D01*
X15091967Y-7841967D02*
X15112033Y-7862033D01*
X15112033Y-7841967D02*
X15091967Y-7862033D01*
X15091967Y-7920967D02*
X15112033Y-7941033D01*
X15112033Y-7920967D02*
X15091967Y-7941033D01*
X15093967Y-7681967D02*
X15114033Y-7702033D01*
X15114033Y-7681967D02*
X15093967Y-7702033D01*
X15111967Y-10786967D02*
X15132033Y-10807033D01*
X15132033Y-10786967D02*
X15111967Y-10807033D01*
X15138967Y-11335967D02*
X15159033Y-11356033D01*
X15159033Y-11335967D02*
X15138967Y-11356033D01*
X15150967Y-10748967D02*
X15171033Y-10769033D01*
X15171033Y-10748967D02*
X15150967Y-10769033D01*
X15166752Y-8639721D02*
X15186818Y-8659787D01*
X15186818Y-8639721D02*
X15166752Y-8659787D01*
X15188551Y-8808816D02*
X15208617Y-8828882D01*
X15208617Y-8808816D02*
X15188551Y-8828882D01*
X15192967Y-8361967D02*
X15213033Y-8382033D01*
X15213033Y-8361967D02*
X15192967Y-8382033D01*
X15192967Y-8899143D02*
X15213033Y-8919209D01*
X15213033Y-8899143D02*
X15192967Y-8919209D01*
X15194967Y-8201967D02*
X15215033Y-8222033D01*
X15215033Y-8201967D02*
X15194967Y-8222033D01*
X15197967Y-8122130D02*
X15218033Y-8142196D01*
X15218033Y-8122130D02*
X15197967Y-8142196D01*
X15199621Y-10810350D02*
X15219687Y-10830416D01*
X15219687Y-10810350D02*
X15199621Y-10830416D01*
X15200186Y-8728490D02*
X15220252Y-8748556D01*
X15220252Y-8728490D02*
X15200186Y-8748556D01*
X15200967Y-8038967D02*
X15221033Y-8059033D01*
X15221033Y-8038967D02*
X15200967Y-8059033D01*
X15206967Y-8291967D02*
X15227033Y-8312033D01*
X15227033Y-8291967D02*
X15206967Y-8312033D01*
X15233967Y-9081967D02*
X15254033Y-9102033D01*
X15254033Y-9081967D02*
X15233967Y-9102033D01*
X15240967Y-10785967D02*
X15261033Y-10806033D01*
X15261033Y-10785967D02*
X15240967Y-10806033D01*
X15245967Y-7767967D02*
X15266033Y-7788033D01*
X15266033Y-7767967D02*
X15245967Y-7788033D01*
X15251967Y-8482967D02*
X15272033Y-8503033D01*
X15272033Y-8482967D02*
X15251967Y-8503033D01*
X15253967Y-8557131D02*
X15274033Y-8577197D01*
X15274033Y-8557131D02*
X15253967Y-8577197D01*
X15254967Y-8625804D02*
X15275033Y-8645870D01*
X15275033Y-8625804D02*
X15254967Y-8645870D01*
X15264967Y-7680967D02*
X15285033Y-7701033D01*
X15285033Y-7680967D02*
X15264967Y-7701033D01*
X15269003Y-8780003D02*
X15289069Y-8800069D01*
X15289069Y-8780003D02*
X15269003Y-8800069D01*
X15285967Y-11131967D02*
X15306033Y-11152033D01*
X15306033Y-11131967D02*
X15285967Y-11152033D01*
X15289967Y-8204804D02*
X15310033Y-8224870D01*
X15310033Y-8204804D02*
X15289967Y-8224870D01*
X15300967Y-8700967D02*
X15321033Y-8721033D01*
X15321033Y-8700967D02*
X15300967Y-8721033D01*
X15301967Y-8878967D02*
X15322033Y-8899033D01*
X15322033Y-8878967D02*
X15301967Y-8899033D01*
X15305967Y-9578967D02*
X15326033Y-9599033D01*
X15326033Y-9578967D02*
X15305967Y-9599033D01*
X15310967Y-10227967D02*
X15331033Y-10248033D01*
X15331033Y-10227967D02*
X15310967Y-10248033D01*
X15312967Y-10282942D02*
X15333033Y-10303008D01*
X15333033Y-10282942D02*
X15312967Y-10303008D01*
X15316967Y-10372305D02*
X15337033Y-10392371D01*
X15337033Y-10372305D02*
X15316967Y-10392371D01*
X15325967Y-9989967D02*
X15346033Y-10010033D01*
X15346033Y-9989967D02*
X15325967Y-10010033D01*
X15327967Y-10040967D02*
X15348033Y-10061033D01*
X15348033Y-10040967D02*
X15327967Y-10061033D01*
X15333967Y-10560967D02*
X15354033Y-10581033D01*
X15354033Y-10560967D02*
X15333967Y-10581033D01*
X15353967Y-9842967D02*
X15374033Y-9863033D01*
X15374033Y-9842967D02*
X15353967Y-9863033D01*
X15424967Y-10739967D02*
X15445033Y-10760033D01*
X15445033Y-10739967D02*
X15424967Y-10760033D01*
X15438967Y-10785967D02*
X15459033Y-10806033D01*
X15459033Y-10785967D02*
X15438967Y-10806033D01*
X15446967Y-10434967D02*
X15467033Y-10455033D01*
X15467033Y-10434967D02*
X15446967Y-10455033D01*
X15486967Y-10660967D02*
X15507033Y-10681033D01*
X15507033Y-10660967D02*
X15486967Y-10681033D01*
X15503967Y-10783967D02*
X15524033Y-10804033D01*
X15524033Y-10783967D02*
X15503967Y-10804033D01*
X15516967Y-10419967D02*
X15537033Y-10440033D01*
X15537033Y-10419967D02*
X15516967Y-10440033D01*
X15521967Y-10355967D02*
X15542033Y-10376033D01*
X15542033Y-10355967D02*
X15521967Y-10376033D01*
X15525538Y-9683538D02*
X15545604Y-9703604D01*
X15545604Y-9683538D02*
X15525538Y-9703604D01*
X15572967Y-10393967D02*
X15593033Y-10414033D01*
X15593033Y-10393967D02*
X15572967Y-10414033D01*
X15577967Y-9634967D02*
X15598033Y-9655033D01*
X15598033Y-9634967D02*
X15577967Y-9655033D01*
X15615967Y-7634967D02*
X15636033Y-7655033D01*
X15636033Y-7634967D02*
X15615967Y-7655033D01*
X15622967Y-10043967D02*
X15643033Y-10064033D01*
X15643033Y-10043967D02*
X15622967Y-10064033D01*
X15685967Y-8718967D02*
X15706033Y-8739033D01*
X15706033Y-8718967D02*
X15685967Y-8739033D01*
X15688967Y-7749967D02*
X15709033Y-7770033D01*
X15709033Y-7749967D02*
X15688967Y-7770033D01*
X15688967Y-8180967D02*
X15709033Y-8201033D01*
X15709033Y-8180967D02*
X15688967Y-8201033D01*
X15688967Y-8444967D02*
X15709033Y-8465033D01*
X15709033Y-8444967D02*
X15688967Y-8465033D01*
X15689967Y-7964967D02*
X15710033Y-7985033D01*
X15710033Y-7964967D02*
X15689967Y-7985033D01*
X15689967Y-9693967D02*
X15710033Y-9714033D01*
X15710033Y-9693967D02*
X15689967Y-9714033D01*
X15694967Y-7432967D02*
X15715033Y-7453033D01*
X15715033Y-7432967D02*
X15694967Y-7453033D01*
X15706875Y-9766176D02*
X15726941Y-9786242D01*
X15726941Y-9766176D02*
X15706875Y-9786242D01*
X15753967Y-10688967D02*
X15774033Y-10709033D01*
X15774033Y-10688967D02*
X15753967Y-10709033D01*
X15773095Y-8435095D02*
X15793161Y-8455161D01*
X15793161Y-8435095D02*
X15773095Y-8455161D01*
X15785967Y-8170967D02*
X15806033Y-8191033D01*
X15806033Y-8170967D02*
X15785967Y-8191033D01*
X15787967Y-7739967D02*
X15808033Y-7760033D01*
X15808033Y-7739967D02*
X15787967Y-7760033D01*
X15787967Y-7950967D02*
X15808033Y-7971033D01*
X15808033Y-7950967D02*
X15787967Y-7971033D01*
X15864967Y-7511967D02*
X15885033Y-7532033D01*
X15885033Y-7511967D02*
X15864967Y-7532033D01*
X15884967Y-8485967D02*
X15905033Y-8506033D01*
X15905033Y-8485967D02*
X15884967Y-8506033D01*
X15891967Y-8564967D02*
X15912033Y-8585033D01*
X15912033Y-8564967D02*
X15891967Y-8585033D01*
X15905970Y-8652564D02*
X15926036Y-8672630D01*
X15926036Y-8652564D02*
X15905970Y-8672630D01*
X15913967Y-8443967D02*
X15934033Y-8464033D01*
X15934033Y-8443967D02*
X15913967Y-8464033D01*
X15920967Y-8606967D02*
X15941033Y-8627033D01*
X15941033Y-8606967D02*
X15920967Y-8627033D01*
X15922872Y-8523302D02*
X15942938Y-8543368D01*
X15942938Y-8523302D02*
X15922872Y-8543368D01*
X15927680Y-8695374D02*
X15947746Y-8715440D01*
X15947746Y-8695374D02*
X15927680Y-8715440D01*
X16064967Y-8405704D02*
X16085033Y-8425770D01*
X16085033Y-8405704D02*
X16064967Y-8425770D01*
X16107967Y-8366967D02*
X16128033Y-8387033D01*
X16128033Y-8366967D02*
X16107967Y-8387033D01*
X16138967Y-8483809D02*
X16159033Y-8503875D01*
X16159033Y-8483809D02*
X16138967Y-8503875D01*
X16154609Y-10727069D02*
X16174675Y-10747135D01*
X16174675Y-10727069D02*
X16154609Y-10747135D01*
X16157132Y-10676967D02*
X16177198Y-10697033D01*
X16177198Y-10676967D02*
X16157132Y-10697033D01*
X16158191Y-8767860D02*
X16178257Y-8787926D01*
X16178257Y-8767860D02*
X16158191Y-8787926D01*
X16159572Y-8688865D02*
X16179638Y-8708931D01*
X16179638Y-8688865D02*
X16159572Y-8708931D01*
X16181967Y-8523967D02*
X16202033Y-8544033D01*
X16202033Y-8523967D02*
X16181967Y-8544033D01*
X16183967Y-8366967D02*
X16204033Y-8387033D01*
X16204033Y-8366967D02*
X16183967Y-8387033D01*
X16191089Y-8444756D02*
X16211155Y-8464822D01*
X16211155Y-8444756D02*
X16191089Y-8464822D01*
X16194967Y-8806914D02*
X16215033Y-8826980D01*
X16215033Y-8806914D02*
X16194967Y-8826980D01*
X16195359Y-8727915D02*
X16215425Y-8747981D01*
X16215425Y-8727915D02*
X16195359Y-8747981D01*
X16332967Y-8845967D02*
X16353033Y-8866033D01*
X16353033Y-8845967D02*
X16332967Y-8866033D01*
X16333967Y-8561967D02*
X16354033Y-8582033D01*
X16354033Y-8561967D02*
X16333967Y-8582033D01*
X16334967Y-9086967D02*
X16355033Y-9107033D01*
X16355033Y-9086967D02*
X16334967Y-9107033D01*
X16334967Y-9166967D02*
X16355033Y-9187033D01*
X16355033Y-9166967D02*
X16334967Y-9187033D01*
X16335967Y-9244967D02*
X16356033Y-9265033D01*
X16356033Y-9244967D02*
X16335967Y-9265033D01*
X16374967Y-9203967D02*
X16395033Y-9224033D01*
X16395033Y-9203967D02*
X16374967Y-9224033D01*
X16380967Y-9285967D02*
X16401033Y-9306033D01*
X16401033Y-9285967D02*
X16380967Y-9306033D01*
X16383967Y-9124967D02*
X16404033Y-9145033D01*
X16404033Y-9124967D02*
X16383967Y-9145033D01*
X16409967Y-9362967D02*
X16430033Y-9383033D01*
X16430033Y-9362967D02*
X16409967Y-9383033D01*
X16412967Y-9477967D02*
X16433033Y-9498033D01*
X16433033Y-9477967D02*
X16412967Y-9498033D01*
X16422331Y-9314349D02*
X16442397Y-9334415D01*
X16442397Y-9314349D02*
X16422331Y-9334415D01*
X16429967Y-9523967D02*
X16450033Y-9544033D01*
X16450033Y-9523967D02*
X16429967Y-9544033D01*
X16445967Y-9407967D02*
X16466033Y-9428033D01*
X16466033Y-9407967D02*
X16445967Y-9428033D01*
X11910000Y-6950000D02*
G75*
G03*
X11910000Y-6950000I-110000J0D01*
G01*
X11910000Y-11350000D02*
G75*
G03*
X11910000Y-11350000I-110000J0D01*
G01*
X16310000Y-6950000D02*
G75*
G03*
X16310000Y-6950000I-110000J0D01*
G01*
X16310000Y-11350000D02*
G75*
G03*
X16310000Y-11350000I-110000J0D01*
G01*
D12*
X11783928Y-12118214D02*
X11783928Y-11818214D01*
X11855357Y-11818214D01*
X11898214Y-11832500D01*
X11926786Y-11861071D01*
X11941071Y-11889643D01*
X11955357Y-11946786D01*
X11955357Y-11989643D01*
X11941071Y-12046786D01*
X11926786Y-12075357D01*
X11898214Y-12103929D01*
X11855357Y-12118214D01*
X11783928Y-12118214D01*
X12083928Y-12118214D02*
X12083928Y-11918214D01*
X12083928Y-11975357D02*
X12098214Y-11946786D01*
X12112500Y-11932500D01*
X12141071Y-11918214D01*
X12169643Y-11918214D01*
X12269643Y-12118214D02*
X12269643Y-11918214D01*
X12269643Y-11818214D02*
X12255357Y-11832500D01*
X12269643Y-11846786D01*
X12283928Y-11832500D01*
X12269643Y-11818214D01*
X12269643Y-11846786D01*
X12455357Y-12118214D02*
X12426786Y-12103929D01*
X12412500Y-12075357D01*
X12412500Y-11818214D01*
X12612500Y-12118214D02*
X12583928Y-12103929D01*
X12569643Y-12075357D01*
X12569643Y-11818214D01*
X12955357Y-12118214D02*
X12955357Y-11818214D01*
X13055357Y-12032500D01*
X13155357Y-11818214D01*
X13155357Y-12118214D01*
X13426786Y-12118214D02*
X13426786Y-11961071D01*
X13412500Y-11932500D01*
X13383928Y-11918214D01*
X13326786Y-11918214D01*
X13298214Y-11932500D01*
X13426786Y-12103929D02*
X13398214Y-12118214D01*
X13326786Y-12118214D01*
X13298214Y-12103929D01*
X13283928Y-12075357D01*
X13283928Y-12046786D01*
X13298214Y-12018214D01*
X13326786Y-12003929D01*
X13398214Y-12003929D01*
X13426786Y-11989643D01*
X13569643Y-11918214D02*
X13569643Y-12218214D01*
X13569643Y-11932500D02*
X13598214Y-11918214D01*
X13655357Y-11918214D01*
X13683928Y-11932500D01*
X13698214Y-11946786D01*
X13712500Y-11975357D01*
X13712500Y-12061071D01*
X13698214Y-12089643D01*
X13683928Y-12103929D01*
X13655357Y-12118214D01*
X13598214Y-12118214D01*
X13569643Y-12103929D01*
X13841071Y-12089643D02*
X13855357Y-12103929D01*
X13841071Y-12118214D01*
X13826786Y-12103929D01*
X13841071Y-12089643D01*
X13841071Y-12118214D01*
X13841071Y-11932500D02*
X13855357Y-11946786D01*
X13841071Y-11961071D01*
X13826786Y-11946786D01*
X13841071Y-11932500D01*
X13841071Y-11961071D01*
X11477434Y-12602467D02*
X11497500Y-12622533D01*
X11497500Y-12602467D02*
X11477434Y-12622533D01*
X11841071Y-12448214D02*
X11869643Y-12448214D01*
X11898214Y-12462500D01*
X11912500Y-12476786D01*
X11926786Y-12505357D01*
X11941071Y-12562500D01*
X11941071Y-12633929D01*
X11926786Y-12691071D01*
X11912500Y-12719643D01*
X11898214Y-12733929D01*
X11869643Y-12748214D01*
X11841071Y-12748214D01*
X11812500Y-12733929D01*
X11798214Y-12719643D01*
X11783928Y-12691071D01*
X11769643Y-12633929D01*
X11769643Y-12562500D01*
X11783928Y-12505357D01*
X11798214Y-12476786D01*
X11812500Y-12462500D01*
X11841071Y-12448214D01*
X12069643Y-12719643D02*
X12083928Y-12733929D01*
X12069643Y-12748214D01*
X12055357Y-12733929D01*
X12069643Y-12719643D01*
X12069643Y-12748214D01*
X12198214Y-12476786D02*
X12212500Y-12462500D01*
X12241071Y-12448214D01*
X12312500Y-12448214D01*
X12341071Y-12462500D01*
X12355357Y-12476786D01*
X12369643Y-12505357D01*
X12369643Y-12533929D01*
X12355357Y-12576786D01*
X12183928Y-12748214D01*
X12369643Y-12748214D01*
X12555357Y-12448214D02*
X12583928Y-12448214D01*
X12612500Y-12462500D01*
X12626786Y-12476786D01*
X12641071Y-12505357D01*
X12655357Y-12562500D01*
X12655357Y-12633929D01*
X12641071Y-12691071D01*
X12626786Y-12719643D01*
X12612500Y-12733929D01*
X12583928Y-12748214D01*
X12555357Y-12748214D01*
X12526786Y-12733929D01*
X12512500Y-12719643D01*
X12498214Y-12691071D01*
X12483928Y-12633929D01*
X12483928Y-12562500D01*
X12498214Y-12505357D01*
X12512500Y-12476786D01*
X12526786Y-12462500D01*
X12555357Y-12448214D01*
X12941071Y-12748214D02*
X12769643Y-12748214D01*
X12855357Y-12748214D02*
X12855357Y-12448214D01*
X12826786Y-12491071D01*
X12798214Y-12519643D01*
X12769643Y-12533929D01*
X13069643Y-12748214D02*
X13069643Y-12548214D01*
X13069643Y-12576786D02*
X13083928Y-12562500D01*
X13112500Y-12548214D01*
X13155357Y-12548214D01*
X13183928Y-12562500D01*
X13198214Y-12591071D01*
X13198214Y-12748214D01*
X13198214Y-12591071D02*
X13212500Y-12562500D01*
X13241071Y-12548214D01*
X13283928Y-12548214D01*
X13312500Y-12562500D01*
X13326786Y-12591071D01*
X13326786Y-12748214D01*
X13469643Y-12748214D02*
X13469643Y-12548214D01*
X13469643Y-12576786D02*
X13483928Y-12562500D01*
X13512500Y-12548214D01*
X13555357Y-12548214D01*
X13583928Y-12562500D01*
X13598214Y-12591071D01*
X13598214Y-12748214D01*
X13598214Y-12591071D02*
X13612500Y-12562500D01*
X13641071Y-12548214D01*
X13683928Y-12548214D01*
X13712500Y-12562500D01*
X13726786Y-12591071D01*
X13726786Y-12748214D01*
X14312500Y-12433929D02*
X14055357Y-12819643D01*
X14698214Y-12448214D02*
X14726786Y-12448214D01*
X14755357Y-12462500D01*
X14769643Y-12476786D01*
X14783928Y-12505357D01*
X14798214Y-12562500D01*
X14798214Y-12633929D01*
X14783928Y-12691071D01*
X14769643Y-12719643D01*
X14755357Y-12733929D01*
X14726786Y-12748214D01*
X14698214Y-12748214D01*
X14669643Y-12733929D01*
X14655357Y-12719643D01*
X14641071Y-12691071D01*
X14626786Y-12633929D01*
X14626786Y-12562500D01*
X14641071Y-12505357D01*
X14655357Y-12476786D01*
X14669643Y-12462500D01*
X14698214Y-12448214D01*
X14926786Y-12719643D02*
X14941071Y-12733929D01*
X14926786Y-12748214D01*
X14912500Y-12733929D01*
X14926786Y-12719643D01*
X14926786Y-12748214D01*
X15126786Y-12448214D02*
X15155357Y-12448214D01*
X15183928Y-12462500D01*
X15198214Y-12476786D01*
X15212500Y-12505357D01*
X15226786Y-12562500D01*
X15226786Y-12633929D01*
X15212500Y-12691071D01*
X15198214Y-12719643D01*
X15183928Y-12733929D01*
X15155357Y-12748214D01*
X15126786Y-12748214D01*
X15098214Y-12733929D01*
X15083928Y-12719643D01*
X15069643Y-12691071D01*
X15055357Y-12633929D01*
X15055357Y-12562500D01*
X15069643Y-12505357D01*
X15083928Y-12476786D01*
X15098214Y-12462500D01*
X15126786Y-12448214D01*
X15412500Y-12448214D02*
X15441071Y-12448214D01*
X15469643Y-12462500D01*
X15483928Y-12476786D01*
X15498214Y-12505357D01*
X15512500Y-12562500D01*
X15512500Y-12633929D01*
X15498214Y-12691071D01*
X15483928Y-12719643D01*
X15469643Y-12733929D01*
X15441071Y-12748214D01*
X15412500Y-12748214D01*
X15383928Y-12733929D01*
X15369643Y-12719643D01*
X15355357Y-12691071D01*
X15341071Y-12633929D01*
X15341071Y-12562500D01*
X15355357Y-12505357D01*
X15369643Y-12476786D01*
X15383928Y-12462500D01*
X15412500Y-12448214D01*
X15612500Y-12448214D02*
X15812500Y-12448214D01*
X15683928Y-12748214D01*
X15941071Y-12748214D02*
X15998214Y-12748214D01*
X16026786Y-12733929D01*
X16041071Y-12719643D01*
X16069643Y-12676786D01*
X16083928Y-12619643D01*
X16083928Y-12505357D01*
X16069643Y-12476786D01*
X16055357Y-12462500D01*
X16026786Y-12448214D01*
X15969643Y-12448214D01*
X15941071Y-12462500D01*
X15926786Y-12476786D01*
X15912500Y-12505357D01*
X15912500Y-12576786D01*
X15926786Y-12605357D01*
X15941071Y-12619643D01*
X15969643Y-12633929D01*
X16026786Y-12633929D01*
X16055357Y-12619643D01*
X16069643Y-12605357D01*
X16083928Y-12576786D01*
X16198214Y-12448214D02*
X16198214Y-12505357D01*
X16312500Y-12448214D02*
X16312500Y-12505357D01*
X16755357Y-12862500D02*
X16741071Y-12848214D01*
X16712500Y-12805357D01*
X16698214Y-12776786D01*
X16683928Y-12733929D01*
X16669643Y-12662500D01*
X16669643Y-12605357D01*
X16683928Y-12533929D01*
X16698214Y-12491071D01*
X16712500Y-12462500D01*
X16741071Y-12419643D01*
X16755357Y-12405357D01*
X16998214Y-12548214D02*
X16998214Y-12748214D01*
X16926786Y-12433929D02*
X16855357Y-12648214D01*
X17041071Y-12648214D01*
X17169643Y-12748214D02*
X17226786Y-12748214D01*
X17255357Y-12733929D01*
X17269643Y-12719643D01*
X17298214Y-12676786D01*
X17312500Y-12619643D01*
X17312500Y-12505357D01*
X17298214Y-12476786D01*
X17283928Y-12462500D01*
X17255357Y-12448214D01*
X17198214Y-12448214D01*
X17169643Y-12462500D01*
X17155357Y-12476786D01*
X17141071Y-12505357D01*
X17141071Y-12576786D01*
X17155357Y-12605357D01*
X17169643Y-12619643D01*
X17198214Y-12633929D01*
X17255357Y-12633929D01*
X17283928Y-12619643D01*
X17298214Y-12605357D01*
X17312500Y-12576786D01*
X17498214Y-12448214D02*
X17526786Y-12448214D01*
X17555357Y-12462500D01*
X17569643Y-12476786D01*
X17583928Y-12505357D01*
X17598214Y-12562500D01*
X17598214Y-12633929D01*
X17583928Y-12691071D01*
X17569643Y-12719643D01*
X17555357Y-12733929D01*
X17526786Y-12748214D01*
X17498214Y-12748214D01*
X17469643Y-12733929D01*
X17455357Y-12719643D01*
X17441071Y-12691071D01*
X17426786Y-12633929D01*
X17426786Y-12562500D01*
X17441071Y-12505357D01*
X17455357Y-12476786D01*
X17469643Y-12462500D01*
X17498214Y-12448214D01*
X17955357Y-12748214D02*
X17955357Y-12448214D01*
X18083928Y-12748214D02*
X18083928Y-12591071D01*
X18069643Y-12562500D01*
X18041071Y-12548214D01*
X17998214Y-12548214D01*
X17969643Y-12562500D01*
X17955357Y-12576786D01*
X18269643Y-12748214D02*
X18241071Y-12733929D01*
X18226786Y-12719643D01*
X18212500Y-12691071D01*
X18212500Y-12605357D01*
X18226786Y-12576786D01*
X18241071Y-12562500D01*
X18269643Y-12548214D01*
X18312500Y-12548214D01*
X18341071Y-12562500D01*
X18355357Y-12576786D01*
X18369643Y-12605357D01*
X18369643Y-12691071D01*
X18355357Y-12719643D01*
X18341071Y-12733929D01*
X18312500Y-12748214D01*
X18269643Y-12748214D01*
X18541071Y-12748214D02*
X18512500Y-12733929D01*
X18498214Y-12705357D01*
X18498214Y-12448214D01*
X18769643Y-12733929D02*
X18741071Y-12748214D01*
X18683928Y-12748214D01*
X18655357Y-12733929D01*
X18641071Y-12705357D01*
X18641071Y-12591071D01*
X18655357Y-12562500D01*
X18683928Y-12548214D01*
X18741071Y-12548214D01*
X18769643Y-12562500D01*
X18783928Y-12591071D01*
X18783928Y-12619643D01*
X18641071Y-12648214D01*
X18898214Y-12733929D02*
X18926786Y-12748214D01*
X18983928Y-12748214D01*
X19012500Y-12733929D01*
X19026786Y-12705357D01*
X19026786Y-12691071D01*
X19012500Y-12662500D01*
X18983928Y-12648214D01*
X18941071Y-12648214D01*
X18912500Y-12633929D01*
X18898214Y-12605357D01*
X18898214Y-12591071D01*
X18912500Y-12562500D01*
X18941071Y-12548214D01*
X18983928Y-12548214D01*
X19012500Y-12562500D01*
X19126786Y-12862500D02*
X19141071Y-12848214D01*
X19169643Y-12805357D01*
X19183928Y-12776786D01*
X19198214Y-12733929D01*
X19212500Y-12662500D01*
X19212500Y-12605357D01*
X19198214Y-12533929D01*
X19183928Y-12491071D01*
X19169643Y-12462500D01*
X19141071Y-12419643D01*
X19126786Y-12405357D01*
X11497500Y-13008500D02*
G75*
G03*
X11497500Y-13008500I-110000J0D01*
G01*
X11769643Y-12872786D02*
X11783928Y-12858500D01*
X11812500Y-12844214D01*
X11883928Y-12844214D01*
X11912500Y-12858500D01*
X11926786Y-12872786D01*
X11941071Y-12901357D01*
X11941071Y-12929929D01*
X11926786Y-12972786D01*
X11755357Y-13144214D01*
X11941071Y-13144214D01*
X12069643Y-13115643D02*
X12083928Y-13129929D01*
X12069643Y-13144214D01*
X12055357Y-13129929D01*
X12069643Y-13115643D01*
X12069643Y-13144214D01*
X12198214Y-12872786D02*
X12212500Y-12858500D01*
X12241071Y-12844214D01*
X12312500Y-12844214D01*
X12341071Y-12858500D01*
X12355357Y-12872786D01*
X12369643Y-12901357D01*
X12369643Y-12929929D01*
X12355357Y-12972786D01*
X12183928Y-13144214D01*
X12369643Y-13144214D01*
X12555357Y-12844214D02*
X12583928Y-12844214D01*
X12612500Y-12858500D01*
X12626786Y-12872786D01*
X12641071Y-12901357D01*
X12655357Y-12958500D01*
X12655357Y-13029929D01*
X12641071Y-13087071D01*
X12626786Y-13115643D01*
X12612500Y-13129929D01*
X12583928Y-13144214D01*
X12555357Y-13144214D01*
X12526786Y-13129929D01*
X12512500Y-13115643D01*
X12498214Y-13087071D01*
X12483928Y-13029929D01*
X12483928Y-12958500D01*
X12498214Y-12901357D01*
X12512500Y-12872786D01*
X12526786Y-12858500D01*
X12555357Y-12844214D01*
X12841071Y-12844214D02*
X12869643Y-12844214D01*
X12898214Y-12858500D01*
X12912500Y-12872786D01*
X12926786Y-12901357D01*
X12941071Y-12958500D01*
X12941071Y-13029929D01*
X12926786Y-13087071D01*
X12912500Y-13115643D01*
X12898214Y-13129929D01*
X12869643Y-13144214D01*
X12841071Y-13144214D01*
X12812500Y-13129929D01*
X12798214Y-13115643D01*
X12783928Y-13087071D01*
X12769643Y-13029929D01*
X12769643Y-12958500D01*
X12783928Y-12901357D01*
X12798214Y-12872786D01*
X12812500Y-12858500D01*
X12841071Y-12844214D01*
X13069643Y-13144214D02*
X13069643Y-12944214D01*
X13069643Y-12972786D02*
X13083928Y-12958500D01*
X13112500Y-12944214D01*
X13155357Y-12944214D01*
X13183928Y-12958500D01*
X13198214Y-12987071D01*
X13198214Y-13144214D01*
X13198214Y-12987071D02*
X13212500Y-12958500D01*
X13241071Y-12944214D01*
X13283928Y-12944214D01*
X13312500Y-12958500D01*
X13326786Y-12987071D01*
X13326786Y-13144214D01*
X13469643Y-13144214D02*
X13469643Y-12944214D01*
X13469643Y-12972786D02*
X13483928Y-12958500D01*
X13512500Y-12944214D01*
X13555357Y-12944214D01*
X13583928Y-12958500D01*
X13598214Y-12987071D01*
X13598214Y-13144214D01*
X13598214Y-12987071D02*
X13612500Y-12958500D01*
X13641071Y-12944214D01*
X13683928Y-12944214D01*
X13712500Y-12958500D01*
X13726786Y-12987071D01*
X13726786Y-13144214D01*
X14312500Y-12829929D02*
X14055357Y-13215643D01*
X14698214Y-12844214D02*
X14726786Y-12844214D01*
X14755357Y-12858500D01*
X14769643Y-12872786D01*
X14783928Y-12901357D01*
X14798214Y-12958500D01*
X14798214Y-13029929D01*
X14783928Y-13087071D01*
X14769643Y-13115643D01*
X14755357Y-13129929D01*
X14726786Y-13144214D01*
X14698214Y-13144214D01*
X14669643Y-13129929D01*
X14655357Y-13115643D01*
X14641071Y-13087071D01*
X14626786Y-13029929D01*
X14626786Y-12958500D01*
X14641071Y-12901357D01*
X14655357Y-12872786D01*
X14669643Y-12858500D01*
X14698214Y-12844214D01*
X14926786Y-13115643D02*
X14941071Y-13129929D01*
X14926786Y-13144214D01*
X14912500Y-13129929D01*
X14926786Y-13115643D01*
X14926786Y-13144214D01*
X15126786Y-12844214D02*
X15155357Y-12844214D01*
X15183928Y-12858500D01*
X15198214Y-12872786D01*
X15212500Y-12901357D01*
X15226786Y-12958500D01*
X15226786Y-13029929D01*
X15212500Y-13087071D01*
X15198214Y-13115643D01*
X15183928Y-13129929D01*
X15155357Y-13144214D01*
X15126786Y-13144214D01*
X15098214Y-13129929D01*
X15083928Y-13115643D01*
X15069643Y-13087071D01*
X15055357Y-13029929D01*
X15055357Y-12958500D01*
X15069643Y-12901357D01*
X15083928Y-12872786D01*
X15098214Y-12858500D01*
X15126786Y-12844214D01*
X15398214Y-12972786D02*
X15369643Y-12958500D01*
X15355357Y-12944214D01*
X15341071Y-12915643D01*
X15341071Y-12901357D01*
X15355357Y-12872786D01*
X15369643Y-12858500D01*
X15398214Y-12844214D01*
X15455357Y-12844214D01*
X15483928Y-12858500D01*
X15498214Y-12872786D01*
X15512500Y-12901357D01*
X15512500Y-12915643D01*
X15498214Y-12944214D01*
X15483928Y-12958500D01*
X15455357Y-12972786D01*
X15398214Y-12972786D01*
X15369643Y-12987071D01*
X15355357Y-13001357D01*
X15341071Y-13029929D01*
X15341071Y-13087071D01*
X15355357Y-13115643D01*
X15369643Y-13129929D01*
X15398214Y-13144214D01*
X15455357Y-13144214D01*
X15483928Y-13129929D01*
X15498214Y-13115643D01*
X15512500Y-13087071D01*
X15512500Y-13029929D01*
X15498214Y-13001357D01*
X15483928Y-12987071D01*
X15455357Y-12972786D01*
X15769643Y-12844214D02*
X15712500Y-12844214D01*
X15683928Y-12858500D01*
X15669643Y-12872786D01*
X15641071Y-12915643D01*
X15626786Y-12972786D01*
X15626786Y-13087071D01*
X15641071Y-13115643D01*
X15655357Y-13129929D01*
X15683928Y-13144214D01*
X15741071Y-13144214D01*
X15769643Y-13129929D01*
X15783928Y-13115643D01*
X15798214Y-13087071D01*
X15798214Y-13015643D01*
X15783928Y-12987071D01*
X15769643Y-12972786D01*
X15741071Y-12958500D01*
X15683928Y-12958500D01*
X15655357Y-12972786D01*
X15641071Y-12987071D01*
X15626786Y-13015643D01*
X16055357Y-12844214D02*
X15998214Y-12844214D01*
X15969643Y-12858500D01*
X15955357Y-12872786D01*
X15926786Y-12915643D01*
X15912500Y-12972786D01*
X15912500Y-13087071D01*
X15926786Y-13115643D01*
X15941071Y-13129929D01*
X15969643Y-13144214D01*
X16026786Y-13144214D01*
X16055357Y-13129929D01*
X16069643Y-13115643D01*
X16083928Y-13087071D01*
X16083928Y-13015643D01*
X16069643Y-12987071D01*
X16055357Y-12972786D01*
X16026786Y-12958500D01*
X15969643Y-12958500D01*
X15941071Y-12972786D01*
X15926786Y-12987071D01*
X15912500Y-13015643D01*
X16198214Y-12844214D02*
X16198214Y-12901357D01*
X16312500Y-12844214D02*
X16312500Y-12901357D01*
X16755357Y-13258500D02*
X16741071Y-13244214D01*
X16712500Y-13201357D01*
X16698214Y-13172786D01*
X16683928Y-13129929D01*
X16669643Y-13058500D01*
X16669643Y-13001357D01*
X16683928Y-12929929D01*
X16698214Y-12887071D01*
X16712500Y-12858500D01*
X16741071Y-12815643D01*
X16755357Y-12801357D01*
X16998214Y-12944214D02*
X16998214Y-13144214D01*
X16926786Y-12829929D02*
X16855357Y-13044214D01*
X17041071Y-13044214D01*
X17383928Y-13144214D02*
X17383928Y-12844214D01*
X17512500Y-13144214D02*
X17512500Y-12987071D01*
X17498214Y-12958500D01*
X17469643Y-12944214D01*
X17426786Y-12944214D01*
X17398214Y-12958500D01*
X17383928Y-12972786D01*
X17698214Y-13144214D02*
X17669643Y-13129929D01*
X17655357Y-13115643D01*
X17641071Y-13087071D01*
X17641071Y-13001357D01*
X17655357Y-12972786D01*
X17669643Y-12958500D01*
X17698214Y-12944214D01*
X17741071Y-12944214D01*
X17769643Y-12958500D01*
X17783928Y-12972786D01*
X17798214Y-13001357D01*
X17798214Y-13087071D01*
X17783928Y-13115643D01*
X17769643Y-13129929D01*
X17741071Y-13144214D01*
X17698214Y-13144214D01*
X17969643Y-13144214D02*
X17941071Y-13129929D01*
X17926786Y-13101357D01*
X17926786Y-12844214D01*
X18198214Y-13129929D02*
X18169643Y-13144214D01*
X18112500Y-13144214D01*
X18083928Y-13129929D01*
X18069643Y-13101357D01*
X18069643Y-12987071D01*
X18083928Y-12958500D01*
X18112500Y-12944214D01*
X18169643Y-12944214D01*
X18198214Y-12958500D01*
X18212500Y-12987071D01*
X18212500Y-13015643D01*
X18069643Y-13044214D01*
X18326786Y-13129929D02*
X18355357Y-13144214D01*
X18412500Y-13144214D01*
X18441071Y-13129929D01*
X18455357Y-13101357D01*
X18455357Y-13087071D01*
X18441071Y-13058500D01*
X18412500Y-13044214D01*
X18369643Y-13044214D01*
X18341071Y-13029929D01*
X18326786Y-13001357D01*
X18326786Y-12987071D01*
X18341071Y-12958500D01*
X18369643Y-12944214D01*
X18412500Y-12944214D01*
X18441071Y-12958500D01*
X18555357Y-13258500D02*
X18569643Y-13244214D01*
X18598214Y-13201357D01*
X18612500Y-13172786D01*
X18626786Y-13129929D01*
X18641071Y-13058500D01*
X18641071Y-13001357D01*
X18626786Y-12929929D01*
X18612500Y-12887071D01*
X18598214Y-12858500D01*
X18569643Y-12815643D01*
X18555357Y-12801357D01*
M02*
