%FSLAX45Y45*%
G04 Gerber Fmt 4.5, Leading zero omitted, Abs format (unit mm)*
G04 Created by KiCad (PCBNEW 5.1.10-88a1d61d58~88~ubuntu20.04.1) date 2021-06-10 18:40:54*
%MOMM*%
%LPD*%
G01*
G04 APERTURE LIST*
%TA.AperFunction,Profile*%
%ADD10C,0.050000*%
%TD*%
%ADD11C,0.200000*%
%ADD12C,0.300000*%
G04 APERTURE END LIST*
D10*
X16500000Y-11410000D02*
G75*
G02*
X16260000Y-11650000I-240000J0D01*
G01*
X11740000Y-11650000D02*
G75*
G02*
X11500000Y-11410000I0J240000D01*
G01*
X16260000Y-6650000D02*
G75*
G02*
X16500000Y-6890000I0J-240000D01*
G01*
X11500000Y-6890000D02*
G75*
G02*
X11740000Y-6650000I240000J0D01*
G01*
X11500000Y-6890000D02*
X11500000Y-7150000D01*
X16260000Y-6650000D02*
X11740000Y-6650000D01*
X16500000Y-11410000D02*
X16500000Y-6890000D01*
X11740000Y-11650000D02*
X16260000Y-11650000D01*
X11500000Y-7150000D02*
X11500000Y-11410000D01*
D11*
X12435483Y-8077983D02*
X12445516Y-8088016D01*
X12445516Y-8077983D02*
X12435483Y-8088016D01*
X12435483Y-8197983D02*
X12445516Y-8208016D01*
X12445516Y-8197983D02*
X12435483Y-8208016D01*
X12450983Y-10182984D02*
X12461016Y-10193017D01*
X12461016Y-10182984D02*
X12450983Y-10193017D01*
X12680483Y-9205484D02*
X12690516Y-9215517D01*
X12690516Y-9205484D02*
X12680483Y-9215517D01*
X12980483Y-8052983D02*
X12990516Y-8063016D01*
X12990516Y-8052983D02*
X12980483Y-8063016D01*
X12980483Y-8097983D02*
X12990516Y-8108016D01*
X12990516Y-8097983D02*
X12980483Y-8108016D01*
X13047983Y-8740484D02*
X13058016Y-8750517D01*
X13058016Y-8740484D02*
X13047983Y-8750517D01*
X13099983Y-9025984D02*
X13110016Y-9036017D01*
X13110016Y-9025984D02*
X13099983Y-9036017D01*
X13148983Y-8057983D02*
X13159016Y-8068016D01*
X13159016Y-8057983D02*
X13148983Y-8068016D01*
X13292983Y-9045484D02*
X13303016Y-9055517D01*
X13303016Y-9045484D02*
X13292983Y-9055517D01*
X13548983Y-9632984D02*
X13559016Y-9643017D01*
X13559016Y-9632984D02*
X13548983Y-9643017D01*
X13682983Y-8676984D02*
X13693016Y-8687017D01*
X13693016Y-8676984D02*
X13682983Y-8687017D01*
X13683983Y-8632984D02*
X13694016Y-8643017D01*
X13694016Y-8632984D02*
X13683983Y-8643017D01*
X13740483Y-8880484D02*
X13750516Y-8890517D01*
X13750516Y-8880484D02*
X13740483Y-8890517D01*
X13740983Y-8937984D02*
X13751016Y-8948017D01*
X13751016Y-8937984D02*
X13740983Y-8948017D01*
X13991045Y-10057234D02*
X14001078Y-10067267D01*
X14001078Y-10057234D02*
X13991045Y-10067267D01*
X14020045Y-10033044D02*
X14030078Y-10043077D01*
X14030078Y-10033044D02*
X14020045Y-10043077D01*
X14079983Y-10012984D02*
X14090016Y-10023017D01*
X14090016Y-10012984D02*
X14079983Y-10023017D01*
X14141983Y-10732484D02*
X14152016Y-10742517D01*
X14152016Y-10732484D02*
X14141983Y-10742517D01*
X14190983Y-9681657D02*
X14201016Y-9691690D01*
X14201016Y-9681657D02*
X14190983Y-9691690D01*
X14238657Y-9733984D02*
X14248690Y-9744017D01*
X14248690Y-9733984D02*
X14238657Y-9744017D01*
X14239596Y-10584869D02*
X14249629Y-10594902D01*
X14249629Y-10584869D02*
X14239596Y-10594902D01*
X14241983Y-10184984D02*
X14252016Y-10195017D01*
X14252016Y-10184984D02*
X14241983Y-10195017D01*
X14285919Y-9938887D02*
X14295952Y-9948920D01*
X14295952Y-9938887D02*
X14285919Y-9948920D01*
X14289483Y-10182484D02*
X14299516Y-10192517D01*
X14299516Y-10182484D02*
X14289483Y-10192517D01*
X14289483Y-10432596D02*
X14299516Y-10442629D01*
X14299516Y-10432596D02*
X14289483Y-10442629D01*
X14289596Y-10584869D02*
X14299629Y-10594902D01*
X14299629Y-10584869D02*
X14289596Y-10594902D01*
X14291983Y-9784984D02*
X14302016Y-9795017D01*
X14302016Y-9784984D02*
X14291983Y-9795017D01*
X14291983Y-10632484D02*
X14302016Y-10642517D01*
X14302016Y-10632484D02*
X14291983Y-10642517D01*
X14294583Y-10126234D02*
X14304616Y-10136267D01*
X14304616Y-10126234D02*
X14294583Y-10136267D01*
X14349483Y-10082484D02*
X14359516Y-10092517D01*
X14359516Y-10082484D02*
X14349483Y-10092517D01*
X14350983Y-10159984D02*
X14361016Y-10170017D01*
X14361016Y-10159984D02*
X14350983Y-10170017D01*
X14388657Y-9733983D02*
X14398690Y-9744016D01*
X14398690Y-9733983D02*
X14388657Y-9744016D01*
X14391983Y-10582484D02*
X14402016Y-10592517D01*
X14402016Y-10582484D02*
X14391983Y-10592517D01*
X14439848Y-10582849D02*
X14449881Y-10592882D01*
X14449881Y-10582849D02*
X14439848Y-10592882D01*
X14486983Y-10529984D02*
X14497016Y-10540017D01*
X14497016Y-10529984D02*
X14486983Y-10540017D01*
X14491983Y-10584984D02*
X14502016Y-10595017D01*
X14502016Y-10584984D02*
X14491983Y-10595017D01*
X14579483Y-10489984D02*
X14589516Y-10500017D01*
X14589516Y-10489984D02*
X14579483Y-10500017D01*
X14595549Y-10588550D02*
X14605582Y-10598583D01*
X14605582Y-10588550D02*
X14595549Y-10598583D01*
X14640983Y-9736310D02*
X14651016Y-9746343D01*
X14651016Y-9736310D02*
X14640983Y-9746343D01*
X14665233Y-10743984D02*
X14675266Y-10754017D01*
X14675266Y-10743984D02*
X14665233Y-10754017D01*
X14689483Y-10584984D02*
X14699516Y-10595017D01*
X14699516Y-10584984D02*
X14689483Y-10595017D01*
X14790983Y-9681657D02*
X14801016Y-9691690D01*
X14801016Y-9681657D02*
X14790983Y-9691690D01*
X14791983Y-10584984D02*
X14802016Y-10595017D01*
X14802016Y-10584984D02*
X14791983Y-10595017D01*
X14795983Y-10516984D02*
X14806016Y-10527017D01*
X14806016Y-10516984D02*
X14795983Y-10527017D01*
X14851842Y-10523765D02*
X14861875Y-10533798D01*
X14861875Y-10523765D02*
X14851842Y-10533798D01*
X14938657Y-10583984D02*
X14948690Y-10594017D01*
X14948690Y-10583984D02*
X14938657Y-10594017D01*
X14939848Y-10632849D02*
X14949881Y-10642882D01*
X14949881Y-10632849D02*
X14939848Y-10642882D01*
X14990983Y-9681657D02*
X15001016Y-9691690D01*
X15001016Y-9681657D02*
X14990983Y-9691690D01*
X15041983Y-10534984D02*
X15052016Y-10545017D01*
X15052016Y-10534984D02*
X15041983Y-10545017D01*
X15071983Y-10075984D02*
X15082016Y-10086017D01*
X15082016Y-10075984D02*
X15071983Y-10086017D01*
X15086983Y-9984984D02*
X15097016Y-9995017D01*
X15097016Y-9984984D02*
X15086983Y-9995017D01*
X15086983Y-10184984D02*
X15097016Y-10195017D01*
X15097016Y-10184984D02*
X15086983Y-10195017D01*
X15086983Y-10329984D02*
X15097016Y-10340017D01*
X15097016Y-10329984D02*
X15086983Y-10340017D01*
X15088208Y-10533584D02*
X15098241Y-10543617D01*
X15098241Y-10533584D02*
X15088208Y-10543617D01*
X15139483Y-10434984D02*
X15149516Y-10445017D01*
X15149516Y-10434984D02*
X15139483Y-10445017D01*
X15139848Y-10132849D02*
X15149881Y-10142882D01*
X15149881Y-10132849D02*
X15139848Y-10142882D01*
X15140983Y-9831657D02*
X15151016Y-9841690D01*
X15151016Y-9831657D02*
X15140983Y-9841690D01*
X15140983Y-9881657D02*
X15151016Y-9891690D01*
X15151016Y-9881657D02*
X15140983Y-9891690D01*
X15141869Y-10382596D02*
X15151902Y-10392629D01*
X15151902Y-10382596D02*
X15141869Y-10392629D01*
X15141983Y-10334984D02*
X15152016Y-10345017D01*
X15152016Y-10334984D02*
X15141983Y-10345017D01*
X15189483Y-10432484D02*
X15199516Y-10442517D01*
X15199516Y-10432484D02*
X15189483Y-10442517D01*
X15190983Y-9931657D02*
X15201016Y-9941690D01*
X15201016Y-9931657D02*
X15190983Y-9941690D01*
X15191983Y-10134984D02*
X15202016Y-10145017D01*
X15202016Y-10134984D02*
X15191983Y-10145017D01*
X15191983Y-10484984D02*
X15202016Y-10495017D01*
X15202016Y-10484984D02*
X15191983Y-10495017D01*
X15191983Y-10534984D02*
X15202016Y-10545017D01*
X15202016Y-10534984D02*
X15191983Y-10545017D01*
X15191983Y-10584984D02*
X15202016Y-10595017D01*
X15202016Y-10584984D02*
X15191983Y-10595017D01*
X15191983Y-10634984D02*
X15202016Y-10645017D01*
X15202016Y-10634984D02*
X15191983Y-10645017D01*
X15291983Y-10734984D02*
X15302016Y-10745017D01*
X15302016Y-10734984D02*
X15291983Y-10745017D01*
X15401983Y-10271320D02*
X15412016Y-10281353D01*
X15412016Y-10271320D02*
X15401983Y-10281353D01*
X15438983Y-10702984D02*
X15449016Y-10713017D01*
X15449016Y-10702984D02*
X15438983Y-10713017D01*
X15455983Y-10529065D02*
X15466016Y-10539098D01*
X15466016Y-10529065D02*
X15455983Y-10539098D01*
X15498983Y-10506234D02*
X15509016Y-10516267D01*
X15509016Y-10506234D02*
X15498983Y-10516267D01*
X15515983Y-9985984D02*
X15526016Y-9996017D01*
X15526016Y-9985984D02*
X15515983Y-9996017D01*
X15544983Y-10121984D02*
X15555016Y-10132017D01*
X15555016Y-10121984D02*
X15544983Y-10132017D01*
X15579575Y-9688887D02*
X15589608Y-9698920D01*
X15589608Y-9688887D02*
X15579575Y-9698920D01*
X15638983Y-10469984D02*
X15649016Y-10480017D01*
X15649016Y-10469984D02*
X15638983Y-10480017D01*
X15703983Y-10068984D02*
X15714016Y-10079017D01*
X15714016Y-10068984D02*
X15703983Y-10079017D01*
X15750983Y-9802984D02*
X15761016Y-9813017D01*
X15761016Y-9802984D02*
X15750983Y-9813017D01*
D12*
X11783928Y-12118214D02*
X11783928Y-11818214D01*
X11855357Y-11818214D01*
X11898214Y-11832500D01*
X11926786Y-11861071D01*
X11941071Y-11889643D01*
X11955357Y-11946786D01*
X11955357Y-11989643D01*
X11941071Y-12046786D01*
X11926786Y-12075357D01*
X11898214Y-12103929D01*
X11855357Y-12118214D01*
X11783928Y-12118214D01*
X12083928Y-12118214D02*
X12083928Y-11918214D01*
X12083928Y-11975357D02*
X12098214Y-11946786D01*
X12112500Y-11932500D01*
X12141071Y-11918214D01*
X12169643Y-11918214D01*
X12269643Y-12118214D02*
X12269643Y-11918214D01*
X12269643Y-11818214D02*
X12255357Y-11832500D01*
X12269643Y-11846786D01*
X12283928Y-11832500D01*
X12269643Y-11818214D01*
X12269643Y-11846786D01*
X12455357Y-12118214D02*
X12426786Y-12103929D01*
X12412500Y-12075357D01*
X12412500Y-11818214D01*
X12612500Y-12118214D02*
X12583928Y-12103929D01*
X12569643Y-12075357D01*
X12569643Y-11818214D01*
X12955357Y-12118214D02*
X12955357Y-11818214D01*
X13055357Y-12032500D01*
X13155357Y-11818214D01*
X13155357Y-12118214D01*
X13426786Y-12118214D02*
X13426786Y-11961071D01*
X13412500Y-11932500D01*
X13383928Y-11918214D01*
X13326786Y-11918214D01*
X13298214Y-11932500D01*
X13426786Y-12103929D02*
X13398214Y-12118214D01*
X13326786Y-12118214D01*
X13298214Y-12103929D01*
X13283928Y-12075357D01*
X13283928Y-12046786D01*
X13298214Y-12018214D01*
X13326786Y-12003929D01*
X13398214Y-12003929D01*
X13426786Y-11989643D01*
X13569643Y-11918214D02*
X13569643Y-12218214D01*
X13569643Y-11932500D02*
X13598214Y-11918214D01*
X13655357Y-11918214D01*
X13683928Y-11932500D01*
X13698214Y-11946786D01*
X13712500Y-11975357D01*
X13712500Y-12061071D01*
X13698214Y-12089643D01*
X13683928Y-12103929D01*
X13655357Y-12118214D01*
X13598214Y-12118214D01*
X13569643Y-12103929D01*
X13841071Y-12089643D02*
X13855357Y-12103929D01*
X13841071Y-12118214D01*
X13826786Y-12103929D01*
X13841071Y-12089643D01*
X13841071Y-12118214D01*
X13841071Y-11932500D02*
X13855357Y-11946786D01*
X13841071Y-11961071D01*
X13826786Y-11946786D01*
X13841071Y-11932500D01*
X13841071Y-11961071D01*
X11487467Y-12607484D02*
X11497500Y-12617517D01*
X11497500Y-12607484D02*
X11487467Y-12617517D01*
X11841071Y-12448214D02*
X11869643Y-12448214D01*
X11898214Y-12462500D01*
X11912500Y-12476786D01*
X11926786Y-12505357D01*
X11941071Y-12562500D01*
X11941071Y-12633929D01*
X11926786Y-12691071D01*
X11912500Y-12719643D01*
X11898214Y-12733929D01*
X11869643Y-12748214D01*
X11841071Y-12748214D01*
X11812500Y-12733929D01*
X11798214Y-12719643D01*
X11783928Y-12691071D01*
X11769643Y-12633929D01*
X11769643Y-12562500D01*
X11783928Y-12505357D01*
X11798214Y-12476786D01*
X11812500Y-12462500D01*
X11841071Y-12448214D01*
X12069643Y-12719643D02*
X12083928Y-12733929D01*
X12069643Y-12748214D01*
X12055357Y-12733929D01*
X12069643Y-12719643D01*
X12069643Y-12748214D01*
X12369643Y-12748214D02*
X12198214Y-12748214D01*
X12283928Y-12748214D02*
X12283928Y-12448214D01*
X12255357Y-12491071D01*
X12226786Y-12519643D01*
X12198214Y-12533929D01*
X12555357Y-12448214D02*
X12583928Y-12448214D01*
X12612500Y-12462500D01*
X12626786Y-12476786D01*
X12641071Y-12505357D01*
X12655357Y-12562500D01*
X12655357Y-12633929D01*
X12641071Y-12691071D01*
X12626786Y-12719643D01*
X12612500Y-12733929D01*
X12583928Y-12748214D01*
X12555357Y-12748214D01*
X12526786Y-12733929D01*
X12512500Y-12719643D01*
X12498214Y-12691071D01*
X12483928Y-12633929D01*
X12483928Y-12562500D01*
X12498214Y-12505357D01*
X12512500Y-12476786D01*
X12526786Y-12462500D01*
X12555357Y-12448214D01*
X12841071Y-12448214D02*
X12869643Y-12448214D01*
X12898214Y-12462500D01*
X12912500Y-12476786D01*
X12926786Y-12505357D01*
X12941071Y-12562500D01*
X12941071Y-12633929D01*
X12926786Y-12691071D01*
X12912500Y-12719643D01*
X12898214Y-12733929D01*
X12869643Y-12748214D01*
X12841071Y-12748214D01*
X12812500Y-12733929D01*
X12798214Y-12719643D01*
X12783928Y-12691071D01*
X12769643Y-12633929D01*
X12769643Y-12562500D01*
X12783928Y-12505357D01*
X12798214Y-12476786D01*
X12812500Y-12462500D01*
X12841071Y-12448214D01*
X13069643Y-12748214D02*
X13069643Y-12548214D01*
X13069643Y-12576786D02*
X13083928Y-12562500D01*
X13112500Y-12548214D01*
X13155357Y-12548214D01*
X13183928Y-12562500D01*
X13198214Y-12591071D01*
X13198214Y-12748214D01*
X13198214Y-12591071D02*
X13212500Y-12562500D01*
X13241071Y-12548214D01*
X13283928Y-12548214D01*
X13312500Y-12562500D01*
X13326786Y-12591071D01*
X13326786Y-12748214D01*
X13469643Y-12748214D02*
X13469643Y-12548214D01*
X13469643Y-12576786D02*
X13483928Y-12562500D01*
X13512500Y-12548214D01*
X13555357Y-12548214D01*
X13583928Y-12562500D01*
X13598214Y-12591071D01*
X13598214Y-12748214D01*
X13598214Y-12591071D02*
X13612500Y-12562500D01*
X13641071Y-12548214D01*
X13683928Y-12548214D01*
X13712500Y-12562500D01*
X13726786Y-12591071D01*
X13726786Y-12748214D01*
X14312500Y-12433929D02*
X14055357Y-12819643D01*
X14698214Y-12448214D02*
X14726786Y-12448214D01*
X14755357Y-12462500D01*
X14769643Y-12476786D01*
X14783928Y-12505357D01*
X14798214Y-12562500D01*
X14798214Y-12633929D01*
X14783928Y-12691071D01*
X14769643Y-12719643D01*
X14755357Y-12733929D01*
X14726786Y-12748214D01*
X14698214Y-12748214D01*
X14669643Y-12733929D01*
X14655357Y-12719643D01*
X14641071Y-12691071D01*
X14626786Y-12633929D01*
X14626786Y-12562500D01*
X14641071Y-12505357D01*
X14655357Y-12476786D01*
X14669643Y-12462500D01*
X14698214Y-12448214D01*
X14926786Y-12719643D02*
X14941071Y-12733929D01*
X14926786Y-12748214D01*
X14912500Y-12733929D01*
X14926786Y-12719643D01*
X14926786Y-12748214D01*
X15126786Y-12448214D02*
X15155357Y-12448214D01*
X15183928Y-12462500D01*
X15198214Y-12476786D01*
X15212500Y-12505357D01*
X15226786Y-12562500D01*
X15226786Y-12633929D01*
X15212500Y-12691071D01*
X15198214Y-12719643D01*
X15183928Y-12733929D01*
X15155357Y-12748214D01*
X15126786Y-12748214D01*
X15098214Y-12733929D01*
X15083928Y-12719643D01*
X15069643Y-12691071D01*
X15055357Y-12633929D01*
X15055357Y-12562500D01*
X15069643Y-12505357D01*
X15083928Y-12476786D01*
X15098214Y-12462500D01*
X15126786Y-12448214D01*
X15412500Y-12448214D02*
X15441071Y-12448214D01*
X15469643Y-12462500D01*
X15483928Y-12476786D01*
X15498214Y-12505357D01*
X15512500Y-12562500D01*
X15512500Y-12633929D01*
X15498214Y-12691071D01*
X15483928Y-12719643D01*
X15469643Y-12733929D01*
X15441071Y-12748214D01*
X15412500Y-12748214D01*
X15383928Y-12733929D01*
X15369643Y-12719643D01*
X15355357Y-12691071D01*
X15341071Y-12633929D01*
X15341071Y-12562500D01*
X15355357Y-12505357D01*
X15369643Y-12476786D01*
X15383928Y-12462500D01*
X15412500Y-12448214D01*
X15612500Y-12448214D02*
X15798214Y-12448214D01*
X15698214Y-12562500D01*
X15741071Y-12562500D01*
X15769643Y-12576786D01*
X15783928Y-12591071D01*
X15798214Y-12619643D01*
X15798214Y-12691071D01*
X15783928Y-12719643D01*
X15769643Y-12733929D01*
X15741071Y-12748214D01*
X15655357Y-12748214D01*
X15626786Y-12733929D01*
X15612500Y-12719643D01*
X15941071Y-12748214D02*
X15998214Y-12748214D01*
X16026786Y-12733929D01*
X16041071Y-12719643D01*
X16069643Y-12676786D01*
X16083928Y-12619643D01*
X16083928Y-12505357D01*
X16069643Y-12476786D01*
X16055357Y-12462500D01*
X16026786Y-12448214D01*
X15969643Y-12448214D01*
X15941071Y-12462500D01*
X15926786Y-12476786D01*
X15912500Y-12505357D01*
X15912500Y-12576786D01*
X15926786Y-12605357D01*
X15941071Y-12619643D01*
X15969643Y-12633929D01*
X16026786Y-12633929D01*
X16055357Y-12619643D01*
X16069643Y-12605357D01*
X16083928Y-12576786D01*
X16198214Y-12448214D02*
X16198214Y-12505357D01*
X16312500Y-12448214D02*
X16312500Y-12505357D01*
X16755357Y-12862500D02*
X16741071Y-12848214D01*
X16712500Y-12805357D01*
X16698214Y-12776786D01*
X16683928Y-12733929D01*
X16669643Y-12662500D01*
X16669643Y-12605357D01*
X16683928Y-12533929D01*
X16698214Y-12491071D01*
X16712500Y-12462500D01*
X16741071Y-12419643D01*
X16755357Y-12405357D01*
X16841071Y-12448214D02*
X17041071Y-12448214D01*
X16912500Y-12748214D01*
X17169643Y-12748214D02*
X17226786Y-12748214D01*
X17255357Y-12733929D01*
X17269643Y-12719643D01*
X17298214Y-12676786D01*
X17312500Y-12619643D01*
X17312500Y-12505357D01*
X17298214Y-12476786D01*
X17283928Y-12462500D01*
X17255357Y-12448214D01*
X17198214Y-12448214D01*
X17169643Y-12462500D01*
X17155357Y-12476786D01*
X17141071Y-12505357D01*
X17141071Y-12576786D01*
X17155357Y-12605357D01*
X17169643Y-12619643D01*
X17198214Y-12633929D01*
X17255357Y-12633929D01*
X17283928Y-12619643D01*
X17298214Y-12605357D01*
X17312500Y-12576786D01*
X17669643Y-12748214D02*
X17669643Y-12448214D01*
X17798214Y-12748214D02*
X17798214Y-12591071D01*
X17783928Y-12562500D01*
X17755357Y-12548214D01*
X17712500Y-12548214D01*
X17683928Y-12562500D01*
X17669643Y-12576786D01*
X17983928Y-12748214D02*
X17955357Y-12733929D01*
X17941071Y-12719643D01*
X17926786Y-12691071D01*
X17926786Y-12605357D01*
X17941071Y-12576786D01*
X17955357Y-12562500D01*
X17983928Y-12548214D01*
X18026786Y-12548214D01*
X18055357Y-12562500D01*
X18069643Y-12576786D01*
X18083928Y-12605357D01*
X18083928Y-12691071D01*
X18069643Y-12719643D01*
X18055357Y-12733929D01*
X18026786Y-12748214D01*
X17983928Y-12748214D01*
X18255357Y-12748214D02*
X18226786Y-12733929D01*
X18212500Y-12705357D01*
X18212500Y-12448214D01*
X18483928Y-12733929D02*
X18455357Y-12748214D01*
X18398214Y-12748214D01*
X18369643Y-12733929D01*
X18355357Y-12705357D01*
X18355357Y-12591071D01*
X18369643Y-12562500D01*
X18398214Y-12548214D01*
X18455357Y-12548214D01*
X18483928Y-12562500D01*
X18498214Y-12591071D01*
X18498214Y-12619643D01*
X18355357Y-12648214D01*
X18612500Y-12733929D02*
X18641071Y-12748214D01*
X18698214Y-12748214D01*
X18726786Y-12733929D01*
X18741071Y-12705357D01*
X18741071Y-12691071D01*
X18726786Y-12662500D01*
X18698214Y-12648214D01*
X18655357Y-12648214D01*
X18626786Y-12633929D01*
X18612500Y-12605357D01*
X18612500Y-12591071D01*
X18626786Y-12562500D01*
X18655357Y-12548214D01*
X18698214Y-12548214D01*
X18726786Y-12562500D01*
X18841071Y-12862500D02*
X18855357Y-12848214D01*
X18883928Y-12805357D01*
X18898214Y-12776786D01*
X18912500Y-12733929D01*
X18926786Y-12662500D01*
X18926786Y-12605357D01*
X18912500Y-12533929D01*
X18898214Y-12491071D01*
X18883928Y-12462500D01*
X18855357Y-12419643D01*
X18841071Y-12405357D01*
M02*
