M48
; DRILL file {KiCad 5.1.10-88a1d61d58~88~ubuntu20.04.1} date Thu Jun 10 18:40:42 2021
; FORMAT={-:-/ absolute / inch / decimal}
; #@! TF.CreationDate,2021-06-10T18:40:42+05:30
; #@! TF.GenerationSoftware,Kicad,Pcbnew,5.1.10-88a1d61d58~88~ubuntu20.04.1
; #@! TF.FileFunction,Plated,1,2,Blind
FMAT,2
INCH
T1C0.0039
%
G90
G05
T1
X4.8978Y-3.1823
X4.8978Y-3.2295
X4.9039Y-4.011
X4.9943Y-3.6262
X5.1124Y-3.1724
X5.1124Y-3.1902
X5.139Y-3.4431
X5.1594Y-3.5555
X5.1787Y-3.1744
X5.2354Y-3.5632
X5.3362Y-3.7945
X5.389Y-3.4181
X5.3894Y-3.4008
X5.4116Y-3.4982
X5.4118Y-3.5209
X5.5103Y-3.9615
X5.5217Y-3.952
X5.5453Y-3.9441
X5.5697Y-4.2274
X5.589Y-3.8137
X5.6077Y-3.8343
X5.6081Y-4.1692
X5.6091Y-4.0118
X5.6264Y-3.9149
X5.6278Y-4.0108
X5.6278Y-4.1093
X5.6278Y-4.1692
X5.6287Y-3.8543
X5.6287Y-4.188
X5.6298Y-3.9887
X5.6514Y-3.9715
X5.652Y-4.002
X5.6668Y-3.8343
X5.6681Y-4.1683
X5.687Y-4.1685
X5.7055Y-4.1476
X5.7075Y-4.1693
X5.7419Y-4.1319
X5.7483Y-4.1707
X5.7661Y-3.8352
X5.7757Y-4.2319
X5.7852Y-4.1693
X5.8252Y-3.8137
X5.8256Y-4.1693
X5.8272Y-4.1425
X5.8492Y-4.1452
X5.8833Y-4.1689
X5.8838Y-4.1881
X5.9039Y-3.8137
X5.924Y-4.1496
X5.9358Y-3.9689
X5.9417Y-3.9331
X5.9417Y-4.0118
X5.9417Y-4.0689
X5.9422Y-4.1491
X5.9624Y-4.1102
X5.9625Y-3.9913
X5.963Y-3.8727
X5.963Y-3.8924
X5.9633Y-4.0896
X5.9634Y-4.0709
X5.9821Y-4.1093
X5.9827Y-3.9121
X5.9831Y-3.9921
X5.9831Y-4.1299
X5.9831Y-4.1496
X5.9831Y-4.1693
X5.9831Y-4.189
X6.0224Y-4.2283
X6.0657Y-4.0458
X6.0803Y-4.2157
X6.087Y-4.1473
X6.1039Y-4.1383
X6.1106Y-3.9335
X6.122Y-3.987
X6.1357Y-3.8165
X6.1591Y-4.124
X6.1846Y-3.9661
X6.2031Y-3.8614
T0
M30
