M48
; DRILL file {KiCad 5.1.10-88a1d61d58~88~ubuntu20.04.1} date Thu Jun 10 18:40:42 2021
; FORMAT={-:-/ absolute / inch / decimal}
; #@! TF.CreationDate,2021-06-10T18:40:42+05:30
; #@! TF.GenerationSoftware,Kicad,Pcbnew,5.1.10-88a1d61d58~88~ubuntu20.04.1
; #@! TF.FileFunction,Plated,1,6,PTH
FMAT,2
INCH
T1C0.0079
T2C0.0866
%
G90
G05
T1
X4.5492Y-3.5181
X4.5531Y-3.6441
X4.5555Y-3.5488
X4.5557Y-3.5677
X4.5634Y-3.502
X4.5673Y-3.4697
X4.5685Y-3.5335
X4.5689Y-3.4075
X4.5693Y-3.439
X4.5717Y-3.3756
X4.5783Y-3.4886
X4.5858Y-3.4547
X4.5866Y-3.3291
X4.587Y-3.2976
X4.587Y-3.3925
X4.587Y-3.4236
X4.5874Y-3.3606
X4.6413Y-3.3461
X4.6423Y-3.3134
X4.6566Y-3.1786
X4.6909Y-3.4394
X4.6913Y-3.4087
X4.6925Y-3.3453
X4.6929Y-3.4705
X4.6933Y-3.502
X4.6933Y-3.5339
X4.6933Y-3.5528
X4.6937Y-3.3134
X4.6945Y-3.376
X4.7472Y-3.5189
X4.7488Y-3.3291
X4.7496Y-3.2976
X4.75Y-3.3614
X4.75Y-3.4862
X4.7508Y-3.3929
X4.7512Y-3.4244
X4.7516Y-3.4551
X4.839Y-3.7909
X4.839Y-3.9039
X4.8524Y-2.6709
X4.8524Y-2.8362
X4.8559Y-3.8055
X4.8626Y-3.9172
X4.8681Y-2.6512
X4.8681Y-2.852
X4.8685Y-3.3378
X4.8705Y-3.5165
X4.8713Y-3.4756
X4.8713Y-3.8185
X4.8717Y-3.8404
X4.8768Y-3.8837
X4.8776Y-3.9287
X4.8801Y-3.1823
X4.8801Y-3.2295
X4.8839Y-2.6709
X4.8839Y-2.8362
X4.887Y-3.39
X4.888Y-3.3673
X4.888Y-3.4146
X4.888Y-3.4559
X4.889Y-3.2719
X4.889Y-3.3122
X4.889Y-3.4982
X4.889Y-3.5377
X4.8902Y-3.8692
X4.8913Y-3.4764
X4.8996Y-2.6512
X4.8996Y-2.852
X4.9008Y-3.0524
X4.915Y-3.874
X4.9154Y-2.6709
X4.9154Y-2.8362
X4.937Y-3.9465
X4.952Y-4.1287
X4.9524Y-4.1476
X4.9626Y-2.6732
X4.9626Y-2.8346
X4.9756Y-3.9476
X4.976Y-3.9673
X4.9764Y-3.9874
X4.9768Y-4.0157
X4.9783Y-2.6583
X4.9783Y-2.8472
X4.9839Y-3.2673
X4.9937Y-3.8681
X4.9941Y-2.6732
X4.9941Y-2.8319
X5.0055Y-3.2665
X5.0071Y-3.1715
X5.0071Y-3.1911
X5.0081Y-3.2217
X5.0098Y-2.848
X5.0102Y-2.6575
X5.0102Y-3.3433
X5.014Y-3.3122
X5.0238Y-3.4244
X5.0238Y-3.4589
X5.0248Y-3.6262
X5.0256Y-2.6736
X5.0256Y-2.8339
X5.0287Y-3.0809
X5.0291Y-3.8583
X5.0297Y-3.2226
X5.0337Y-3.1715
X5.0346Y-3.1911
X5.0476Y-3.4543
X5.0476Y-3.4756
X5.0478Y-3.5694
X5.0484Y-3.4234
X5.0514Y-3.0809
X5.0575Y-2.674
X5.0685Y-3.4543
X5.0728Y-2.7811
X5.0732Y-2.6559
X5.075Y-3.0809
X5.0886Y-2.674
X5.0888Y-3.4766
X5.0888Y-3.5691
X5.089Y-2.7689
X5.0898Y-3.4549
X5.0921Y-4.0657
X5.0984Y-3.8694
X5.0984Y-4.0102
X5.1043Y-2.6579
X5.1043Y-2.7823
X5.1138Y-3.8548
X5.1205Y-2.674
X5.1205Y-2.7689
X5.124Y-4.0394
X5.1262Y-3.6518
X5.1272Y-3.6252
X5.1311Y-3.8694
X5.139Y-3.0268
X5.1512Y-3.8694
X5.1512Y-4.0067
X5.1518Y-3.6252
X5.1518Y-3.6518
X5.1551Y-3.4543
X5.1638Y-3.098
X5.1677Y-2.7819
X5.1695Y-3.3181
X5.1695Y-3.3663
X5.1705Y-3.2758
X5.1713Y-3.8694
X5.1803Y-3.6252
X5.1803Y-3.6518
X5.1827Y-2.7689
X5.1988Y-2.7811
X5.2057Y-3.1857
X5.2098Y-3.8694
X5.2146Y-2.7693
X5.2224Y-3.1945
X5.2246Y-3.2748
X5.2246Y-3.3197
X5.2248Y-3.3663
X5.2449Y-3.1953
X5.2469Y-2.7386
X5.2472Y-3.0071
X5.2622Y-2.7272
X5.2705Y-4.085
X5.2709Y-3.9175
X5.272Y-4.0063
X5.2732Y-4.0346
X5.2835Y-3.2236
X5.2846Y-3.5514
X5.2865Y-3.7972
X5.2916Y-4.0404
X5.2984Y-3.9787
X5.3059Y-3.8646
X5.3063Y-3.7972
X5.3112Y-3.5524
X5.3118Y-3.3299
X5.3133Y-3.9657
X5.3152Y-3.2807
X5.3228Y-3.374
X5.3248Y-2.6669
X5.3248Y-2.7772
X5.3311Y-3.3299
X5.335Y-4.1496
X5.3406Y-2.6472
X5.3406Y-2.7575
X5.3407Y-3.5524
X5.3457Y-3.1705
X5.3563Y-2.6669
X5.3563Y-2.7772
X5.3575Y-4.1505
X5.3585Y-2.9756
X5.3585Y-3.0002
X5.3585Y-3.0258
X5.3585Y-3.0524
X5.372Y-2.6472
X5.372Y-2.7575
X5.3803Y-3.2555
X5.3878Y-2.6669
X5.3878Y-2.7772
X5.4112Y-3.8571
X5.4296Y-4.1964
X5.4417Y-3.2421
X5.448Y-4.2054
X5.4654Y-2.9807
X5.4697Y-3.3055
X5.4719Y-4.0489
X5.4767Y-4.1843
X5.478Y-4.1142
X5.4783Y-4.002
X5.4784Y-4.0209
X5.4788Y-3.9831
X5.4792Y-3.9642
X5.4866Y-3.5228
X5.4988Y-3.0752
X5.4988Y-3.1602
X5.4988Y-3.2488
X5.4992Y-3.3386
X5.4996Y-3.4169
X5.5004Y-4.0876
X5.5142Y-4.2325
X5.5178Y-4.0734
X5.522Y-3.8748
X5.5269Y-4.1871
X5.5289Y-4.2457
X5.5335Y-2.9488
X5.5339Y-3.0539
X5.5366Y-3.1354
X5.537Y-3.2173
X5.537Y-3.3075
X5.537Y-3.3976
X5.5382Y-3.4209
X5.5421Y-4.0734
X5.5433Y-3.8807
X5.5606Y-3.9772
X5.5709Y-3.7677
X5.5921Y-3.7308
X5.5955Y-3.7494
X5.6212Y-3.7252
X5.622Y-3.7441
X5.6283Y-3.687
X5.6283Y-4.3195
X5.6535Y-3.724
X5.6539Y-3.8642
X5.6552Y-4.3245
X5.6557Y-3.6642
X5.6569Y-3.8828
X5.6575Y-3.4866
X5.6622Y-3.923
X5.6622Y-3.9419
X5.6654Y-4.1024
X5.6654Y-4.1228
X5.6654Y-4.1417
X5.6661Y-3.4224
X5.6663Y-3.9604
X5.6724Y-3.7235
X5.6753Y-4.3249
X5.676Y-2.9413
X5.676Y-3.8917
X5.6767Y-4.3646
X5.6773Y-4.3445
X5.678Y-3.9921
X5.6799Y-3.485
X5.6819Y-3.3661
X5.6827Y-3.013
X5.6827Y-3.0441
X5.6827Y-3.0756
X5.6833Y-3.9099
X5.6835Y-3.1071
X5.6835Y-3.1386
X5.6835Y-3.202
X5.6839Y-3.1701
X5.6839Y-3.2331
X5.6839Y-3.872
X5.685Y-4.2402
X5.6866Y-3.422
X5.6933Y-3.4693
X5.6957Y-4.4031
X5.7004Y-4.1299
X5.7024Y-3.752
X5.7035Y-3.8602
X5.7035Y-3.8791
X5.7035Y-3.9094
X5.7055Y-4.0669
X5.7063Y-3.7228
X5.7067Y-3.5126
X5.7071Y-4.2394
X5.724Y-4.376
X5.7252Y-3.3118
X5.7254Y-3.4378
X5.7256Y-3.3744
X5.7256Y-3.7232
X5.726Y-3.0283
X5.726Y-3.0909
X5.726Y-3.3441
X5.726Y-3.4067
X5.7264Y-3.2799
X5.7303Y-4.0413
X5.7303Y-4.2402
X5.7311Y-3.9114
X5.7311Y-3.9646
X5.7311Y-4.0669
X5.7311Y-4.0925
X5.7331Y-4.4707
X5.734Y-4.438
X5.735Y-3.8642
X5.7354Y-4.4904
X5.7368Y-4.286
X5.7437Y-3.7307
X5.7445Y-3.652
X5.7469Y-3.6988
X5.7484Y-4.4564
X5.75Y-2.915
X5.75Y-3.6768
X5.7508Y-4.4276
X5.7555Y-3.4091
X5.7563Y-3.2807
X5.7567Y-3.3433
X5.7567Y-3.374
X5.7567Y-3.9114
X5.7567Y-3.9646
X5.7571Y-3.3122
X5.7583Y-3.0276
X5.7587Y-3.876
X5.7587Y-3.9882
X5.7685Y-3.6941
X5.7819Y-4.248
X5.7823Y-3.9114
X5.7823Y-4.0394
X5.7823Y-4.0925
X5.7862Y-3.876
X5.7882Y-3.2803
X5.7885Y-3.2493
X5.7886Y-3.0594
X5.7886Y-3.0902
X5.7886Y-3.1228
X5.789Y-3.3122
X5.7909Y-2.9161
X5.8031Y-4.1402
X5.8059Y-3.9094
X5.8079Y-3.9646
X5.8079Y-4.0413
X5.8083Y-3.9882
X5.8091Y-4.0646
X5.8224Y-3.6992
X5.8247Y-3.8584
X5.8257Y-3.8773
X5.8281Y-4.3343
X5.8335Y-3.9114
X5.8335Y-3.9902
X5.8335Y-4.0413
X5.8335Y-4.0669
X5.8358Y-3.7126
X5.8374Y-4.1201
X5.8384Y-3.7313
X5.8418Y-3.7602
X5.8488Y-4.2331
X5.8504Y-4.2894
X5.8571Y-3.8642
X5.8571Y-3.8839
X5.8591Y-3.9114
X5.8591Y-3.9646
X5.8591Y-4.0669
X5.8591Y-4.0925
X5.861Y-4.0394
X5.8614Y-4.252
X5.8618Y-4.4429
X5.8657Y-2.9425
X5.8687Y-4.2846
X5.874Y-4.1378
X5.876Y-3.8839
X5.8807Y-3.2181
X5.8823Y-3.1236
X5.8827Y-3.2803
X5.8831Y-3.0598
X5.8846Y-3.9114
X5.8846Y-3.9646
X5.8846Y-3.9902
X5.8846Y-4.0413
X5.8846Y-4.065
X5.8846Y-4.0909
X5.8854Y-3.3756
X5.8865Y-4.291
X5.9043Y-4.3972
X5.9054Y-4.2905
X5.9067Y-4.2717
X5.9096Y-3.5075
X5.9122Y-3.8799
X5.9142Y-3.0594
X5.9142Y-3.4071
X5.9145Y-3.2807
X5.9146Y-3.028
X5.915Y-3.3435
X5.9161Y-3.8602
X5.9197Y-4.2335
X5.922Y-3.9508
X5.9238Y-3.5299
X5.9354Y-4.2441
X5.9358Y-3.8602
X5.9358Y-3.9114
X5.9457Y-3.0598
X5.9457Y-3.0913
X5.9457Y-3.1224
X5.9465Y-3.0283
X5.9535Y-4.2508
X5.9642Y-4.4669
X5.9689Y-4.2358
X5.9751Y-3.4054
X5.9837Y-3.472
X5.9854Y-3.2961
X5.9854Y-3.5075
X5.9862Y-3.2331
X5.9874Y-3.2016
X5.9881Y-4.26
X5.9883Y-3.4404
X5.9886Y-3.1689
X5.9909Y-3.2685
X6.0016Y-3.5795
X6.0043Y-4.2504
X6.0063Y-3.0622
X6.0087Y-3.3437
X6.0094Y-3.3729
X6.0098Y-3.3999
X6.0138Y-3.028
X6.0154Y-3.4606
X6.022Y-4.3866
X6.0236Y-3.2342
X6.028Y-3.4295
X6.0283Y-3.4996
X6.0299Y-3.7752
X6.0319Y-4.0307
X6.0327Y-4.0524
X6.0343Y-4.0875
X6.0378Y-3.937
X6.0386Y-3.9571
X6.0409Y-4.1618
X6.0488Y-3.8791
X6.0768Y-4.2323
X6.0823Y-4.2504
X6.0854Y-4.1122
X6.1012Y-4.2012
X6.1079Y-4.2496
X6.113Y-4.1063
X6.115Y-4.0811
X6.1164Y-3.8164
X6.135Y-4.0961
X6.137Y-3.7972
X6.152Y-3.0098
X6.1547Y-3.9583
X6.1795Y-3.4366
X6.1807Y-3.0551
X6.1807Y-3.2248
X6.1807Y-3.3287
X6.1811Y-3.1398
X6.1811Y-3.8205
X6.1831Y-2.9303
X6.1878Y-3.8489
X6.2063Y-4.2122
X6.2138Y-3.3249
X6.2189Y-3.2209
X6.2197Y-3.0512
X6.2197Y-3.1343
X6.25Y-2.9614
X6.2579Y-3.3449
X6.2606Y-3.376
X6.2661Y-3.4105
X6.2693Y-3.3283
X6.272Y-3.3925
X6.2728Y-3.3596
X6.2747Y-3.4273
X6.3287Y-3.3133
X6.3457Y-3.298
X6.3579Y-3.344
X6.364Y-4.2272
X6.365Y-4.2075
X6.3654Y-3.4559
X6.366Y-3.4248
X6.3748Y-3.3598
X6.3756Y-3.298
X6.3784Y-3.3287
X6.3799Y-3.4712
X6.3801Y-3.4401
X6.4343Y-3.4866
X6.4346Y-3.3748
X6.435Y-3.5815
X6.435Y-3.613
X6.4354Y-3.6437
X6.4508Y-3.6276
X6.4531Y-3.6598
X6.4543Y-3.5965
X6.4646Y-3.6902
X6.4657Y-3.7354
X6.4694Y-3.671
X6.4724Y-3.7535
X6.4787Y-3.7079
T2
X4.6457Y-2.7362
X4.6457Y-4.4685
X6.378Y-2.7362
X6.378Y-4.4685
T0
M30
